<?xml version="1.0" encoding="UTF-8"?>
<svg id="Layer_2" data-name="Layer 2" xmlns="http://www.w3.org/2000/svg" viewBox="0 0 166.83 18.1">
  <g id="Layer_1-2" data-name="Layer 1">
    <g>
      <path d="M164.71,6.3h-9.89c.37-.57,2.09-2.22.55-2.4-.68-.08-2.41-.08-3.1,0-.32.04-.61.16-.88.32-2.51,2.9-4.67,6.12-7.05,9.14-.24.38-.1.91.36,1.01s2.64.08,3.18.02c.5-.06.97-.34,1.35-.65l3.95-5.25h12.04l-2.64,3.6-2.43.12c-1.88,2.82-3.98,5.59-7.66,5.88h-17.2c-1.71-.34-2.53-2.35-1.47-3.77,2.89-3.5,5.39-7.63,8.32-11.07,1.64-1.92,3.68-2.99,6.24-3.16,5.17-.33,10.69.26,15.9,0,1.66.07,2.73,1.15,2.54,2.85-.13,1.16-1.63,2.28-2.1,3.35Z"/>
      <polygon points="102.04 18.1 115.53 .16 123.22 .12 125.33 9.2 132.27 .11 138.72 .11 125.23 18.05 117.33 18.1 115.33 9.1 108.49 18.1 102.04 18.1"/>
      <polygon points="93.75 .11 90.95 3.85 81.12 3.93 78.66 7.1 88.45 7.1 85.73 10.88 75.83 10.92 73.16 14.4 82.95 14.4 80.2 18.1 60.57 18.1 74.11 .11 93.75 .11"/>
      <polygon points="109.24 .11 95.7 18.1 85.95 18.1 86.91 16.71 99.49 .11 109.24 .11"/>
      <path d="M0,18.1L13.56.13l19.97-.02c1.72.14,2.82,1.81,2.12,3.42-.41.96-2.83,3.85-3.68,4.51s-2.07,1.28-3.19,1.46c.01.27.28.39.42.63.44.76.36,1.43-.08,2.16-1.35,2.25-4.53,5.81-7.39,5.81H0ZM18.09,7.1h4.55c.54,0,1.23-.86,1.54-1.25.37-.46,1.48-1.79.26-1.95s-2.69.13-3.91,0l-2.45,3.21ZM12.59,14.4h4.45c.21,0,.92-.42,1.1-.6.2-.18,1.39-1.73,1.47-1.93.22-.57.03-.92-.56-.98-.45-.04-3.63-.04-3.85.06l-2.6,3.45Z"/>
    </g>
  </g>
</svg>