<?xml version="1.0" standalone="no"?>
<!DOCTYPE svg PUBLIC "-//W3C//DTD SVG 1.1//EN" "http://www.w3.org/Graphics/SVG/1.1/DTD/svg11.dtd" >
<svg xmlns="http://www.w3.org/2000/svg" xmlns:xlink="http://www.w3.org/1999/xlink" version="1.1">
<metadata>
Created by FontForge 20201107 at Mon Mar 24 19:37:09 2025
 By 
(c) 2010 Klim Type Foundry. All rights reserved.
</metadata>
<defs>
<font id="FoundersGrotesk-MediumItalic" horiz-adv-x="1024" >
  <font-face 
    font-family="Founders Grotesk Medium"
    font-weight="500"
    font-style="italic"
    font-stretch="normal"
    units-per-em="2048"
    panose-1="2 11 6 3 3 2 2 13 2 3"
    ascent="1290"
    descent="-758"
    x-height="903"
    cap-height="1290"
    bbox="-332 -420 2318 1933"
    underline-thickness="81"
    underline-position="-142"
    slope="-14"
    unicode-range="U+0020-FB04"
  />
<missing-glyph horiz-adv-x="1245" 
 />
    <glyph glyph-name="ff" unicode="ff" horiz-adv-x="1191" 
d="M500 903h323l31 115q37 139 127 218t231 79q238 0 281 -219l-164 -52q-23 95 -108 95q-49 0 -81 -34t-46 -95l-27 -107h229l-43 -172h-229l-182 -731h-244l182 731h-323l-183 -731h-243l182 731h-135l45 172h133l16 70q38 160 133 240.5t236 80.5q127 0 215 -73l-88 -148
q-47 41 -111 41q-59 0 -92 -34t-49 -101z" />
    <glyph glyph-name="fi" unicode="fi" horiz-adv-x="1056" 
d="M500 903h569l-225 -903h-246l182 731h-323l-183 -731h-243l182 731h-135l45 172h133l10 41q101 371 434 371q135 0 220.5 -63t111.5 -165l-186 -59q-8 47 -44.5 77t-96.5 30q-144 0 -193 -183z" />
    <glyph glyph-name="fl" unicode="fl" horiz-adv-x="1056" 
d="M920 1290h245l-321 -1290h-246zM500 903h209l-43 -172h-209l-183 -731h-243l182 731h-135l45 172h133l20 82q35 161 128.5 245.5t238.5 84.5q119 0 197 -60l-74 -157q-44 30 -100 30q-110 0 -146 -139z" />
    <glyph glyph-name="ffi" unicode="ffi" horiz-adv-x="1624" 
d="M823 903l11 41q101 371 434 371q135 0 220 -63t111 -165l-186 -59q-8 47 -44.5 77t-96.5 30q-144 0 -193 -183l-12 -49h569l-225 -903h-244l181 731h-324l-182 -731h-244l182 731h-323l-183 -731h-243l182 731h-135l45 172h133l16 70q38 160 133 240.5t236 80.5
q127 0 215 -73l-88 -148q-47 41 -111 41q-59 0 -92 -34t-49 -101l-16 -76h323z" />
    <glyph glyph-name="ffl" unicode="ffl" horiz-adv-x="1624" 
d="M1489 1290h244l-322 -1290h-244zM780 731h-323l-183 -731h-243l182 731h-135l45 172h133l16 70q38 160 133 240.5t236 80.5q127 0 215 -73l-88 -148q-47 41 -111 41q-59 0 -92 -34t-49 -101l-16 -76h323l21 82q35 162 128.5 246t237.5 84q119 0 197 -60l-74 -157
q-41 30 -100 30q-110 0 -146 -139l-20 -86h209l-43 -172h-209l-182 -731h-244z" />
    <glyph glyph-name="f_b" unicode="fb" horiz-adv-x="1734" 
d="M500 903h209l-43 -172h-209l-183 -731h-243l182 731h-135l45 172h133l20 82q35 161 128.5 245.5t238.5 84.5q119 0 197 -60l-74 -157q-44 30 -100 30q-110 0 -146 -139zM967 502l-17 -58q-33 -122 20 -202t163 -80q88 0 157.5 53t105.5 139t36 187q0 95 -49.5 145.5
t-141.5 50.5q-96 0 -171 -64t-103 -171zM881 170l-86 -170h-195l322 1290h245l-139 -545q52 85 137.5 134t190.5 49q160 0 247 -98t87 -261q0 -112 -36 -218t-100 -190t-162 -135t-214 -51q-113 0 -192.5 53t-104.5 142z" />
    <glyph glyph-name="f_f_b" unicode="ffb" horiz-adv-x="2301" 
d="M780 731h-323l-183 -731h-243l182 731h-135l45 172h133l16 70q38 160 133 240.5t236 80.5q127 0 215 -73l-88 -148q-47 41 -111 41q-59 0 -92 -34t-49 -101l-16 -76h323l21 82q35 162 128.5 246t237.5 84q119 0 197 -60l-74 -157q-41 30 -100 30q-110 0 -146 -139
l-20 -86h209l-43 -172h-209l-182 -731h-244zM1534 502l-16 -58q-33 -122 19.5 -202t162.5 -80q88 0 157.5 53t105.5 139t36 187q0 95 -49.5 145.5t-141.5 50.5q-96 0 -171 -64t-103 -171zM1448 170l-86 -170h-195l322 1290h246l-140 -545q52 85 137.5 134t190.5 49
q160 0 247 -98t87 -261q0 -112 -36 -218t-100 -190t-162 -135t-214 -51q-113 0 -192.5 53t-104.5 142z" />
    <glyph glyph-name="f_h" unicode="fh" horiz-adv-x="1673" 
d="M500 903h209l-43 -172h-209l-183 -731h-243l182 731h-135l45 172h133l20 82q35 161 128.5 245.5t238.5 84.5q119 0 197 -60l-74 -157q-44 30 -100 30q-110 0 -146 -139zM963 475l-117 -475h-246l322 1290h245l-135 -538q125 176 318 176q83 0 143 -30t89.5 -81t38 -119
t-12.5 -145l-138 -553h-245l127 514q27 106 -4.5 162.5t-122.5 56.5q-93 0 -163 -69t-99 -189z" />
    <glyph glyph-name="f_f_h" unicode="ffh" horiz-adv-x="2240" 
d="M780 731h-323l-183 -731h-243l182 731h-135l45 172h133l16 70q38 160 133 240.5t236 80.5q127 0 215 -73l-88 -148q-47 41 -111 41q-59 0 -92 -34t-49 -101l-16 -76h323l21 82q35 162 128.5 246t237.5 84q119 0 197 -60l-74 -157q-41 30 -100 30q-110 0 -146 -139
l-20 -86h209l-43 -172h-209l-182 -731h-244zM1530 475l-117 -475h-246l322 1290h246l-136 -538q125 176 318 176q83 0 143 -30t89.5 -81t38 -119t-12.5 -145l-137 -553h-246l127 514q27 106 -4.5 162.5t-122.5 56.5q-93 0 -163 -69t-99 -189z" />
    <glyph glyph-name="f_idieresis" unicode="f&#xef;" horiz-adv-x="1056" 
d="M782 731h-325l-183 -731h-243l182 731h-135l45 172h133l16 68q95 344 412 344q233 0 289 -223l-180 -58q-21 103 -117 103q-114 0 -160 -162l-16 -72h569l-223 -903h-246zM1030 1042l60 240h225l-60 -240h-225z" />
    <glyph glyph-name="f_f_idieresis" unicode="ff&#xef;" horiz-adv-x="1624" 
d="M780 731h-323l-183 -731h-243l182 731h-135l45 172h133l16 70q38 160 133 240.5t236 80.5q127 0 215 -73l-88 -148q-47 41 -111 41q-59 0 -92 -34t-49 -101l-16 -76h323l17 68q95 344 411 344q233 0 289 -223l-180 -58q-21 103 -115 103q-117 0 -160 -162l-18 -72h571
l-225 -903h-246l183 731h-326l-182 -731h-244zM1597 1042l62 240h223l-59 -240h-226z" />
    <glyph glyph-name="f_j" unicode="fj" horiz-adv-x="1056" 
d="M580 -80l200 811h-323l-183 -731h-243l182 731h-135l45 172h133l10 41q101 371 434 371q135 0 220.5 -63t111.5 -165l-186 -59q-8 47 -44.5 77t-96.5 30q-144 0 -193 -183l-12 -49h569l-248 -1001q-35 -137 -110 -199.5t-205 -62.5q-71 0 -135 22.5t-99 56.5l80 142
q62 -47 121 -47q42 0 67 25t40 81z" />
    <glyph glyph-name="f_f_j" unicode="ffj" horiz-adv-x="1624" 
d="M1147 -80l201 811h-324l-182 -731h-244l182 731h-323l-183 -731h-243l182 731h-135l45 172h133l16 70q38 160 133 240.5t236 80.5q127 0 215 -73l-88 -148q-47 41 -111 41q-59 0 -92 -34t-49 -101l-16 -76h323l11 41q101 371 434 371q135 0 220 -63t111 -165l-186 -59
q-8 47 -44.5 77t-96.5 30q-144 0 -193 -183l-12 -49h569l-250 -1001q-34 -136 -109 -199t-204 -63q-71 0 -134.5 22.5t-98.5 56.5l80 142q62 -47 118 -47q44 0 69 25t40 81z" />
    <glyph glyph-name="f_k" unicode="fk" horiz-adv-x="1644" 
d="M500 903h209l-43 -172h-209l-183 -731h-243l182 731h-135l45 172h133l20 82q35 161 128.5 245.5t238.5 84.5q119 0 197 -60l-74 -157q-44 30 -100 30q-110 0 -146 -139zM922 307l-76 -307h-246l322 1290h245l-186 -739l453 352h311l-494 -373l287 -530h-264l-219 410z
" />
    <glyph glyph-name="f_f_k" unicode="ffk" horiz-adv-x="2211" 
d="M780 731h-323l-183 -731h-243l182 731h-135l45 172h133l16 70q38 160 133 240.5t236 80.5q127 0 215 -73l-88 -148q-47 41 -111 41q-59 0 -92 -34t-49 -101l-16 -76h323l21 82q35 162 128.5 246t237.5 84q119 0 197 -60l-74 -157q-41 30 -100 30q-110 0 -146 -139
l-20 -86h209l-43 -172h-209l-182 -731h-244zM1489 307l-76 -307h-246l322 1290h246l-187 -739l453 352h311l-493 -373l286 -530h-264l-219 410z" />
    <glyph glyph-name=".notdef" horiz-adv-x="1245" 
 />
    <glyph glyph-name=".null" horiz-adv-x="0" 
 />
    <glyph glyph-name="nonmarkingreturn" horiz-adv-x="682" 
 />
    <glyph glyph-name="space" unicode=" " horiz-adv-x="368" 
 />
    <glyph glyph-name="exclam" unicode="!" horiz-adv-x="430" 
d="M-20 0l65 274h274l-65 -274h-274zM307 1290h262l-88 -348l-200 -561h-142l80 561z" />
    <glyph glyph-name="quotedbl" unicode="&#x22;" horiz-adv-x="665" 
d="M158 799l129 491h200l-129 -491h-200zM467 799l127 491h201l-127 -491h-201z" />
    <glyph glyph-name="numbersign" unicode="#" horiz-adv-x="1267" 
d="M1153 500l-55 -160h-228l-131 -340h-194l131 340h-240l-131 -340h-194l131 340h-195l51 160h207l113 291h-221l55 159h227l133 340h195l-133 -340h239l134 340h194l-133 -340h199l-56 -159h-204l-113 -291h219zM612 791l-112 -291h239l113 291h-240z" />
    <glyph glyph-name="dollar" unicode="$" horiz-adv-x="1191" 
d="M59 508l228 -6q-18 -121 35.5 -202.5t158.5 -113.5l90 365l-90 27q-278 74 -278 321q0 187 138 301.5t368 114.5q9 0 26.5 -1t26.5 -1l41 168h137l-47 -191q165 -47 253.5 -173t70.5 -310l-226 8q11 91 -28 166t-119 113l-88 -357l41 -10q164 -45 246.5 -126t82.5 -208
q0 -102 -41.5 -183t-114 -131.5t-165.5 -77t-199 -26.5q-29 0 -41 2l-45 -184h-137l49 201q-196 40 -296.5 175t-76.5 339zM457 940q0 -63 43 -101t125 -63l2 -2l88 350h-19q-113 0 -176 -47.5t-63 -136.5zM870 356q0 60 -42.5 98t-127.5 62l-88 -348h2q123 0 189.5 49
t66.5 139z" />
    <glyph glyph-name="percent" unicode="%" horiz-adv-x="1601" 
d="M338 889q0 -127 115 -127q75 0 126.5 76.5t51.5 205.5q0 125 -115 125q-76 0 -127 -75.5t-51 -204.5zM158 895q0 93 32 173t84 133.5t118.5 83.5t135.5 30q127 0 205 -76t78 -201q0 -93 -32 -173t-84.5 -133.5t-119 -83.5t-135.5 -30q-127 0 -204.5 76t-77.5 201z
M1462 1300l-1007 -1310h-199l1008 1310h198zM1380 401q0 127 -114 127q-75 0 -127 -76.5t-52 -205.5q0 -125 115 -125q76 0 127 75.5t51 204.5zM1561 395q0 -93 -32 -173t-84.5 -133.5t-119 -83.5t-135.5 -30q-127 0 -205 76t-78 201q0 93 32 173t84.5 133.5t119 83.5
t135.5 30q127 0 205 -76t78 -201z" />
    <glyph glyph-name="ampersand" unicode="&#x26;" horiz-adv-x="1329" 
d="M1065 666l221 -15q-108 -234 -287 -407q65 -78 150 -78q42 0 111 14l-41 -153q-74 -43 -177 -43q-119 0 -225 114q-196 -123 -401 -123q-173 0 -281 90t-108 238q0 144 88 240.5t270 167.5q-59 109 -59 213q0 176 123.5 283.5t302.5 107.5q165 0 247 -75.5t82 -197.5
q0 -139 -96.5 -230.5t-277.5 -160.5l186 -262q107 122 172 277zM463 168q127 0 248 70l-234 333q-108 -44 -155.5 -97.5t-47.5 -129.5q0 -79 53 -127.5t136 -48.5zM559 950q0 -79 53 -164q133 46 192 98.5t60 137.5q0 52 -32.5 84.5t-94.5 32.5q-76 0 -127 -50t-51 -139z
" />
    <glyph glyph-name="quotesingle" unicode="'" horiz-adv-x="370" 
d="M158 799l129 491h213l-129 -491h-213z" />
    <glyph glyph-name="parenleft" unicode="(" horiz-adv-x="645" 
d="M94 332q0 573 504 1020h242q-175 -157 -292.5 -343t-166.5 -352.5t-49 -324.5q0 -155 30.5 -275t98.5 -229h-215q-152 221 -152 504z" />
    <glyph glyph-name="parenright" unicode=")" horiz-adv-x="645" 
d="M616 848q0 -574 -503 -1020h-240q131 119 231 254t159.5 267t88.5 257.5t29 241.5q0 155 -30.5 275t-98.5 229h213q151 -220 151 -504z" />
    <glyph glyph-name="asterisk" unicode="*" horiz-adv-x="753" 
d="M154 1077l84 133l200 -123l56 230l153 -37l-57 -229l235 18l13 -158l-234 -18l90 -217l-147 -60l-90 218l-178 -154l-101 121l176 151z" />
    <glyph glyph-name="plus" unicode="+" horiz-adv-x="1259" 
d="M707 1169h204l-106 -430h428l-51 -204h-428l-107 -429h-205l107 429h-428l51 204h428z" />
    <glyph glyph-name="comma" unicode="," horiz-adv-x="413" 
d="M-37 0l68 274h272l-63 -262q-31 -131 -113 -197t-225 -69l28 129q67 3 104 32t52 93h-123z" />
    <glyph glyph-name="hyphen" unicode="-" horiz-adv-x="720" 
d="M94 416l53 215h508l-53 -215h-508z" />
    <glyph glyph-name="period" unicode="." horiz-adv-x="413" 
d="M-37 0l68 274h272l-65 -274h-275z" />
    <glyph glyph-name="slash" unicode="/" horiz-adv-x="735" 
d="M-174 -170l911 1520h240l-914 -1520h-237z" />
    <glyph glyph-name="zero" unicode="0" horiz-adv-x="1232" 
d="M592 182q136 0 221 104.5t137 323.5q29 116 29 213q0 138 -61.5 211.5t-176.5 73.5q-136 0 -221 -104.5t-137 -323.5q-29 -116 -29 -213q0 -138 61.5 -211.5t176.5 -73.5zM586 -25q-237 0 -365.5 136.5t-128.5 369.5q0 111 25 217q64 296 231 456.5t400 160.5
q237 0 366 -136.5t129 -369.5q0 -107 -26 -217q-62 -295 -230 -456t-401 -161z" />
    <glyph glyph-name="one" unicode="1" horiz-adv-x="655" 
d="M135 930l43 168q132 0 214 46t145 150h188l-322 -1294h-258l232 930h-242z" />
    <glyph glyph-name="two" unicode="2" horiz-adv-x="1054" 
d="M393 217h576l-54 -217h-970l41 172l471 328l39 27q52 36 78 54.5t70 51.5t66 54.5t51 53t43 58.5t24 60t10 67q0 80 -47.5 127t-139.5 47q-120 0 -186 -93t-68 -247l-250 14q5 242 145 391.5t382 149.5q203 0 313.5 -103.5t110.5 -261.5q0 -55 -12 -105.5t-29.5 -90.5
t-52 -82t-63.5 -71.5t-81 -68.5t-89 -64t-101 -67z" />
    <glyph glyph-name="three" unicode="3" horiz-adv-x="1081" 
d="M762 403q0 150 -184 150q-62 0 -111 -6l47 192q43 -6 111 -6q65 0 119.5 20t93.5 70t39 123q0 71 -48.5 116.5t-138.5 45.5q-109 0 -181 -67t-101 -197l-248 10q44 211 189.5 336t363.5 125q204 0 309.5 -92.5t105.5 -241.5q0 -74 -26 -134.5t-70 -101t-96.5 -66
t-112.5 -36.5q95 -26 147 -91.5t52 -156.5q0 -100 -42 -181.5t-113 -132.5t-162 -78.5t-191 -27.5q-258 0 -381 135.5t-84 344.5l242 -11q-24 -122 38.5 -192t180.5 -70q114 0 183 55t69 166z" />
    <glyph glyph-name="four" unicode="4" horiz-adv-x="1159" 
d="M1161 1290l-190 -766h194l-53 -213h-194l-78 -311h-252l78 311h-656l60 250l770 729h321zM852 1059l-565 -535h432z" />
    <glyph glyph-name="five" unicode="5" horiz-adv-x="1079" 
d="M1149 1290l-57 -227h-584q-65 -204 -105 -289q104 94 259 94q176 0 277 -106.5t101 -274.5q0 -226 -146.5 -369t-379.5 -143q-155 0 -267 62t-158.5 172t-16.5 246l235 -19q-20 -113 43 -183.5t176 -70.5q121 0 195 77.5t74 203.5q0 93 -53 150t-150 57q-156 0 -236 -123
l-243 18q63 148 141 362t119 363h776z" />
    <glyph glyph-name="six" unicode="6" horiz-adv-x="1130" 
d="M741 1110q-154 0 -257.5 -119t-143.5 -334q54 90 151.5 141.5t213.5 51.5q192 0 293.5 -105t101.5 -268q0 -112 -44 -207.5t-117.5 -159t-169 -99.5t-198.5 -36q-224 0 -351.5 131t-127.5 357q0 132 27.5 256.5t83 232.5t133.5 189t186 127.5t234 46.5q217 0 325 -108.5
t105 -288.5l-236 -11q3 95 -52.5 149t-156.5 54zM858 453q0 93 -59.5 147.5t-163.5 54.5q-119 0 -201 -73.5t-82 -198.5q0 -93 61 -148t165 -55q118 0 199 74t81 199z" />
    <glyph glyph-name="seven" unicode="7" horiz-adv-x="1015" 
d="M823 1059h-657l59 231h957l-47 -186q-121 -98 -217.5 -203.5t-165 -207.5t-123 -220t-90.5 -228t-70 -245h-281q89 339 241 598t394 461z" />
    <glyph glyph-name="eight" unicode="8" horiz-adv-x="1110" 
d="M541 168q120 0 192 60.5t72 160.5q0 84 -65.5 132t-176.5 48q-117 0 -188.5 -60t-71.5 -159q0 -83 65 -132.5t173 -49.5zM537 -25q-225 0 -357.5 101t-132.5 258q0 138 89 230t237 116q-164 80 -164 242q0 120 69 211.5t177.5 136.5t236.5 45q208 0 329.5 -88t121.5 -244
q0 -131 -74 -215.5t-211 -122.5q90 -31 146.5 -101.5t56.5 -170.5q0 -123 -71.5 -215t-189.5 -137.5t-263 -45.5zM659 750q103 0 169.5 59t66.5 152q0 79 -56.5 122t-144.5 43q-103 0 -169 -58t-66 -150q0 -80 56 -124t144 -44z" />
    <glyph glyph-name="nine" unicode="9" horiz-adv-x="1130" 
d="M483 180q154 0 258 119t144 334q-54 -90 -151.5 -141.5t-213.5 -51.5q-192 0 -293.5 105t-101.5 268q0 112 44 207.5t117.5 159t168.5 99.5t198 36q225 0 352.5 -131t127.5 -357q0 -132 -27.5 -256.5t-83 -232.5t-133.5 -189t-186 -127.5t-234 -46.5q-217 0 -325 109
t-105 289l235 10q-3 -95 52.5 -149t156.5 -54zM367 838q0 -93 59.5 -148t163.5 -55q119 0 200.5 73.5t81.5 198.5q0 93 -60.5 148t-164.5 55q-119 0 -199.5 -73.5t-80.5 -198.5z" />
    <glyph glyph-name="colon" unicode=":" horiz-adv-x="413" 
d="M-37 0l68 274h272l-65 -274h-275zM113 600l67 274h273l-66 -274h-274z" />
    <glyph glyph-name="semicolon" unicode=";" horiz-adv-x="413" 
d="M-37 0l68 274h272l-63 -262q-31 -131 -113 -197t-225 -69l28 129q67 3 104 32t52 93h-123zM113 600l67 274h273l-66 -274h-274z" />
    <glyph glyph-name="less" unicode="&#x3c;" horiz-adv-x="958" 
d="M90 496l66 274l907 389l-62 -252l-696 -286l553 -295l-57 -222z" />
    <glyph glyph-name="equal" unicode="=" horiz-adv-x="1296" 
d="M96 352l47 191h1061l-47 -191h-1061zM190 733l48 193h1062l-47 -193h-1063z" />
    <glyph glyph-name="greater" unicode="&#x3e;" horiz-adv-x="958" 
d="M969 770l-70 -274l-905 -392l61 252l697 291l-553 291l57 221z" />
    <glyph glyph-name="question" unicode="?" horiz-adv-x="1026" 
d="M610 383h-235q22 90 77 160t154 133q6 4 41.5 25.5t43.5 27t36 25.5t36 30t26 30.5t24 38t12 41.5t6 50q0 69 -45.5 112.5t-130.5 43.5q-122 0 -192 -95t-72 -235l-252 8q12 253 162 395t387 142q104 0 184 -28t127.5 -76.5t71.5 -108.5t25 -129q0 -61 -19.5 -116
t-47 -94.5t-73.5 -79t-83.5 -64t-92.5 -56.5q-76 -44 -115.5 -86t-54.5 -94zM264 0l68 274h272l-65 -274h-275z" />
    <glyph glyph-name="at" unicode="@" horiz-adv-x="1572" 
d="M1135 203q104 0 170.5 108.5t66.5 292.5q0 190 -123.5 302t-343.5 112q-145 0 -271 -48.5t-219 -137t-146.5 -220t-53.5 -290.5q0 -216 144 -345t384 -129q228 0 428 95l39 -117q-207 -117 -475 -117q-201 0 -355 73.5t-240.5 212.5t-86.5 324q0 183 65.5 340.5t179 267
t271 172t336.5 62.5q146 0 265 -42.5t197 -117.5t120.5 -177t42.5 -220q0 -127 -37 -230.5t-98.5 -168.5t-138 -100t-158.5 -35q-165 0 -209 141q-40 -67 -106 -104t-150 -37q-107 0 -175 77.5t-67 202.5q1 119 51 222.5t140 167t198 63.5q76 0 131 -35.5t74 -91.5l37 110
h199l-140 -473q-14 -55 1 -82.5t53 -27.5zM903 416l15 45q25 82 -2 139t-99 57q-88 0 -149.5 -91.5t-61.5 -207.5q0 -135 107 -135q65 0 115.5 48.5t74.5 144.5z" />
    <glyph glyph-name="A" unicode="A" horiz-adv-x="1357" 
d="M743 1290h285l209 -1290h-262l-49 319h-549l-203 -319h-270zM813 1006l-311 -490h393l-74 490h-8z" />
    <glyph glyph-name="B" unicode="B" horiz-adv-x="1249" 
d="M614 0h-610l322 1290h565q189 0 286 -75t97 -220q0 -137 -89.5 -224t-223.5 -109q96 -20 154.5 -84.5t58.5 -165.5t-44.5 -180.5t-122 -129.5t-178 -76t-215.5 -26zM723 559h-330l-90 -352h322q140 0 216.5 57t76.5 156q0 139 -195 139zM522 1083l-82 -329h297
q136 0 206.5 51t70.5 143q0 135 -180 135h-312z" />
    <glyph glyph-name="C" unicode="C" horiz-adv-x="1370" 
d="M100 543q0 208 93 384t263.5 282t383.5 106q138 0 244.5 -42.5t171 -118.5t95 -178.5t23.5 -225.5l-239 -11q5 156 -75 253.5t-245 97.5q-103 0 -190 -45t-142.5 -120t-86.5 -170t-31 -198q0 -165 88.5 -260.5t238.5 -95.5q171 0 278 97.5t140 252.5l244 -10
q-35 -168 -122.5 -293.5t-232 -199t-329.5 -73.5q-254 0 -412 156t-158 412z" />
    <glyph glyph-name="D" unicode="D" horiz-adv-x="1331" 
d="M311 205h217q252 0 397.5 151.5t145.5 407.5q0 155 -94 238t-275 83h-172zM4 0l322 1290h428q172 0 301.5 -59.5t203.5 -178.5t74 -286q0 -343 -227 -554.5t-598 -211.5h-504z" />
    <glyph glyph-name="E" unicode="E" horiz-adv-x="1144" 
d="M1020 213l-51 -213h-965l322 1290h946l-53 -213h-695l-78 -313h545l-53 -211h-545l-86 -340h713z" />
    <glyph glyph-name="F" unicode="F" horiz-adv-x="1087" 
d="M260 0h-256l322 1290h923l-53 -213h-668l-86 -344h516l-53 -209h-516z" />
    <glyph glyph-name="G" unicode="G" horiz-adv-x="1427" 
d="M1380 780l-247 -12q-2 142 -82 232t-236 90q-137 0 -241.5 -76.5t-156.5 -197.5t-52 -263q0 -168 89 -263t240 -95q136 0 237 70t161 196h-342l47 190h581l-161 -651h-220l45 180q-126 -205 -403 -205q-242 0 -390.5 156.5t-148.5 407.5q0 211 93 388t263.5 282.5
t383.5 105.5q136 0 240.5 -41t169 -114t97.5 -169t33 -211z" />
    <glyph glyph-name="H" unicode="H" horiz-adv-x="1376" 
d="M260 0h-256l322 1290h256l-131 -526h636l132 526h256l-322 -1290h-256l137 553h-637z" />
    <glyph glyph-name="I" unicode="I" horiz-adv-x="483" 
d="M326 1290h256l-322 -1290h-256z" />
    <glyph glyph-name="J" unicode="J" horiz-adv-x="1091" 
d="M958 1290h256l-213 -850q-118 -465 -552 -465q-235 0 -347.5 143t-68.5 380l248 12q-53 -317 188 -317q118 0 184 71t103 219z" />
    <glyph glyph-name="K" unicode="K" horiz-adv-x="1251" 
d="M1153 0h-285l-327 571l-174 -143l-107 -428h-256l322 1290h256l-144 -571l680 571h314l-684 -577z" />
    <glyph glyph-name="L" unicode="L" horiz-adv-x="1101" 
d="M326 1290h256l-269 -1077h682l-53 -213h-938z" />
    <glyph glyph-name="M" unicode="M" horiz-adv-x="1581" 
d="M786 0h-221l-59 1024h-8l-256 -1024h-238l322 1290h389l47 -942h6l504 942h409l-321 -1290h-258l254 1024h-8z" />
    <glyph glyph-name="N" unicode="N" horiz-adv-x="1327" 
d="M580 1290l389 -887l221 887h237l-321 -1290h-203l-428 940l-233 -940h-238l322 1290h254z" />
    <glyph glyph-name="O" unicode="O" horiz-adv-x="1415" 
d="M821 1315q270 0 433 -152.5t163 -417.5q0 -209 -94 -385.5t-260 -280.5t-367 -104q-270 0 -433 152.5t-163 417.5q0 209 94 385.5t260 280.5t367 104zM702 201q129 0 233 72t161 196.5t57 275.5q0 158 -89.5 251.5t-248.5 93.5q-129 0 -232.5 -72.5t-160.5 -197
t-57 -275.5q0 -158 89 -251t248 -93z" />
    <glyph glyph-name="P" unicode="P" horiz-adv-x="1169" 
d="M422 653h231q161 0 250.5 61.5t89.5 190.5q0 93 -56.5 135.5t-174.5 42.5h-234zM369 444l-111 -444h-254l322 1290h487q209 0 321.5 -98.5t112.5 -267.5q0 -236 -166 -358t-452 -122h-260z" />
    <glyph glyph-name="Q" unicode="Q" horiz-adv-x="1415" 
d="M821 1315q270 0 433 -152.5t163 -417.5q0 -169 -64.5 -319.5t-178.5 -257.5l92 -131l-158 -105l-88 125q-152 -82 -324 -82q-270 0 -433 152.5t-163 417.5q0 209 94 385.5t260 280.5t367 104zM702 201q103 0 187 41l-103 147l160 107l90 -131q117 152 117 374
q0 162 -89.5 256.5t-248.5 94.5q-129 0 -232.5 -72.5t-160.5 -197t-57 -275.5q0 -158 89 -251t248 -93z" />
    <glyph glyph-name="R" unicode="R" horiz-adv-x="1253" 
d="M1096 0h-262q-13 23 -13 74q0 29 15.5 126.5t15.5 137.5q0 71 -43 105t-133 34h-301l-119 -477h-252l322 1290h548q207 0 319 -83.5t112 -248.5q0 -164 -109.5 -268.5t-267.5 -120.5q182 -38 182 -204q0 -37 -16.5 -142t-16.5 -145q0 -46 19 -78zM424 678h295
q146 0 234.5 60.5t88.5 183.5q0 82 -55.5 121.5t-173.5 39.5h-287z" />
    <glyph glyph-name="S" unicode="S" horiz-adv-x="1200" 
d="M55 508l238 -6q-24 -156 65 -241t252 -85q117 0 183.5 47t66.5 135q0 61 -41 96.5t-129 59.5l-213 57q-278 74 -278 324q0 188 138 304t368 116q119 0 218 -34t168.5 -97.5t102.5 -160.5t20 -216l-239 8q16 128 -60 213.5t-223 85.5q-107 0 -167 -45.5t-60 -132.5
q0 -61 38 -94.5t118 -57.5l172 -49q164 -47 246.5 -129.5t82.5 -210.5q0 -102 -41.5 -183.5t-114 -132.5t-165.5 -77.5t-199 -26.5q-275 0 -425.5 143.5t-121.5 389.5z" />
    <glyph glyph-name="T" unicode="T" horiz-adv-x="1269" 
d="M649 0h-256l269 1077h-457l53 213h1176l-56 -213h-463z" />
    <glyph glyph-name="U" unicode="U" horiz-adv-x="1304" 
d="M590 -25q-128 0 -229 39.5t-163.5 114.5t-82.5 183t14 245l184 733h254l-186 -751q-39 -163 22.5 -256t204.5 -93q153 0 237.5 83t127.5 255l190 762h256l-198 -796q-68 -272 -221 -395.5t-410 -123.5z" />
    <glyph glyph-name="V" unicode="V" horiz-adv-x="1316" 
d="M674 0h-275l-178 1290h256l127 -977h8l629 977h270z" />
    <glyph glyph-name="W" unicode="W" horiz-adv-x="1755" 
d="M1200 1290l6 -952h8l484 952h252l-664 -1290h-285l-4 930h-8l-483 -930h-283l-2 1290h250l-8 -948h8l496 948h233z" />
    <glyph glyph-name="X" unicode="X" horiz-adv-x="1312" 
d="M1174 1290h290l-618 -628l338 -662h-271l-247 481l-471 -481h-291l665 670l-317 620h270l223 -442z" />
    <glyph glyph-name="Y" unicode="Y" horiz-adv-x="1273" 
d="M696 731l486 559h286l-698 -792l-123 -498h-248l123 498l-301 792h262z" />
    <glyph glyph-name="Z" unicode="Z" horiz-adv-x="1179" 
d="M344 213h717l-51 -213h-1057l47 190l918 887h-689l54 213h1030l-49 -196z" />
    <glyph glyph-name="bracketleft" unicode="[" horiz-adv-x="612" 
d="M547 1176l-293 -1172h184l-43 -176h-407l379 1524h407l-43 -176h-184z" />
    <glyph glyph-name="backslash" unicode="\" horiz-adv-x="718" 
d="M403 1350l252 -1520h-209l-251 1520h208z" />
    <glyph glyph-name="bracketright" unicode="]" horiz-adv-x="612" 
d="M147 4l293 1172h-184l41 176h408l-379 -1524h-408l45 176h184z" />
    <glyph glyph-name="asciicircum" unicode="^" horiz-adv-x="800" 
d="M479 1290h250l150 -422h-220l-88 258l-215 -258h-239z" />
    <glyph glyph-name="underscore" unicode="_" horiz-adv-x="780" 
d="M-117 -274l45 188h699l-47 -188h-697z" />
    <glyph glyph-name="grave" unicode="`" 
d="M842 1016h-166l-127 274h252z" />
    <glyph glyph-name="a" unicode="a" horiz-adv-x="1030" 
d="M635 387l4 19l-203 -27q-93 -11 -137.5 -39.5t-44.5 -89.5q0 -51 32 -77t83 -26q95 0 168.5 64t97.5 176zM913 549l-82 -322q-10 -38 2.5 -57.5t43.5 -19.5q29 0 79 16l-32 -133q-80 -53 -166 -53q-70 0 -116.5 39t-45.5 114q-46 -76 -126.5 -116t-188.5 -40
q-127 0 -198 62.5t-71 167.5q0 137 101.5 214.5t277.5 98.5l289 35l4 20q18 79 -13 123.5t-112 44.5q-145 0 -205 -137l-225 23q54 140 175 219.5t296 79.5q182 0 269.5 -101.5t43.5 -277.5z" />
    <glyph glyph-name="b" unicode="b" horiz-adv-x="1130" 
d="M362 502l-16 -58q-33 -122 19.5 -202t162.5 -80q88 0 157.5 53t105.5 139t36 187q0 95 -49 145.5t-141 50.5q-96 0 -171.5 -64t-103.5 -171zM276 170l-86 -170h-194l321 1290h246l-139 -545q52 85 137.5 134t190.5 49q160 0 246.5 -98t86.5 -261q0 -112 -36 -218
t-100 -190t-162 -135t-214 -51q-113 0 -192.5 53t-104.5 142z" />
    <glyph glyph-name="c" unicode="c" horiz-adv-x="1007" 
d="M45 367q0 153 70 281.5t196 204t281 75.5q196 0 294 -111t85 -282l-207 -15q5 103 -39.5 161t-142.5 58q-85 0 -152 -51t-103 -135.5t-36 -185.5q0 -96 51 -149.5t139 -53.5q100 0 167 58.5t97 164.5l203 -18q-40 -172 -169 -283t-322 -111q-189 0 -300.5 108t-111.5 284
z" />
    <glyph glyph-name="d" unicode="d" horiz-adv-x="1122" 
d="M768 401l14 58q35 122 -17.5 202t-162.5 80q-88 0 -157.5 -53t-105.5 -139t-36 -187q0 -95 48.5 -145.5t142.5 -50.5q96 0 171 64t103 171zM850 739l137 551h244l-322 -1290h-243l39 158q-51 -85 -136 -134t-190 -49q-161 0 -247.5 98t-86.5 261q0 112 36 218t100 190
t162 135t214 51q112 0 190 -51.5t103 -137.5z" />
    <glyph glyph-name="e" unicode="e" horiz-adv-x="1021" 
d="M743 309l201 -20q-55 -149 -180 -231.5t-295 -82.5q-196 0 -310 105t-114 287q0 153 71 281.5t196.5 204t277.5 75.5q102 0 179.5 -32.5t122 -89t66 -125.5t21.5 -151q0 -69 -16 -141h-682q-3 -106 53.5 -166.5t159.5 -60.5q180 0 249 147zM309 543h441q5 85 -42 145
t-141 60q-95 0 -161 -56t-97 -149z" />
    <glyph glyph-name="f" unicode="f" horiz-adv-x="622" 
d="M213 731h-135l45 172h133l31 115q37 139 127 218t231 79q123 0 192 -59t89 -160l-164 -52q-23 95 -109 95q-97 0 -129 -129l-24 -107h229l-43 -172h-229l-183 -731h-243z" />
    <glyph glyph-name="g" unicode="g" horiz-adv-x="1105" 
d="M758 428l12 57q29 116 -23.5 188t-162.5 72q-131 0 -208 -97.5t-77 -241.5q0 -97 50.5 -147t137.5 -50q96 0 171.5 59t99.5 160zM678 98l24 105q-48 -77 -129.5 -120.5t-181.5 -43.5q-156 0 -251 94t-95 258q0 101 33.5 196.5t95 171.5t159 122.5t214.5 46.5
q110 0 186.5 -51t102.5 -132l43 158h243l-202 -817q-54 -219 -191.5 -330.5t-351.5 -111.5q-110 0 -201.5 37.5t-150 116t-60.5 184.5l234 12q4 -81 58.5 -122.5t131.5 -41.5q226 0 289 268z" />
    <glyph glyph-name="h" unicode="h" horiz-adv-x="1069" 
d="M358 475l-116 -475h-246l321 1290h246l-135 -538q125 176 317 176q164 0 230.5 -107t28.5 -268l-138 -553h-245l127 514q27 106 -4.5 162.5t-122.5 56.5q-94 0 -164 -69t-99 -189z" />
    <glyph glyph-name="i" unicode="i" horiz-adv-x="452" 
d="M219 903h246l-223 -903h-246zM254 1051l59 239h252l-59 -239h-252z" />
    <glyph glyph-name="j" unicode="j" horiz-adv-x="452" 
d="M465 903l-248 -1001q-35 -137 -110.5 -199.5t-204.5 -62.5q-71 0 -135 22.5t-99 56.5l80 142q62 -47 121 -47q42 0 66.5 25t39.5 81l244 983h246zM254 1051l59 239h252l-59 -239h-252z" />
    <glyph glyph-name="k" unicode="k" horiz-adv-x="1040" 
d="M317 307l-75 -307h-246l321 1290h246l-186 -739l452 352h312l-494 -373l287 -530h-264l-219 410z" />
    <glyph glyph-name="l" unicode="l" horiz-adv-x="452" 
d="M317 1290h246l-321 -1290h-246z" />
    <glyph glyph-name="m" unicode="m" horiz-adv-x="1644" 
d="M989 745q134 183 340 183q159 0 225 -99.5t27 -261.5l-139 -567h-246l129 514q26 108 -1 163.5t-116 55.5q-83 0 -151.5 -70.5t-98.5 -191.5l-116 -471h-246l127 514q29 104 2 161.5t-117 57.5q-83 0 -152.5 -70.5t-99.5 -191.5l-114 -471h-246l223 903h246l-37 -151
q56 80 140 128t180 48q103 0 166 -49.5t75 -133.5z" />
    <glyph glyph-name="n" unicode="n" horiz-adv-x="1069" 
d="M358 475l-116 -475h-246l223 903h246l-37 -151q125 176 317 176q164 0 230.5 -107t28.5 -268l-138 -553h-245l127 514q27 106 -4.5 162.5t-122.5 56.5q-94 0 -164 -69t-99 -189z" />
    <glyph glyph-name="o" unicode="o" horiz-adv-x="1052" 
d="M481 162q66 0 121 32.5t89 85.5t52.5 116.5t18.5 129.5q0 103 -50 159t-141 56q-87 0 -152 -56t-95.5 -137.5t-30.5 -170.5q0 -103 48.5 -159t139.5 -56zM473 -25q-193 0 -310.5 110t-117.5 294q0 152 68 277.5t191.5 198.5t277.5 73q191 0 308.5 -110t117.5 -294
q0 -152 -68 -277.5t-191 -198.5t-276 -73z" />
    <glyph glyph-name="p" unicode="p" horiz-adv-x="1130" 
d="M362 502l-16 -58q-33 -122 19.5 -202t162.5 -80q88 0 157.5 53t105.5 139t36 187q0 95 -49 145.5t-141 50.5q-96 0 -171.5 -64t-103.5 -171zM281 164l-125 -500h-246l309 1239h246l-41 -158q52 85 137.5 134t190.5 49q160 0 246.5 -98t86.5 -261q0 -112 -36 -218
t-100 -190t-162 -135t-214 -51q-112 0 -189.5 51.5t-102.5 137.5z" />
    <glyph glyph-name="q" unicode="q" horiz-adv-x="1118" 
d="M768 401l14 58q35 122 -17.5 202t-162.5 80q-88 0 -157.5 -53t-105.5 -139t-36 -187q0 -95 48.5 -145.5t142.5 -50.5q96 0 171 64t103 171zM850 739l41 164h246l-310 -1239h-245l123 494q-51 -85 -136 -134t-190 -49q-161 0 -247.5 98t-86.5 261q0 112 36 218t100 190
t162 135t214 51q112 0 190 -51.5t103 -137.5z" />
    <glyph glyph-name="r" unicode="r" horiz-adv-x="739" 
d="M842 891l-76 -229q-55 38 -139 38q-96 0 -170.5 -66.5t-106.5 -187.5l-108 -446h-246l223 903h246l-45 -176q53 93 130 147t169 54q72 0 123 -37z" />
    <glyph glyph-name="s" unicode="s" horiz-adv-x="917" 
d="M-2 322l205 12q1 -63 33.5 -107.5t81 -64t106.5 -19.5q78 0 123 26.5t45 76.5q0 40 -26 62t-83 36l-123 29q-239 57 -239 252q0 140 106.5 221.5t266.5 81.5q189 0 291 -85.5t110 -244.5l-207 -10q-5 82 -56.5 126t-144.5 44q-63 0 -102 -26.5t-39 -72.5q0 -68 94 -90
l154 -39q112 -28 169.5 -92t57.5 -157q0 -99 -56 -169.5t-145.5 -103.5t-201.5 -33q-189 0 -304.5 89.5t-115.5 257.5z" />
    <glyph glyph-name="t" unicode="t" horiz-adv-x="675" 
d="M92 264l117 467h-129l37 146l63 10q64 10 98 41.5t70 101.5l60 123h147l-61 -250h245l-43 -172h-245l-111 -442q-15 -63 5 -92t75 -29q75 0 164 41l-41 -158q-118 -76 -248 -76q-123 0 -180 77t-23 212z" />
    <glyph glyph-name="u" unicode="u" horiz-adv-x="1052" 
d="M696 424l119 479h246l-225 -903h-246l39 152q-120 -177 -320 -177q-81 0 -138.5 30t-85.5 81t-35.5 119t13.5 145l138 553h245l-129 -520q-29 -106 -1 -162.5t118 -56.5q93 0 162 69t100 191z" />
    <glyph glyph-name="v" unicode="v" horiz-adv-x="991" 
d="M506 0h-262l-121 903h235l74 -635h8l406 635h256z" />
    <glyph glyph-name="w" unicode="w" horiz-adv-x="1398" 
d="M915 903l11 -600h8l340 600h235l-518 -903h-239l-13 598h-8l-315 -598h-240l-53 903h233l27 -600h8l324 600h200z" />
    <glyph glyph-name="x" unicode="x" horiz-adv-x="1007" 
d="M1087 903l-446 -442l252 -461h-252l-164 307l-307 -307h-270l481 477l-229 426h251l144 -272l268 272h272z" />
    <glyph glyph-name="y" unicode="y" horiz-adv-x="1007" 
d="M289 -336h-248l229 346l-149 893h237l97 -627h8l395 627h260z" />
    <glyph glyph-name="z" unicode="z" horiz-adv-x="899" 
d="M590 721h-447l45 182h762l-43 -168l-606 -553h481l-45 -182h-786l41 168z" />
    <glyph glyph-name="braceleft" unicode="{" horiz-adv-x="647" 
d="M80 504l43 172h51q61 0 85.5 30t47.5 119l72 285q29 120 101.5 181t183.5 61h145l-43 -176h-82q-38 0 -56 -19t-28 -57l-70 -285q-26 -102 -76 -156t-141 -69q119 -20 119 -131q0 -43 -46 -219t-46 -197q0 -39 51 -39h82l-43 -176h-145q-86 0 -132.5 39t-46.5 115
q0 48 49.5 237.5t49.5 226.5q0 31 -17 44.5t-57 13.5h-51z" />
    <glyph glyph-name="bar" unicode="|" horiz-adv-x="446" 
d="M-39 -170l379 1520h221l-379 -1520h-221z" />
    <glyph glyph-name="braceright" unicode="}" horiz-adv-x="647" 
d="M643 676l-43 -172h-51q-60 0 -85 -30.5t-48 -119.5l-72 -284q-62 -242 -287 -242h-143l43 176h82q38 0 56 19t28 57l70 285q26 102 76 156t141 69q-119 20 -119 131q0 43 46 219t46 197q0 39 -51 39h-82l43 176h143q87 0 133.5 -39t46.5 -115q0 -48 -50 -238t-50 -227
q0 -31 17.5 -44t58.5 -13h51z" />
    <glyph glyph-name="asciitilde" unicode="~" horiz-adv-x="815" 
d="M209 422h-143q33 131 101 208t159 77q36 0 67 -16t50 -35.5t44.5 -35.5t51.5 -16q67 0 100 96h141q-32 -131 -99 -208.5t-159 -77.5q-30 0 -55.5 10.5t-43.5 26t-34.5 31t-36.5 26t-41 10.5q-69 0 -102 -96z" />
    <glyph glyph-name="exclamdown" unicode="&#xa1;" horiz-adv-x="430" 
d="M510 1061l-66 -275h-274l66 275h274zM182 -229h-262l88 348l201 561h141l-80 -561z" />
    <glyph glyph-name="cent" unicode="&#xa2;" horiz-adv-x="1036" 
d="M66 367q0 151 67.5 277t193.5 203t287 81l45 178h142l-49 -193q140 -32 208 -135.5t62 -242.5l-201 -15q3 77 -26 133t-88 80l-144 -573q87 13 149 73.5t89 153.5l198 -18q-40 -166 -166.5 -275.5t-314.5 -118.5l-43 -172h-141l45 183q-147 29 -230 130t-83 251zM311 367
q0 -150 115 -197l143 573q-117 -20 -187.5 -122.5t-70.5 -253.5z" />
    <glyph glyph-name="sterling" unicode="&#xa3;" horiz-adv-x="1206" 
d="M836 1112q-120 0 -183 -82.5t-63 -200.5q0 -63 6 -112h295l-37 -150h-240v-32q0 -132 -59 -263q109 -73 205 -73q95 0 142.5 47t72.5 157l186 -10q-25 -216 -131 -317t-272 -101t-314 129q-122 -129 -276 -129q-96 0 -151.5 53.5t-55.5 143.5q0 112 78 179t186 67
q86 0 162 -37q10 52 10 94q0 34 -12 92h-219l37 150h143q-10 55 -10 110q0 100 37.5 189.5t104 155.5t163 104.5t209.5 38.5q226 0 323.5 -121t47.5 -332l-222 -10q27 125 -14.5 192.5t-148.5 67.5zM190 129q74 0 132 88q-63 53 -111 53q-39 0 -64.5 -21.5t-25.5 -60.5
q0 -59 69 -59z" />
    <glyph glyph-name="yen" unicode="&#xa5;" horiz-adv-x="1236" 
d="M145 530l39 158h254l-235 602h266l205 -536l452 536h295l-534 -602h252l-39 -158h-352l-33 -124h352l-39 -160h-352l-62 -246h-247l61 246h-352l37 160h354l33 124h-355z" />
    <glyph glyph-name="section" unicode="&#xa7;" horiz-adv-x="983" 
d="M950 532q0 -92 -53 -170.5t-141 -121.5q30 -49 30 -113q0 -139 -109.5 -229.5t-268.5 -90.5q-175 0 -287 88t-119 250l184 11q0 -81 62 -132t155 -51q66 0 108.5 31t43.5 94q0 28 -15.5 51t-54.5 48l-209 127q-94 58 -141 120t-47 144q0 93 53 171.5t142 121.5
q-34 55 -31 114q0 139 110 229.5t269 90.5q174 0 278.5 -86t108.5 -250l-184 -10q0 82 -53.5 131t-145.5 49q-66 0 -108.5 -31t-43.5 -94q0 -28 15 -50.5t55 -47.5l209 -127q94 -58 141 -120.5t47 -146.5zM416 760q-2 0 -6 4q-95 -39 -95 -133q0 -34 21 -61.5t67 -59.5
l220 -148l6 -6q94 44 94 133q0 35 -21 63t-67 60z" />
    <glyph glyph-name="dieresis" unicode="&#xa8;" 
d="M391 1042l60 240h225l-60 -240h-225zM721 1042l59 240h226l-60 -240h-225z" />
    <glyph glyph-name="copyright" unicode="&#xa9;" horiz-adv-x="1482" 
d="M121 645q0 190 90.5 344.5t243.5 240t336 85.5t336 -85.5t243 -240t90 -344.5t-90 -344.5t-243 -240t-336 -85.5t-336 85.5t-243.5 240t-90.5 344.5zM393 645q0 181 114.5 295.5t285.5 114.5t268 -95.5t110 -252.5l-167 -7q-8 86 -60 140.5t-147 54.5q-98 0 -155.5 -67.5
t-57.5 -182.5q0 -114 57.5 -181t155.5 -67q95 0 147 54t60 139l167 -8q-13 -157 -110 -253t-268 -96t-285.5 115.5t-114.5 296.5zM219 645q0 -122 45.5 -229t122.5 -182t182 -118.5t222 -43.5q116 0 220.5 43.5t181.5 118.5t122 182t45 229q0 162 -76.5 294.5t-207 206
t-285.5 73.5q-156 0 -287 -73.5t-208 -205.5t-77 -295z" />
    <glyph glyph-name="ordfeminine" unicode="&#xaa;" horiz-adv-x="833" 
d="M618 883l5 18l-152 -20q-65 -10 -98 -34t-33 -71q0 -35 22.5 -54.5t61.5 -19.5q67 0 121.5 49t72.5 132zM854 1014l-61 -246q-14 -59 32 -59q32 0 64 14l-27 -115q-67 -43 -137 -43q-66 0 -102.5 35.5t-36.5 97.5q-35 -65 -100 -100t-148 -35q-98 0 -152.5 49.5
t-54.5 132.5q0 204 295 238l225 27l6 22q26 123 -90 123q-102 0 -151 -100l-193 18q41 112 138.5 176t240.5 64q144 0 215.5 -80.5t36.5 -218.5z" />
    <glyph glyph-name="guillemotleft" unicode="&#xab;" horiz-adv-x="905" 
d="M47 350l53 209l414 260l-59 -239l-230 -144l158 -145l-51 -201zM446 350l54 209l413 260l-59 -239l-229 -144l157 -145l-51 -201z" />
    <glyph glyph-name="registered" unicode="&#xae;" horiz-adv-x="833" 
d="M717 745h-103q-12 12 -18 72q-1 33 -16 46.5t-45 13.5h-64v-132h-102v394h192q74 0 112 -32.5t38 -90.5q0 -42 -24 -69.5t-62 -33.5q65 -12 71 -77q5 -75 21 -91zM471 954h64q37 0 54 12t17 40q0 51 -71 51h-64v-103zM899 940q0 -161 -108 -268t-263 -107
q-154 0 -262 107t-108 268t108 268t262 107q155 0 263 -107t108 -268zM831 940q0 135 -87 223t-216 88t-216 -88t-87 -223q0 -134 87.5 -222.5t215.5 -88.5t215.5 88.5t87.5 222.5z" />
    <glyph glyph-name="macron" unicode="&#xaf;" 
d="M393 1034l47 172h543l-47 -172h-543z" />
    <glyph glyph-name="degree" unicode="&#xb0;" horiz-adv-x="722" 
d="M461 877q66 0 110.5 45.5t44.5 113.5q0 59 -36 96t-95 37q-66 0 -110.5 -45.5t-44.5 -111.5q0 -61 35 -98t96 -37zM455 731q-125 0 -202 77.5t-77 195.5q0 133 90 222t226 89q124 0 201 -77t77 -196q0 -133 -89.5 -222t-225.5 -89z" />
    <glyph glyph-name="plusminus" unicode="&#xb1;" horiz-adv-x="1275" 
d="M735 1251h203l-84 -338h418l-49 -202h-418l-84 -338h-205l84 338h-418l51 202h416zM18 59l54 203h1038l-51 -203h-1041z" />
    <glyph glyph-name="twosuperior" unicode="&#xb2;" horiz-adv-x="714" 
d="M393 643h324l-41 -164h-619l33 137l279 191q120 82 171.5 132.5t51.5 109.5q0 90 -96 90q-62 0 -94.5 -52t-32.5 -133l-193 9q3 155 93 248.5t247 93.5q130 0 202.5 -66.5t72.5 -167.5q0 -49 -13.5 -90t-32 -71t-57 -63t-69.5 -54.5t-87 -57.5z" />
    <glyph glyph-name="threesuperior" unicode="&#xb3;" horiz-adv-x="714" 
d="M537 735q0 76 -99 76q-42 0 -65 -2l35 141q36 -4 65 -4q55 0 93 29t38 86q0 37 -25.5 61.5t-70.5 24.5q-118 0 -148 -143l-190 6q28 134 122.5 214.5t235.5 80.5q131 0 201 -60t70 -153q0 -90 -53.5 -142t-133.5 -67q58 -17 90.5 -57.5t32.5 -96.5q0 -127 -96 -196.5
t-231 -69.5q-168 0 -246.5 83.5t-55.5 215.5l187 -6q-13 -64 19.5 -99.5t93.5 -35.5q58 0 94.5 28t36.5 86z" />
    <glyph glyph-name="acute" unicode="&#xb4;" 
d="M649 1016h-178l180 274h267z" />
    <glyph glyph-name="paragraph" unicode="&#xb6;" horiz-adv-x="1103" 
d="M408 0l129 528q-173 0 -278 93.5t-105 234.5q0 137 72.5 236.5t198 148.5t290.5 49h483l-321 -1290h-170l278 1122h-129l-278 -1122h-170z" />
    <glyph glyph-name="periodcentered" unicode="&#xb7;" horiz-adv-x="497" 
d="M92 387l68 275h272l-65 -275h-275z" />
    <glyph glyph-name="cedilla" unicode="&#xb8;" horiz-adv-x="1421" 
d="M803 -190q0 -61 -41.5 -100.5t-96.5 -53.5t-120 -14q-72 0 -130.5 21t-90.5 52l47 72q73 -55 170 -55q102 0 102 55q0 46 -50.5 51.5t-100.5 -18.5l-50 22l152 181h94l-96 -107q92 21 151.5 -7.5t59.5 -98.5z" />
    <glyph glyph-name="onesuperior" unicode="&#xb9;" horiz-adv-x="464" 
d="M168 1036l33 131q84 0 136 29t91 94h150l-201 -811h-197l139 557h-151z" />
    <glyph glyph-name="ordmasculine" unicode="&#xba;" horiz-adv-x="845" 
d="M508 723q65 0 113 42.5t70 102.5t22 127q0 76 -35.5 117t-102.5 41q-65 0 -113 -43t-69.5 -103t-21.5 -126q0 -76 35 -117t102 -41zM500 561q-154 0 -248 88t-94 234q0 184 120 307t306 123q154 0 248 -87t94 -233q0 -185 -120 -308.5t-306 -123.5z" />
    <glyph glyph-name="guillemotright" unicode="&#xbb;" horiz-adv-x="905" 
d="M473 559l-53 -209l-412 -260l60 240l227 143l-158 145l51 201zM872 559l-51 -209l-413 -260l59 240l227 143l-157 145l51 201z" />
    <glyph glyph-name="onequarter" unicode="&#xbc;" horiz-adv-x="1560" 
d="M1384 1290l-1093 -1290h-189l1096 1290h186zM176 1038l33 131q84 0 136 29t91 94h150l-201 -813h-197l140 559h-152zM1499 811l-121 -477h111l-37 -154h-111l-45 -180h-192l45 180h-401l40 180l461 451h250zM1262 639l-314 -305h238z" />
    <glyph glyph-name="onehalf" unicode="&#xbd;" horiz-adv-x="1615" 
d="M1384 1290l-1093 -1290h-189l1096 1290h186zM176 1038l33 131q84 0 136 29t91 94h150l-201 -813h-197l140 559h-152zM1174 164h325l-41 -164h-620l32 137l281 193q64 44 93 66t65 54.5t49.5 60.5t13.5 60q0 88 -94 88q-62 0 -94.5 -51t-34.5 -133l-193 8q3 155 94 249.5
t248 94.5q130 0 201.5 -66.5t71.5 -168.5q0 -48 -13 -89t-32 -71t-56.5 -63t-68.5 -55.5t-86 -57.5z" />
    <glyph glyph-name="threequarters" unicode="&#xbe;" horiz-adv-x="1800" 
d="M1626 1290l-1096 -1290h-186l1094 1290h188zM1739 811l-119 -477h109l-35 -154h-113l-45 -180h-193l48 180h-404l43 180l461 451h248zM1503 639l-315 -305h237zM561 735q0 76 -98 76q-41 0 -66 -2l37 141q36 -4 64 -4q56 0 94.5 29.5t38.5 85.5q0 37 -25.5 61.5
t-70.5 24.5q-115 0 -150 -143l-188 6q27 134 120.5 214.5t235.5 80.5q131 0 200.5 -60t69.5 -153q0 -90 -53 -142t-133 -67q58 -17 90.5 -57.5t32.5 -96.5q0 -86 -48 -148t-120.5 -90t-157.5 -28q-169 0 -247 83.5t-54 215.5l186 -6q-13 -64 19 -99.5t92 -35.5q58 0 94.5 28
t36.5 86z" />
    <glyph glyph-name="questiondown" unicode="&#xbf;" horiz-adv-x="1026" 
d="M463 678h235q-22 -90 -77 -160t-154 -133q-6 -4 -41.5 -25.5t-43.5 -27t-36 -25.5t-36 -30t-26 -30.5t-24 -38t-12 -41.5t-6 -50q0 -69 45.5 -112.5t130.5 -43.5q122 0 192 95t72 235l252 -8q-12 -253 -162 -395t-387 -142q-104 0 -184 28t-127.5 76.5t-71.5 108.5
t-25 129q0 61 19.5 116t47 94.5t73.5 79t83.5 64t92.5 56.5q76 44 115.5 86t54.5 94zM809 1061l-68 -275h-272l66 275h274z" />
    <glyph glyph-name="Agrave" unicode="&#xc0;" horiz-adv-x="1357" 
d="M743 1290h285l209 -1290h-262l-49 319h-549l-203 -319h-270zM813 1006l-311 -490h393l-74 490h-8zM1006 1376h-166l-127 275h250z" />
    <glyph glyph-name="Aacute" unicode="&#xc1;" horiz-adv-x="1357" 
d="M743 1290h285l209 -1290h-262l-49 319h-549l-203 -319h-270zM813 1006l-311 -490h393l-74 490h-8zM987 1376h-178l176 275h266z" />
    <glyph glyph-name="Acircumflex" unicode="&#xc2;" horiz-adv-x="1357" 
d="M743 1290h285l209 -1290h-262l-49 319h-549l-203 -319h-270zM813 1006l-311 -490h393l-74 490h-8zM842 1651h250l102 -275h-154l-98 135l-166 -135h-172z" />
    <glyph glyph-name="Atilde" unicode="&#xc3;" horiz-adv-x="1357" 
d="M743 1290h285l209 -1290h-262l-49 319h-549l-203 -319h-270zM743 1376h-141q32 124 95.5 196.5t148.5 72.5q34 0 62.5 -15.5t45.5 -34t40.5 -34t47.5 -15.5q66 0 95 92h143q-33 -124 -97 -196t-149 -72q-34 0 -62 15.5t-45 33.5t-40.5 33.5t-48.5 15.5q-61 0 -95 -92z
M813 1006l-311 -490h393l-74 490h-8z" />
    <glyph glyph-name="Adieresis" unicode="&#xc4;" horiz-adv-x="1357" 
d="M743 1290h285l209 -1290h-262l-49 319h-549l-203 -319h-270zM813 1006l-311 -490h393l-74 490h-8zM963 1382l59 238h225l-59 -238h-225zM633 1382l59 238h223l-57 -238h-225z" />
    <glyph glyph-name="Aring" unicode="&#xc5;" horiz-adv-x="1357" 
d="M743 1290h285l209 -1290h-262l-49 319h-549l-203 -319h-270zM1135 1552q0 -86 -56.5 -142t-140.5 -56q-78 0 -126 46t-48 120q0 85 56 141.5t141 56.5q77 0 125.5 -46.5t48.5 -119.5zM813 1006l-311 -490h393l-74 490h-8zM1026 1546q0 31 -20 50.5t-52 19.5
q-35 0 -59.5 -26t-24.5 -64q0 -31 20 -50.5t52 -19.5q35 0 59.5 26t24.5 64z" />
    <glyph glyph-name="AE" unicode="&#xc6;" horiz-adv-x="2052" 
d="M1053 1290h1126l-53 -213h-694l-78 -313h544l-53 -211h-545l-86 -340h713l-51 -213h-965l88 354h-487l-317 -354h-291zM1178 1096l-490 -545h361l137 545h-8z" />
    <glyph glyph-name="Ccedilla" unicode="&#xc7;" horiz-adv-x="1370" 
d="M788 -190q0 -61 -41.5 -100.5t-96.5 -53.5t-120 -14q-72 0 -130.5 21t-90.5 52l47 72q73 -55 170 -55q103 0 103 55q0 31 -25 43.5t-58.5 8t-68.5 -18.5l-49 22l121 144q-206 36 -327.5 184.5t-121.5 372.5q0 208 93 384t263.5 282t383.5 106q138 0 244.5 -42.5
t171 -118.5t95 -178.5t23.5 -225.5l-239 -11q5 156 -75 253.5t-245 97.5q-103 0 -190 -45t-142.5 -120t-86.5 -170t-31 -198q0 -165 88.5 -260.5t238.5 -95.5q171 0 278 97.5t140 252.5l244 -10q-35 -168 -122.5 -293.5t-232 -199t-329.5 -73.5q-27 0 -39 2l-53 -61
q91 21 150.5 -7.5t59.5 -98.5z" />
    <glyph glyph-name="Egrave" unicode="&#xc8;" horiz-adv-x="1144" 
d="M918 1376h-166l-127 275h249zM1020 213l-51 -213h-965l322 1290h946l-53 -213h-695l-78 -313h545l-53 -211h-545l-86 -340h713z" />
    <glyph glyph-name="Eacute" unicode="&#xc9;" horiz-adv-x="1144" 
d="M899 1376h-178l176 275h266zM1020 213l-51 -213h-965l322 1290h946l-53 -213h-695l-78 -313h545l-53 -211h-545l-86 -340h713z" />
    <glyph glyph-name="Ecircumflex" unicode="&#xca;" horiz-adv-x="1144" 
d="M1020 213l-51 -213h-965l322 1290h946l-53 -213h-695l-78 -313h545l-53 -211h-545l-86 -340h713zM756 1651h250l102 -275h-154l-98 135l-166 -135h-172z" />
    <glyph glyph-name="Edieresis" unicode="&#xcb;" horiz-adv-x="1144" 
d="M547 1382l59 238h223l-57 -238h-225zM877 1382l59 238h225l-59 -238h-225zM1020 213l-51 -213h-965l322 1290h946l-53 -213h-695l-78 -313h545l-53 -211h-545l-86 -340h713z" />
    <glyph glyph-name="Igrave" unicode="&#xcc;" horiz-adv-x="483" 
d="M326 1290h256l-322 -1290h-256zM573 1376h-165l-127 275h249z" />
    <glyph glyph-name="Iacute" unicode="&#xcd;" horiz-adv-x="483" 
d="M326 1290h256l-322 -1290h-256zM555 1376h-178l176 275h266z" />
    <glyph glyph-name="Icircumflex" unicode="&#xce;" horiz-adv-x="483" 
d="M326 1290h256l-322 -1290h-256zM410 1651h249l103 -275h-154l-98 135l-166 -135h-172z" />
    <glyph glyph-name="Idieresis" unicode="&#xcf;" horiz-adv-x="483" 
d="M326 1290h256l-322 -1290h-256zM201 1382l59 238h223l-57 -238h-225zM530 1382l60 238h225l-59 -238h-226z" />
    <glyph glyph-name="Eth" unicode="&#xd0;" horiz-adv-x="1370" 
d="M49 553l51 211h133l132 526h428q172 0 301.5 -59.5t203.5 -178.5t74 -286q0 -343 -227 -554.5t-598 -211.5h-504l137 553h-131zM350 205h217q252 0 397.5 151.5t145.5 407.5q0 155 -94 238t-275 83h-172l-80 -321h316l-53 -211h-316z" />
    <glyph glyph-name="Ntilde" unicode="&#xd1;" horiz-adv-x="1327" 
d="M739 1376h-141q32 124 95.5 196.5t148.5 72.5q34 0 62.5 -15.5t45.5 -34t40.5 -34t47.5 -15.5q66 0 95 92h143q-33 -124 -97 -196t-149 -72q-34 0 -62 15.5t-45 33.5t-40.5 33.5t-48.5 15.5q-61 0 -95 -92zM580 1290l389 -887l221 887h237l-321 -1290h-203l-428 940
l-233 -940h-238l322 1290h254z" />
    <glyph glyph-name="Ograve" unicode="&#xd2;" horiz-adv-x="1415" 
d="M997 1376h-166l-126 275h249zM821 1315q270 0 433 -152.5t163 -417.5q0 -209 -94 -385.5t-260 -280.5t-367 -104q-270 0 -433 152.5t-163 417.5q0 209 94 385.5t260 280.5t367 104zM702 201q129 0 233 72t161 196.5t57 275.5q0 158 -89.5 251.5t-248.5 93.5
q-129 0 -232.5 -72.5t-160.5 -197t-57 -275.5q0 -158 89 -251t248 -93z" />
    <glyph glyph-name="Oacute" unicode="&#xd3;" horiz-adv-x="1415" 
d="M981 1376h-178l176 275h266zM821 1315q270 0 433 -152.5t163 -417.5q0 -209 -94 -385.5t-260 -280.5t-367 -104q-270 0 -433 152.5t-163 417.5q0 209 94 385.5t260 280.5t367 104zM702 201q129 0 233 72t161 196.5t57 275.5q0 158 -89.5 251.5t-248.5 93.5
q-129 0 -232.5 -72.5t-160.5 -197t-57 -275.5q0 -158 89 -251t248 -93z" />
    <glyph glyph-name="Ocircumflex" unicode="&#xd4;" horiz-adv-x="1415" 
d="M821 1315q270 0 433 -152.5t163 -417.5q0 -209 -94 -385.5t-260 -280.5t-367 -104q-270 0 -433 152.5t-163 417.5q0 209 94 385.5t260 280.5t367 104zM702 201q129 0 233 72t161 196.5t57 275.5q0 158 -89.5 251.5t-248.5 93.5q-129 0 -232.5 -72.5t-160.5 -197
t-57 -275.5q0 -158 89 -251t248 -93zM836 1651h249l103 -275h-154l-98 135l-166 -135h-172z" />
    <glyph glyph-name="Otilde" unicode="&#xd5;" horiz-adv-x="1415" 
d="M737 1376h-141q32 124 95.5 196.5t148.5 72.5q34 0 62.5 -15.5t45.5 -34t40.5 -34t47.5 -15.5q65 0 94 92h144q-33 -124 -97 -196t-149 -72q-34 0 -62.5 15.5t-45 33.5t-40.5 33.5t-49 15.5q-32 0 -54.5 -22t-39.5 -70zM821 1315q270 0 433 -152.5t163 -417.5
q0 -209 -94 -385.5t-260 -280.5t-367 -104q-270 0 -433 152.5t-163 417.5q0 209 94 385.5t260 280.5t367 104zM702 201q129 0 233 72t161 196.5t57 275.5q0 158 -89.5 251.5t-248.5 93.5q-129 0 -232.5 -72.5t-160.5 -197t-57 -275.5q0 -158 89 -251t248 -93z" />
    <glyph glyph-name="Odieresis" unicode="&#xd6;" horiz-adv-x="1415" 
d="M627 1382l59 238h223l-57 -238h-225zM956 1382l60 238h225l-59 -238h-226zM821 1315q270 0 433 -152.5t163 -417.5q0 -209 -94 -385.5t-260 -280.5t-367 -104q-270 0 -433 152.5t-163 417.5q0 209 94 385.5t260 280.5t367 104zM702 201q129 0 233 72t161 196.5t57 275.5
q0 158 -89.5 251.5t-248.5 93.5q-129 0 -232.5 -72.5t-160.5 -197t-57 -275.5q0 -158 89 -251t248 -93z" />
    <glyph glyph-name="multiply" unicode="&#xd7;" horiz-adv-x="1085" 
d="M176 182l-110 146l389 309l-232 311l162 129l229 -311l392 313l110 -145l-393 -313l231 -310l-163 -131l-228 312z" />
    <glyph glyph-name="Oslash" unicode="&#xd8;" horiz-adv-x="1415" 
d="M821 1315q219 0 369 -101l121 136l104 -88l-125 -140q127 -146 127 -377q0 -209 -94 -385.5t-260 -280.5t-367 -104q-206 0 -354 91l-133 -148l-107 88l134 148q-136 152 -136 391q0 209 94 385.5t260 280.5t367 104zM365 545q0 -115 47 -195l612 680q-89 60 -209 60
q-129 0 -232.5 -72.5t-160.5 -197t-57 -275.5zM702 201q129 0 233 72t161 196.5t57 275.5q0 104 -41 181l-604 -676q76 -49 194 -49z" />
    <glyph glyph-name="Ugrave" unicode="&#xd9;" horiz-adv-x="1304" 
d="M963 1376h-166l-127 275h250zM590 -25q-128 0 -229 39.5t-163.5 114.5t-82.5 183t14 245l184 733h254l-186 -751q-39 -163 22.5 -256t204.5 -93q153 0 237.5 83t127.5 255l190 762h256l-198 -796q-68 -272 -221 -395.5t-410 -123.5z" />
    <glyph glyph-name="Uacute" unicode="&#xda;" horiz-adv-x="1304" 
d="M971 1376h-178l176 275h266zM590 -25q-128 0 -229 39.5t-163.5 114.5t-82.5 183t14 245l184 733h254l-186 -751q-39 -163 22.5 -256t204.5 -93q153 0 237.5 83t127.5 255l190 762h256l-198 -796q-68 -272 -221 -395.5t-410 -123.5z" />
    <glyph glyph-name="Ucircumflex" unicode="&#xdb;" horiz-adv-x="1304" 
d="M590 -25q-128 0 -229 39.5t-163.5 114.5t-82.5 183t14 245l184 733h254l-186 -751q-39 -163 22.5 -256t204.5 -93q153 0 237.5 83t127.5 255l190 762h256l-198 -796q-68 -272 -221 -395.5t-410 -123.5zM825 1651h250l103 -275h-154l-98 135l-166 -135h-172z" />
    <glyph glyph-name="Udieresis" unicode="&#xdc;" horiz-adv-x="1304" 
d="M614 1382l60 238h223l-57 -238h-226zM944 1382l60 238h225l-60 -238h-225zM590 -25q-128 0 -229 39.5t-163.5 114.5t-82.5 183t14 245l184 733h254l-186 -751q-39 -163 22.5 -256t204.5 -93q153 0 237.5 83t127.5 255l190 762h256l-198 -796q-68 -272 -221 -395.5
t-410 -123.5z" />
    <glyph glyph-name="Yacute" unicode="&#xdd;" horiz-adv-x="1273" 
d="M696 731l486 559h286l-698 -792l-123 -498h-248l123 498l-301 792h262zM940 1376h-178l176 275h266z" />
    <glyph glyph-name="Thorn" unicode="&#xde;" horiz-adv-x="1169" 
d="M373 453h233q159 0 248.5 61.5t89.5 190.5q0 93 -56.5 135.5t-174.5 42.5h-234zM322 244l-64 -244h-254l322 1290h256l-50 -200h232q208 0 321 -99t113 -268q0 -236 -166 -357.5t-452 -121.5h-258z" />
    <glyph glyph-name="germandbls" unicode="&#xdf;" horiz-adv-x="1056" 
d="M1079 1024q0 -120 -74.5 -204.5t-187.5 -102.5q80 -25 131 -93t51 -173q0 -109 -38 -197.5t-102.5 -145t-147 -86.5t-174.5 -30q-103 0 -177 24l48 187q54 -21 118 -21q105 0 172.5 72.5t67.5 183.5q0 86 -47 131t-127 45q-47 0 -78 -2l47 191q23 -4 70 -4q91 0 151 53
t60 154q0 61 -34 96t-99 35q-184 0 -250 -260l-217 -877h-246l219 887q48 200 181 314t333 114q165 0 257.5 -75t92.5 -216z" />
    <glyph glyph-name="agrave" unicode="&#xe0;" horiz-adv-x="1030" 
d="M635 387l4 19l-203 -27q-93 -11 -137.5 -39.5t-44.5 -89.5q0 -51 32 -77t83 -26q95 0 168.5 64t97.5 176zM913 549l-82 -322q-10 -38 2.5 -57.5t43.5 -19.5q29 0 79 16l-32 -133q-80 -53 -166 -53q-70 0 -116.5 39t-45.5 114q-46 -76 -126.5 -116t-188.5 -40
q-127 0 -198 62.5t-71 167.5q0 137 101.5 214.5t277.5 98.5l289 35l4 20q18 79 -13 123.5t-112 44.5q-145 0 -205 -137l-225 23q54 140 175 219.5t296 79.5q182 0 269.5 -101.5t43.5 -277.5zM745 1016h-165l-127 274h252z" />
    <glyph glyph-name="aacute" unicode="&#xe1;" horiz-adv-x="1030" 
d="M635 387l4 19l-203 -27q-93 -11 -137.5 -39.5t-44.5 -89.5q0 -51 32 -77t83 -26q95 0 168.5 64t97.5 176zM913 549l-82 -322q-10 -38 2.5 -57.5t43.5 -19.5q29 0 79 16l-32 -133q-80 -53 -166 -53q-70 0 -116.5 39t-45.5 114q-46 -76 -126.5 -116t-188.5 -40
q-127 0 -198 62.5t-71 167.5q0 137 101.5 214.5t277.5 98.5l289 35l4 20q18 79 -13 123.5t-112 44.5q-145 0 -205 -137l-225 23q54 140 175 219.5t296 79.5q182 0 269.5 -101.5t43.5 -277.5zM729 1016h-178l180 274h266z" />
    <glyph glyph-name="acircumflex" unicode="&#xe2;" horiz-adv-x="1030" 
d="M635 387l4 19l-203 -27q-93 -11 -137.5 -39.5t-44.5 -89.5q0 -51 32 -77t83 -26q95 0 168.5 64t97.5 176zM913 549l-82 -322q-10 -38 2.5 -57.5t43.5 -19.5q29 0 79 16l-32 -133q-80 -53 -166 -53q-70 0 -116.5 39t-45.5 114q-46 -76 -126.5 -116t-188.5 -40
q-127 0 -198 62.5t-71 167.5q0 137 101.5 214.5t277.5 98.5l289 35l4 20q18 79 -13 123.5t-112 44.5q-145 0 -205 -137l-225 23q54 140 175 219.5t296 79.5q182 0 269.5 -101.5t43.5 -277.5zM582 1290h249l101 -274h-156l-96 135l-166 -135h-172z" />
    <glyph glyph-name="atilde" unicode="&#xe3;" horiz-adv-x="1030" 
d="M635 387l4 19l-203 -27q-93 -11 -137.5 -39.5t-44.5 -89.5q0 -51 32 -77t83 -26q95 0 168.5 64t97.5 176zM913 549l-82 -322q-10 -38 2.5 -57.5t43.5 -19.5q29 0 79 16l-32 -133q-80 -53 -166 -53q-70 0 -116.5 39t-45.5 114q-46 -76 -126.5 -116t-188.5 -40
q-127 0 -198 62.5t-71 167.5q0 137 101.5 214.5t277.5 98.5l289 35l4 20q18 79 -13 123.5t-112 44.5q-145 0 -205 -137l-225 23q54 140 175 219.5t296 79.5q182 0 269.5 -101.5t43.5 -277.5zM481 1022h-143q32 125 95 197.5t149 72.5q34 0 62.5 -15.5t45.5 -34.5t40.5 -34.5
t47.5 -15.5q62 0 96 94h142q-33 -124 -97 -197t-149 -73q-34 0 -62.5 15.5t-45 34.5t-40 34.5t-47.5 15.5q-64 0 -94 -94z" />
    <glyph glyph-name="adieresis" unicode="&#xe4;" horiz-adv-x="1030" 
d="M635 387l4 19l-203 -27q-93 -11 -137.5 -39.5t-44.5 -89.5q0 -51 32 -77t83 -26q95 0 168.5 64t97.5 176zM913 549l-82 -322q-10 -38 2.5 -57.5t43.5 -19.5q29 0 79 16l-32 -133q-80 -53 -166 -53q-70 0 -116.5 39t-45.5 114q-46 -76 -126.5 -116t-188.5 -40
q-127 0 -198 62.5t-71 167.5q0 137 101.5 214.5t277.5 98.5l289 35l4 20q18 79 -13 123.5t-112 44.5q-145 0 -205 -137l-225 23q54 140 175 219.5t296 79.5q182 0 269.5 -101.5t43.5 -277.5zM373 1042l59 240h225l-59 -240h-225zM702 1042l60 240h225l-59 -240h-226z" />
    <glyph glyph-name="aring" unicode="&#xe5;" horiz-adv-x="1030" 
d="M635 387l4 19l-203 -27q-93 -11 -137.5 -39.5t-44.5 -89.5q0 -51 32 -77t83 -26q95 0 168.5 64t97.5 176zM913 549l-82 -322q-10 -38 2.5 -57.5t43.5 -19.5q29 0 79 16l-32 -133q-80 -53 -166 -53q-70 0 -116.5 39t-45.5 114q-46 -76 -126.5 -116t-188.5 -40
q-127 0 -198 62.5t-71 167.5q0 137 101.5 214.5t277.5 98.5l289 35l4 20q18 79 -13 123.5t-112 44.5q-145 0 -205 -137l-225 23q54 140 175 219.5t296 79.5q182 0 269.5 -101.5t43.5 -277.5zM879 1192q0 -85 -57 -142t-140 -57q-77 0 -125.5 46.5t-48.5 119.5
q0 86 56.5 142.5t140.5 56.5q77 0 125.5 -46.5t48.5 -119.5zM772 1186q0 31 -20 50t-52 19q-35 0 -59.5 -26t-24.5 -64q0 -31 19 -50t51 -19q37 0 61.5 26t24.5 64z" />
    <glyph glyph-name="ae" unicode="&#xe6;" horiz-adv-x="1605" 
d="M635 373l4 16h-154q-231 0 -231 -145q0 -47 31 -72t84 -25q96 0 168.5 58t97.5 168zM705 168q-53 -91 -159 -141t-235 -50q-137 0 -218 62.5t-81 173.5q0 143 123 236.5t338 93.5h203l8 32q18 79 -13 123.5t-112 44.5q-148 0 -205 -131l-225 23q53 137 171 215t278 78
q101 0 168 -36t98 -95q141 131 338 131q100 0 175.5 -32.5t120 -89t66 -126t21.5 -150.5q0 -64 -17 -141h-682q-6 -107 53 -167t158 -60q183 0 252 147l201 -20q-57 -151 -181 -232.5t-294 -81.5q-262 0 -350 193zM895 543h440q5 87 -42 146t-140 59q-96 0 -162.5 -56.5
t-95.5 -148.5z" />
    <glyph glyph-name="ccedilla" unicode="&#xe7;" horiz-adv-x="1007" 
d="M586 -190q0 -61 -41.5 -100.5t-96.5 -53.5t-120 -14q-72 0 -131 21t-91 52l48 72q73 -55 170 -55q102 0 102 55q0 46 -51 51.5t-101 -18.5l-49 22l121 146q-141 29 -221 129.5t-80 249.5q0 153 70 281.5t196 204t281 75.5q196 0 294 -111t85 -282l-207 -15
q5 103 -39.5 161t-142.5 58q-85 0 -152 -51t-103 -135.5t-36 -185.5q0 -96 51 -149.5t139 -53.5q100 0 167 58.5t97 164.5l203 -18q-40 -172 -169 -283t-322 -111q-5 0 -14.5 1t-14.5 1l-53 -61q92 21 151.5 -7.5t59.5 -98.5z" />
    <glyph glyph-name="egrave" unicode="&#xe8;" horiz-adv-x="1021" 
d="M743 309l201 -20q-55 -149 -180 -231.5t-295 -82.5q-196 0 -310 105t-114 287q0 153 71 281.5t196.5 204t277.5 75.5q102 0 179.5 -32.5t122 -89t66 -125.5t21.5 -151q0 -69 -16 -141h-682q-3 -106 53.5 -166.5t159.5 -60.5q180 0 249 147zM309 543h441q5 85 -42 145
t-141 60q-95 0 -161 -56t-97 -149zM745 1016h-165l-127 274h252z" />
    <glyph glyph-name="eacute" unicode="&#xe9;" horiz-adv-x="1021" 
d="M729 1016h-178l180 274h266zM743 309l201 -20q-55 -149 -180 -231.5t-295 -82.5q-196 0 -310 105t-114 287q0 153 71 281.5t196.5 204t277.5 75.5q102 0 179.5 -32.5t122 -89t66 -125.5t21.5 -151q0 -69 -16 -141h-682q-3 -106 53.5 -166.5t159.5 -60.5q180 0 249 147z
M309 543h441q5 85 -42 145t-141 60q-95 0 -161 -56t-97 -149z" />
    <glyph glyph-name="ecircumflex" unicode="&#xea;" horiz-adv-x="1021" 
d="M586 1290h250l100 -274h-156l-96 135l-166 -135h-172zM743 309l201 -20q-55 -149 -180 -231.5t-295 -82.5q-196 0 -310 105t-114 287q0 153 71 281.5t196.5 204t277.5 75.5q102 0 179.5 -32.5t122 -89t66 -125.5t21.5 -151q0 -69 -16 -141h-682q-3 -106 53.5 -166.5
t159.5 -60.5q180 0 249 147zM309 543h441q5 85 -42 145t-141 60q-95 0 -161 -56t-97 -149z" />
    <glyph glyph-name="edieresis" unicode="&#xeb;" horiz-adv-x="1021" 
d="M373 1042l59 240h225l-59 -240h-225zM702 1042l60 240h225l-59 -240h-226zM743 309l201 -20q-55 -149 -180 -231.5t-295 -82.5q-196 0 -310 105t-114 287q0 153 71 281.5t196.5 204t277.5 75.5q102 0 179.5 -32.5t122 -89t66 -125.5t21.5 -151q0 -69 -16 -141h-682
q-3 -106 53.5 -166.5t159.5 -60.5q180 0 249 147zM309 543h441q5 85 -42 145t-141 60q-95 0 -161 -56t-97 -149z" />
    <glyph glyph-name="igrave" unicode="&#xec;" horiz-adv-x="452" 
d="M219 903h246l-223 -903h-246zM465 1016h-166l-127 274h252z" />
    <glyph glyph-name="iacute" unicode="&#xed;" horiz-adv-x="452" 
d="M449 1016h-179l181 274h266zM219 903h246l-223 -903h-246z" />
    <glyph glyph-name="icircumflex" unicode="&#xee;" horiz-adv-x="452" 
d="M309 1290h250l100 -274h-155l-96 135l-166 -135h-172zM219 903h246l-223 -903h-246z" />
    <glyph glyph-name="idieresis" unicode="&#xef;" horiz-adv-x="452" 
d="M100 1042l60 240h225l-59 -240h-226zM430 1042l59 240h226l-60 -240h-225zM219 903h246l-223 -903h-246z" />
    <glyph glyph-name="eth" unicode="&#xf0;" horiz-adv-x="1048" 
d="M322 920l-46 114l216 72q-88 68 -179 119l185 90q106 -56 204 -137l185 61l47 -113l-135 -45q202 -232 202 -526q0 -258 -148 -419t-382 -161q-191 0 -308.5 111t-117.5 293q0 211 134 355.5t333 144.5q157 0 250 -115q-50 129 -166 248zM481 166q66 0 119.5 30t86.5 79
t51 108.5t18 122.5q0 96 -49.5 148.5t-139.5 52.5q-87 0 -150.5 -51t-92.5 -126.5t-29 -160.5q0 -97 48.5 -150t137.5 -53z" />
    <glyph glyph-name="ntilde" unicode="&#xf1;" horiz-adv-x="1069" 
d="M358 475l-116 -475h-246l223 903h246l-37 -151q125 176 317 176q164 0 230.5 -107t28.5 -268l-138 -553h-245l127 514q27 106 -4.5 162.5t-122.5 56.5q-94 0 -164 -69t-99 -189zM524 1022h-143q32 125 95 197.5t149 72.5q34 0 62.5 -15.5t45.5 -34.5t40.5 -34.5
t47.5 -15.5q63 0 97 94h141q-33 -124 -97 -197t-149 -73q-34 0 -62.5 15.5t-45 34.5t-40 34.5t-47.5 15.5q-64 0 -94 -94z" />
    <glyph glyph-name="ograve" unicode="&#xf2;" horiz-adv-x="1052" 
d="M481 162q66 0 121 32.5t89 85.5t52.5 116.5t18.5 129.5q0 103 -50 159t-141 56q-87 0 -152 -56t-95.5 -137.5t-30.5 -170.5q0 -103 48.5 -159t139.5 -56zM473 -25q-193 0 -310.5 110t-117.5 294q0 152 68 277.5t191.5 198.5t277.5 73q191 0 308.5 -110t117.5 -294
q0 -152 -68 -277.5t-191 -198.5t-276 -73zM758 1016h-166l-127 274h252z" />
    <glyph glyph-name="oacute" unicode="&#xf3;" horiz-adv-x="1052" 
d="M739 1016h-178l180 274h267zM481 162q66 0 121 32.5t89 85.5t52.5 116.5t18.5 129.5q0 103 -50 159t-141 56q-87 0 -152 -56t-95.5 -137.5t-30.5 -170.5q0 -103 48.5 -159t139.5 -56zM473 -25q-193 0 -310.5 110t-117.5 294q0 152 68 277.5t191.5 198.5t277.5 73
q191 0 308.5 -110t117.5 -294q0 -152 -68 -277.5t-191 -198.5t-276 -73z" />
    <glyph glyph-name="ocircumflex" unicode="&#xf4;" horiz-adv-x="1052" 
d="M596 1290h250l100 -274h-155l-97 135l-166 -135h-172zM481 162q66 0 121 32.5t89 85.5t52.5 116.5t18.5 129.5q0 103 -50 159t-141 56q-87 0 -152 -56t-95.5 -137.5t-30.5 -170.5q0 -103 48.5 -159t139.5 -56zM473 -25q-193 0 -310.5 110t-117.5 294q0 152 68 277.5
t191.5 198.5t277.5 73q191 0 308.5 -110t117.5 -294q0 -152 -68 -277.5t-191 -198.5t-276 -73z" />
    <glyph glyph-name="otilde" unicode="&#xf5;" horiz-adv-x="1052" 
d="M481 162q66 0 121 32.5t89 85.5t52.5 116.5t18.5 129.5q0 103 -50 159t-141 56q-87 0 -152 -56t-95.5 -137.5t-30.5 -170.5q0 -103 48.5 -159t139.5 -56zM473 -25q-193 0 -310.5 110t-117.5 294q0 152 68 277.5t191.5 198.5t277.5 73q191 0 308.5 -110t117.5 -294
q0 -152 -68 -277.5t-191 -198.5t-276 -73zM496 1022h-144q32 125 95 197.5t149 72.5q34 0 62.5 -15.5t45.5 -34.5t41 -34.5t48 -15.5q62 0 96 94h141q-33 -124 -97 -197t-149 -73q-34 0 -62 15.5t-44.5 34.5t-40 34.5t-47.5 15.5q-64 0 -94 -94z" />
    <glyph glyph-name="odieresis" unicode="&#xf6;" horiz-adv-x="1052" 
d="M389 1042l60 240h225l-60 -240h-225zM719 1042l59 240h226l-60 -240h-225zM481 162q66 0 121 32.5t89 85.5t52.5 116.5t18.5 129.5q0 103 -50 159t-141 56q-87 0 -152 -56t-95.5 -137.5t-30.5 -170.5q0 -103 48.5 -159t139.5 -56zM473 -25q-193 0 -310.5 110t-117.5 294
q0 152 68 277.5t191.5 198.5t277.5 73q191 0 308.5 -110t117.5 -294q0 -152 -68 -277.5t-191 -198.5t-276 -73z" />
    <glyph glyph-name="divide" unicode="&#xf7;" horiz-adv-x="1259" 
d="M121 535l51 204h1061l-51 -204h-1061zM612 936l68 266h278l-67 -266h-279zM397 74l66 264h278l-65 -264h-279z" />
    <glyph glyph-name="oslash" unicode="&#xf8;" horiz-adv-x="1052" 
d="M53 -4l94 108q-102 105 -102 275q0 152 68 277.5t191.5 198.5t277.5 73q131 0 233 -60l100 115l91 -76l-97 -112q99 -110 99 -271q0 -152 -68 -277.5t-191 -198.5t-276 -73q-123 0 -229 56l-99 -113zM270 377q0 -59 23 -107l389 445q-51 28 -111 28q-88 0 -158 -53
t-106.5 -136t-36.5 -177zM481 160q89 0 159.5 53.5t107 136.5t36.5 176q0 51 -20 103l-387 -447q49 -22 104 -22z" />
    <glyph glyph-name="ugrave" unicode="&#xf9;" horiz-adv-x="1052" 
d="M696 424l119 479h246l-225 -903h-246l39 152q-120 -177 -320 -177q-81 0 -138.5 30t-85.5 81t-35.5 119t13.5 145l138 553h245l-129 -520q-29 -106 -1 -162.5t118 -56.5q93 0 162 69t100 191zM756 1016h-166l-127 274h252z" />
    <glyph glyph-name="uacute" unicode="&#xfa;" horiz-adv-x="1052" 
d="M739 1016h-178l180 274h267zM696 424l119 479h246l-225 -903h-246l39 152q-120 -177 -320 -177q-81 0 -138.5 30t-85.5 81t-35.5 119t13.5 145l138 553h245l-129 -520q-29 -106 -1 -162.5t118 -56.5q93 0 162 69t100 191z" />
    <glyph glyph-name="ucircumflex" unicode="&#xfb;" horiz-adv-x="1052" 
d="M602 1290h250l100 -274h-155l-97 135l-165 -135h-173zM696 424l119 479h246l-225 -903h-246l39 152q-120 -177 -320 -177q-81 0 -138.5 30t-85.5 81t-35.5 119t13.5 145l138 553h245l-129 -520q-29 -106 -1 -162.5t118 -56.5q93 0 162 69t100 191z" />
    <glyph glyph-name="udieresis" unicode="&#xfc;" horiz-adv-x="1052" 
d="M391 1042l60 240h225l-60 -240h-225zM721 1042l59 240h226l-60 -240h-225zM696 424l119 479h246l-225 -903h-246l39 152q-120 -177 -320 -177q-81 0 -138.5 30t-85.5 81t-35.5 119t13.5 145l138 553h245l-129 -520q-29 -106 -1 -162.5t118 -56.5q93 0 162 69t100 191z
" />
    <glyph glyph-name="yacute" unicode="&#xfd;" horiz-adv-x="1007" 
d="M289 -336h-248l229 346l-149 893h237l97 -627h8l395 627h260zM721 1016h-178l180 274h266z" />
    <glyph glyph-name="thorn" unicode="&#xfe;" horiz-adv-x="1130" 
d="M362 502l-16 -58q-33 -122 19.5 -202t162.5 -80q88 0 157.5 53t105.5 139t36 187q0 95 -49 145.5t-141 50.5q-96 0 -171.5 -64t-103.5 -171zM281 164l-125 -500h-246l407 1626h246l-139 -545q52 85 137.5 134t190.5 49q160 0 246.5 -98t86.5 -261q0 -112 -36 -218
t-100 -190t-162 -135t-214 -51q-112 0 -189.5 51.5t-102.5 137.5z" />
    <glyph glyph-name="ydieresis" unicode="&#xff;" horiz-adv-x="1007" 
d="M289 -336h-248l229 346l-149 893h237l97 -627h8l395 627h260zM373 1042l59 240h225l-59 -240h-225zM702 1042l60 240h225l-59 -240h-226z" />
    <glyph glyph-name="Amacron" unicode="&#x100;" horiz-adv-x="1357" 
d="M743 1290h285l209 -1290h-262l-49 319h-549l-203 -319h-270zM813 1006l-311 -490h393l-74 490h-8zM631 1389l45 172h553l-43 -172h-555z" />
    <glyph glyph-name="amacron" unicode="&#x101;" horiz-adv-x="1030" 
d="M635 387l4 19l-203 -27q-93 -11 -137.5 -39.5t-44.5 -89.5q0 -51 32 -77t83 -26q95 0 168.5 64t97.5 176zM913 549l-82 -322q-10 -38 2.5 -57.5t43.5 -19.5q29 0 79 16l-32 -133q-80 -53 -166 -53q-70 0 -116.5 39t-45.5 114q-46 -76 -126.5 -116t-188.5 -40
q-127 0 -198 62.5t-71 167.5q0 137 101.5 214.5t277.5 98.5l289 35l4 20q18 79 -13 123.5t-112 44.5q-145 0 -205 -137l-225 23q54 140 175 219.5t296 79.5q182 0 269.5 -101.5t43.5 -277.5zM375 1034l47 172h543l-47 -172h-543z" />
    <glyph glyph-name="Abreve" unicode="&#x102;" horiz-adv-x="1357" 
d="M743 1290h285l209 -1290h-262l-49 319h-549l-203 -319h-270zM813 1006l-311 -490h393l-74 490h-8zM903 1374q-93 0 -150 48.5t-57 136.5q0 35 13 92h145q-1 -6 -3.5 -22.5t-2.5 -24.5q0 -74 88 -74q112 0 143 121h154q-33 -134 -120 -205.5t-210 -71.5z" />
    <glyph glyph-name="abreve" unicode="&#x103;" horiz-adv-x="1030" 
d="M635 387l4 19l-203 -27q-93 -11 -137.5 -39.5t-44.5 -89.5q0 -51 32 -77t83 -26q95 0 168.5 64t97.5 176zM913 549l-82 -322q-10 -38 2.5 -57.5t43.5 -19.5q29 0 79 16l-32 -133q-80 -53 -166 -53q-70 0 -116.5 39t-45.5 114q-46 -76 -126.5 -116t-188.5 -40
q-127 0 -198 62.5t-71 167.5q0 137 101.5 214.5t277.5 98.5l289 35l4 20q18 79 -13 123.5t-112 44.5q-145 0 -205 -137l-225 23q54 140 175 219.5t296 79.5q182 0 269.5 -101.5t43.5 -277.5zM647 1014q-94 0 -151.5 49t-57.5 137q0 38 15 90h145q-6 -24 -6 -47q0 -74 88 -74
q54 0 91 31.5t52 89.5h154q-33 -132 -120 -204t-210 -72z" />
    <glyph glyph-name="Aogonek" unicode="&#x104;" horiz-adv-x="1357" 
d="M743 1290h285l209 -1290q-118 -57 -164.5 -95.5t-46.5 -82.5q0 -43 53 -43q37 0 107 28l-31 -118q-80 -47 -164 -47q-70 0 -108.5 34t-38.5 91q0 68 51.5 122.5t140.5 110.5h-61l-49 319h-549l-203 -319h-270zM813 1006l-313 -490h397l-76 490h-8z" />
    <glyph glyph-name="aogonek" unicode="&#x105;" horiz-adv-x="1030" 
d="M913 549l-82 -322q-10 -38 2.5 -57.5t43.5 -19.5q29 0 79 16l-32 -133q-109 -61 -166 -109.5t-58 -95.5q0 -49 56 -49q34 0 104 28l-29 -118q-80 -47 -165 -47q-70 0 -108 34t-38 91q0 64 46 117.5t128 107.5q-101 29 -98 141q-46 -76 -126.5 -116t-188.5 -40
q-127 0 -198 62.5t-71 167.5q0 137 101.5 214.5t277.5 98.5l289 35l4 20q18 79 -13 123.5t-112 44.5q-145 0 -205 -137l-225 23q54 140 175 219.5t296 79.5q182 0 269.5 -101.5t43.5 -277.5zM635 385l4 21l-203 -27q-93 -11 -137.5 -39.5t-44.5 -89.5q0 -51 32 -77t83 -26
q95 0 168.5 63.5t97.5 174.5z" />
    <glyph glyph-name="Cacute" unicode="&#x106;" horiz-adv-x="1370" 
d="M100 543q0 208 93 384t263.5 282t383.5 106q138 0 244.5 -42.5t171 -118.5t95 -178.5t23.5 -225.5l-239 -11q5 156 -75 253.5t-245 97.5q-103 0 -190 -45t-142.5 -120t-86.5 -170t-31 -198q0 -165 88.5 -260.5t238.5 -95.5q171 0 278 97.5t140 252.5l244 -10
q-35 -168 -122.5 -293.5t-232 -199t-329.5 -73.5q-254 0 -412 156t-158 412zM977 1376h-178l176 275h266z" />
    <glyph glyph-name="cacute" unicode="&#x107;" horiz-adv-x="1007" 
d="M719 1016h-178l180 274h266zM45 367q0 153 70 281.5t196 204t281 75.5q196 0 294 -111t85 -282l-207 -15q5 103 -39.5 161t-142.5 58q-85 0 -152 -51t-103 -135.5t-36 -185.5q0 -96 51 -149.5t139 -53.5q100 0 167 58.5t97 164.5l203 -18q-40 -172 -169 -283t-322 -111
q-189 0 -300.5 108t-111.5 284z" />
    <glyph glyph-name="Ccircumflex" unicode="&#x108;" horiz-adv-x="1370" 
d="M100 543q0 208 93 384t263.5 282t383.5 106q138 0 244.5 -42.5t171 -118.5t95 -178.5t23.5 -225.5l-239 -11q5 156 -75 253.5t-245 97.5q-103 0 -190 -45t-142.5 -120t-86.5 -170t-31 -198q0 -165 88.5 -260.5t238.5 -95.5q171 0 278 97.5t140 252.5l244 -10
q-35 -168 -122.5 -293.5t-232 -199t-329.5 -73.5q-254 0 -412 156t-158 412zM831 1651h250l103 -275h-154l-98 135l-166 -135h-172z" />
    <glyph glyph-name="ccircumflex" unicode="&#x109;" horiz-adv-x="1007" 
d="M578 1290h249l101 -274h-156l-96 135l-166 -135h-172zM45 367q0 153 70 281.5t196 204t281 75.5q196 0 294 -111t85 -282l-207 -15q5 103 -39.5 161t-142.5 58q-85 0 -152 -51t-103 -135.5t-36 -185.5q0 -96 51 -149.5t139 -53.5q100 0 167 58.5t97 164.5l203 -18
q-40 -172 -169 -283t-322 -111q-189 0 -300.5 108t-111.5 284z" />
    <glyph glyph-name="Cdotaccent" unicode="&#x10a;" horiz-adv-x="1370" 
d="M784 1382l60 238h252l-60 -238h-252zM100 543q0 208 93 384t263.5 282t383.5 106q138 0 244.5 -42.5t171 -118.5t95 -178.5t23.5 -225.5l-239 -11q5 156 -75 253.5t-245 97.5q-103 0 -190 -45t-142.5 -120t-86.5 -170t-31 -198q0 -165 88.5 -260.5t238.5 -95.5
q171 0 278 97.5t140 252.5l244 -10q-35 -168 -122.5 -293.5t-232 -199t-329.5 -73.5q-254 0 -412 156t-158 412z" />
    <glyph glyph-name="cdotaccent" unicode="&#x10b;" horiz-adv-x="1007" 
d="M45 367q0 153 70 281.5t196 204t281 75.5q196 0 294 -111t85 -282l-207 -15q5 103 -39.5 161t-142.5 58q-85 0 -152 -51t-103 -135.5t-36 -185.5q0 -96 51 -149.5t139 -53.5q100 0 167 58.5t97 164.5l203 -18q-40 -172 -169 -283t-322 -111q-189 0 -300.5 108t-111.5 284
zM524 1051l60 239h252l-62 -239h-250z" />
    <glyph glyph-name="Ccaron" unicode="&#x10c;" horiz-adv-x="1370" 
d="M100 543q0 208 93 384t263.5 282t383.5 106q138 0 244.5 -42.5t171 -118.5t95 -178.5t23.5 -225.5l-239 -11q5 156 -75 253.5t-245 97.5q-103 0 -190 -45t-142.5 -120t-86.5 -170t-31 -198q0 -165 88.5 -260.5t238.5 -95.5q171 0 278 97.5t140 252.5l244 -10
q-35 -168 -122.5 -293.5t-232 -199t-329.5 -73.5q-254 0 -412 156t-158 412zM1028 1376h-250l-102 275h155l99 -135l164 135h172z" />
    <glyph glyph-name="ccaron" unicode="&#x10d;" horiz-adv-x="1007" 
d="M770 1016h-250l-100 274h155l97 -133l166 133h172zM45 367q0 153 70 281.5t196 204t281 75.5q196 0 294 -111t85 -282l-207 -15q5 103 -39.5 161t-142.5 58q-85 0 -152 -51t-103 -135.5t-36 -185.5q0 -96 51 -149.5t139 -53.5q100 0 167 58.5t97 164.5l203 -18
q-40 -172 -169 -283t-322 -111q-189 0 -300.5 108t-111.5 284z" />
    <glyph glyph-name="Dcaron" unicode="&#x10e;" horiz-adv-x="1331" 
d="M944 1376h-250l-102 275h156l98 -135l164 135h172zM311 205h217q252 0 397.5 151.5t145.5 407.5q0 155 -94 238t-275 83h-172zM4 0l322 1290h428q172 0 301.5 -59.5t203.5 -178.5t74 -286q0 -343 -227 -554.5t-598 -211.5h-504z" />
    <glyph glyph-name="dcaron" unicode="&#x10f;" horiz-adv-x="1122" 
d="M1386 1004h-149l102 286h250zM768 401l14 58q35 122 -17.5 202t-162.5 80q-88 0 -157.5 -53t-105.5 -139t-36 -187q0 -95 48.5 -145.5t142.5 -50.5q96 0 171 64t103 171zM850 739l137 551h244l-322 -1290h-243l39 158q-51 -85 -136 -134t-190 -49q-161 0 -247.5 98
t-86.5 261q0 112 36 218t100 190t162 135t214 51q112 0 190 -51.5t103 -137.5z" />
    <glyph glyph-name="Dcroat" unicode="&#x110;" horiz-adv-x="1370" 
d="M49 553l51 211h133l132 526h428q172 0 301.5 -59.5t203.5 -178.5t74 -286q0 -343 -227 -554.5t-598 -211.5h-504l137 553h-131zM350 205h217q252 0 397.5 151.5t145.5 407.5q0 155 -94 238t-275 83h-172l-80 -321h316l-53 -211h-316z" />
    <glyph glyph-name="dcroat" unicode="&#x111;" horiz-adv-x="1122" 
d="M641 985l39 156h270l37 149h244l-37 -149h123l-39 -156h-123l-246 -985h-243l39 154q-51 -82 -136.5 -130.5t-189.5 -48.5q-161 0 -247.5 95.5t-86.5 255.5q0 110 36 213.5t100 186t162 132t214 49.5q111 0 186.5 -50t102.5 -134l65 262h-270zM768 393l14 56
q35 118 -17.5 197t-162.5 79q-88 0 -157.5 -52t-105.5 -136t-36 -183q0 -92 48.5 -141t142.5 -49q96 0 171 62.5t103 166.5z" />
    <glyph glyph-name="Emacron" unicode="&#x112;" horiz-adv-x="1144" 
d="M545 1389l45 172h553l-43 -172h-555zM1020 213l-51 -213h-965l322 1290h946l-53 -213h-695l-78 -313h545l-53 -211h-545l-86 -340h713z" />
    <glyph glyph-name="emacron" unicode="&#x113;" horiz-adv-x="1021" 
d="M743 309l201 -20q-55 -149 -180 -231.5t-295 -82.5q-196 0 -310 105t-114 287q0 153 71 281.5t196.5 204t277.5 75.5q102 0 179.5 -32.5t122 -89t66 -125.5t21.5 -151q0 -69 -16 -141h-682q-3 -106 53.5 -166.5t159.5 -60.5q180 0 249 147zM309 543h441q5 85 -42 145
t-141 60q-95 0 -161 -56t-97 -149zM379 1034l47 172h543l-47 -172h-543z" />
    <glyph glyph-name="Ebreve" unicode="&#x114;" horiz-adv-x="1144" 
d="M815 1374q-93 0 -150 48.5t-57 136.5q0 35 13 92h145q-1 -6 -3.5 -22.5t-2.5 -24.5q0 -74 88 -74q112 0 143 121h154q-33 -134 -120 -205.5t-210 -71.5zM1020 213l-51 -213h-965l322 1290h946l-53 -213h-695l-78 -313h545l-53 -211h-545l-86 -340h713z" />
    <glyph glyph-name="ebreve" unicode="&#x115;" horiz-adv-x="1021" 
d="M743 309l201 -20q-55 -149 -180 -231.5t-295 -82.5q-196 0 -310 105t-114 287q0 153 71 281.5t196.5 204t277.5 75.5q102 0 179.5 -32.5t122 -89t66 -125.5t21.5 -151q0 -69 -16 -141h-682q-3 -106 53.5 -166.5t159.5 -60.5q180 0 249 147zM309 543h441q5 85 -42 145
t-141 60q-95 0 -161 -56t-97 -149zM651 1014q-94 0 -151.5 49t-57.5 137q0 38 15 90h145q-6 -24 -6 -47q0 -74 88 -74q54 0 91 31.5t52 89.5h154q-33 -132 -120 -204t-210 -72z" />
    <glyph glyph-name="Edotaccent" unicode="&#x116;" horiz-adv-x="1144" 
d="M698 1382l60 238h252l-60 -238h-252zM1020 213l-51 -213h-965l322 1290h946l-53 -213h-695l-78 -313h545l-53 -211h-545l-86 -340h713z" />
    <glyph glyph-name="edotaccent" unicode="&#x117;" horiz-adv-x="1021" 
d="M743 309l201 -20q-55 -149 -180 -231.5t-295 -82.5q-196 0 -310 105t-114 287q0 153 71 281.5t196.5 204t277.5 75.5q102 0 179.5 -32.5t122 -89t66 -125.5t21.5 -151q0 -69 -16 -141h-682q-3 -106 53.5 -166.5t159.5 -60.5q180 0 249 147zM309 543h441q5 85 -42 145
t-141 60q-95 0 -161 -56t-97 -149zM535 1051l59 239h252l-62 -239h-249z" />
    <glyph glyph-name="Eogonek" unicode="&#x118;" horiz-adv-x="1144" 
d="M1020 213l-51 -213h-105q-103 -77 -127 -103q-35 -37 -35 -75q0 -43 56 -43q34 0 104 28l-28 -118q-80 -47 -166 -47q-70 0 -108 34t-38 91q0 36 15 69t45 62.5t59 51.5t72 50h-709l322 1290h946l-53 -213h-695l-78 -313h545l-53 -211h-545l-86 -340h713z" />
    <glyph glyph-name="eogonek" unicode="&#x119;" horiz-adv-x="1021" 
d="M743 309l201 -20q-30 -85 -84 -144.5t-135 -109.5q-190 -120 -190 -207q0 -25 12.5 -37t42.5 -12q34 0 104 28l-28 -118q-80 -47 -166 -47q-70 0 -108 34t-38 91q0 61 40 111.5t112 98.5q-10 -2 -37 -2q-196 0 -310 105t-114 287q0 153 71 281.5t196.5 204t277.5 75.5
q102 0 179.5 -32.5t122 -89t66 -125.5t21.5 -151q0 -69 -16 -141h-682q-3 -106 53.5 -166.5t159.5 -60.5q180 0 249 147zM309 543h441q5 85 -42 145t-141 60q-95 0 -161 -56t-97 -149z" />
    <glyph glyph-name="Ecaron" unicode="&#x11a;" horiz-adv-x="1144" 
d="M950 1376h-250l-102 275h156l98 -135l164 135h172zM1020 213l-51 -213h-965l322 1290h946l-53 -213h-695l-78 -313h545l-53 -211h-545l-86 -340h713z" />
    <glyph glyph-name="ecaron" unicode="&#x11b;" horiz-adv-x="1021" 
d="M778 1016h-250l-100 274h156l96 -133l166 133h172zM743 309l201 -20q-55 -149 -180 -231.5t-295 -82.5q-196 0 -310 105t-114 287q0 153 71 281.5t196.5 204t277.5 75.5q102 0 179.5 -32.5t122 -89t66 -125.5t21.5 -151q0 -69 -16 -141h-682q-3 -106 53.5 -166.5
t159.5 -60.5q180 0 249 147zM309 543h441q5 85 -42 145t-141 60q-95 0 -161 -56t-97 -149z" />
    <glyph glyph-name="Gcircumflex" unicode="&#x11c;" horiz-adv-x="1427" 
d="M1380 780l-247 -12q-2 142 -82 232t-236 90q-137 0 -241.5 -76.5t-156.5 -197.5t-52 -263q0 -168 89 -263t240 -95q136 0 237 70t161 196h-342l47 190h581l-161 -651h-220l45 180q-126 -205 -403 -205q-242 0 -390.5 156.5t-148.5 407.5q0 211 93 388t263.5 282.5
t383.5 105.5q136 0 240.5 -41t169 -114t97.5 -169t33 -211zM827 1651h250l103 -275h-154l-98 135l-166 -135h-172z" />
    <glyph glyph-name="gcircumflex" unicode="&#x11d;" horiz-adv-x="1105" 
d="M637 1290h250l100 -274h-156l-96 135l-166 -135h-172zM758 428l12 57q29 116 -23.5 188t-162.5 72q-131 0 -208 -97.5t-77 -241.5q0 -97 50.5 -147t137.5 -50q96 0 171.5 59t99.5 160zM678 98l24 105q-48 -77 -129.5 -120.5t-181.5 -43.5q-156 0 -251 94t-95 258
q0 101 33.5 196.5t95 171.5t159 122.5t214.5 46.5q110 0 186.5 -51t102.5 -132l43 158h243l-202 -817q-54 -219 -191.5 -330.5t-351.5 -111.5q-110 0 -201.5 37.5t-150 116t-60.5 184.5l234 12q4 -81 58.5 -122.5t131.5 -41.5q226 0 289 268z" />
    <glyph glyph-name="Gbreve" unicode="&#x11e;" horiz-adv-x="1427" 
d="M887 1374q-93 0 -150 48.5t-57 136.5q0 39 12 92h146q-1 -7 -4 -23t-3 -24q0 -74 89 -74q112 0 143 121h154q-33 -134 -120 -205.5t-210 -71.5zM1380 780l-247 -12q-2 142 -82 232t-236 90q-137 0 -241.5 -76.5t-156.5 -197.5t-52 -263q0 -168 89 -263t240 -95
q136 0 237 70t161 196h-342l47 190h581l-161 -651h-220l45 180q-126 -205 -403 -205q-242 0 -390.5 156.5t-148.5 407.5q0 211 93 388t263.5 282.5t383.5 105.5q136 0 240.5 -41t169 -114t97.5 -169t33 -211z" />
    <glyph glyph-name="gbreve" unicode="&#x11f;" horiz-adv-x="1105" 
d="M758 428l12 57q29 116 -23.5 188t-162.5 72q-131 0 -208 -97.5t-77 -241.5q0 -97 50.5 -147t137.5 -50q96 0 171.5 59t99.5 160zM678 98l24 105q-48 -77 -129.5 -120.5t-181.5 -43.5q-156 0 -251 94t-95 258q0 101 33.5 196.5t95 171.5t159 122.5t214.5 46.5
q110 0 186.5 -51t102.5 -132l43 158h243l-202 -817q-54 -219 -191.5 -330.5t-351.5 -111.5q-110 0 -201.5 37.5t-150 116t-60.5 184.5l234 12q4 -81 58.5 -122.5t131.5 -41.5q226 0 289 268zM698 1014q-94 0 -151.5 49t-57.5 137q0 38 15 90h145q-6 -24 -6 -47q0 -74 88 -74
q54 0 91 31.5t52 89.5h154q-33 -132 -120 -204t-210 -72z" />
    <glyph glyph-name="Gdotaccent" unicode="&#x120;" horiz-adv-x="1427" 
d="M780 1382l60 238h252l-60 -238h-252zM1380 780l-247 -12q-2 142 -82 232t-236 90q-137 0 -241.5 -76.5t-156.5 -197.5t-52 -263q0 -168 89 -263t240 -95q136 0 237 70t161 196h-342l47 190h581l-161 -651h-220l45 180q-126 -205 -403 -205q-242 0 -390.5 156.5
t-148.5 407.5q0 211 93 388t263.5 282.5t383.5 105.5q136 0 240.5 -41t169 -114t97.5 -169t33 -211z" />
    <glyph glyph-name="gdotaccent" unicode="&#x121;" horiz-adv-x="1105" 
d="M758 428l12 57q29 116 -23.5 188t-162.5 72q-131 0 -208 -97.5t-77 -241.5q0 -97 50.5 -147t137.5 -50q96 0 171.5 59t99.5 160zM678 98l24 105q-48 -77 -129.5 -120.5t-181.5 -43.5q-156 0 -251 94t-95 258q0 101 33.5 196.5t95 171.5t159 122.5t214.5 46.5
q110 0 186.5 -51t102.5 -132l43 158h243l-202 -817q-54 -219 -191.5 -330.5t-351.5 -111.5q-110 0 -201.5 37.5t-150 116t-60.5 184.5l234 12q4 -81 58.5 -122.5t131.5 -41.5q226 0 289 268zM582 1051l59 239h252l-62 -239h-249z" />
    <glyph glyph-name="Gcommaaccent" unicode="&#x122;" horiz-adv-x="1427" 
d="M465 -258l43 170h233l-32 -129q-50 -203 -285 -203l22 90q51 0 77 16t38 56h-96zM1380 780l-247 -12q-2 142 -82 232t-236 90q-137 0 -241.5 -76.5t-156.5 -197.5t-52 -263q0 -168 89 -263t240 -95q136 0 237 70t161 196h-342l47 190h581l-161 -651h-220l45 180
q-126 -205 -403 -205q-242 0 -390.5 156.5t-148.5 407.5q0 211 93 388t263.5 282.5t383.5 105.5q136 0 240.5 -41t169 -114t97.5 -169t33 -211z" />
    <glyph glyph-name="gcommaaccent" unicode="&#x123;" horiz-adv-x="1105" 
d="M862 1204l-43 -170h-233l32 129q50 203 285 203l-22 -90q-51 0 -77 -16t-36 -56h94zM758 428l12 57q29 116 -23.5 188t-162.5 72q-131 0 -208 -97.5t-77 -241.5q0 -97 50.5 -147t137.5 -50q96 0 171.5 59t99.5 160zM678 98l24 105q-48 -77 -129.5 -120.5t-181.5 -43.5
q-156 0 -251 94t-95 258q0 101 33.5 196.5t95 171.5t159 122.5t214.5 46.5q110 0 186.5 -51t102.5 -132l43 158h243l-202 -817q-54 -219 -191.5 -330.5t-351.5 -111.5q-110 0 -201.5 37.5t-150 116t-60.5 184.5l234 12q4 -81 58.5 -122.5t131.5 -41.5q226 0 289 268z" />
    <glyph glyph-name="Hcircumflex" unicode="&#x124;" horiz-adv-x="1376" 
d="M260 0h-256l322 1290h256l-131 -526h636l132 526h256l-322 -1290h-256l137 553h-637zM856 1651h250l102 -275h-153l-99 135l-165 -135h-173z" />
    <glyph glyph-name="hcircumflex" unicode="&#x125;" horiz-adv-x="1069" 
d="M358 475l-116 -475h-246l321 1290h246l-135 -538q125 176 317 176q164 0 230.5 -107t28.5 -268l-138 -553h-245l127 514q27 106 -4.5 162.5t-122.5 56.5q-94 0 -164 -69t-99 -189zM690 1651h250l102 -275h-153l-98 135l-166 -135h-172z" />
    <glyph glyph-name="Hbar" unicode="&#x126;" horiz-adv-x="1454" 
d="M117 862l53 209h139l56 219h256l-56 -219h637l55 219h256l-55 -219h139l-51 -209h-139l-215 -862h-256l119 477h-637l-119 -477h-256l215 862h-141zM471 686h635l43 176h-635z" />
    <glyph glyph-name="hbar" unicode="&#x127;" horiz-adv-x="1069" 
d="M119 985l37 156h125l36 149h246l-39 -149h269l-37 -156h-271l-63 -254q125 176 319 176q67 0 119 -19.5t84 -53.5t50.5 -81.5t17.5 -103t-15 -117.5l-131 -532h-245l122 494q52 219 -129 219q-92 0 -161.5 -69t-98.5 -189l-112 -455h-246l246 985h-123z" />
    <glyph glyph-name="Itilde" unicode="&#x128;" horiz-adv-x="483" 
d="M317 1374h-139q30 125 91 198t145 73q32 0 59 -16t43.5 -34.5t39 -34.5t46.5 -16q60 0 90 94h139q-30 -124 -91.5 -197t-145.5 -73q-32 0 -59.5 15.5t-43 34.5t-38.5 34.5t-47 15.5q-59 0 -89 -94zM326 1290h256l-322 -1290h-256z" />
    <glyph glyph-name="itilde" unicode="&#x129;" horiz-adv-x="452" 
d="M221 1022h-139q28 124 89 197t144 73q26 0 47 -10.5t34.5 -25t26 -29t28 -25t34.5 -10.5q58 0 88 94h140q-32 -124 -93.5 -197t-142.5 -73q-32 0 -57 15.5t-38 34.5t-32 34.5t-41 15.5q-61 0 -88 -94zM217 903h246l-225 -903h-246z" />
    <glyph glyph-name="Imacron" unicode="&#x12a;" horiz-adv-x="483" 
d="M207 1389l45 172h536l-43 -172h-538zM326 1290h256l-322 -1290h-256z" />
    <glyph glyph-name="imacron" unicode="&#x12b;" horiz-adv-x="452" 
d="M133 1034l47 172h484l-48 -172h-483zM219 903h246l-223 -903h-246z" />
    <glyph glyph-name="Ibreve" unicode="&#x12c;" horiz-adv-x="483" 
d="M326 1290h256l-322 -1290h-256zM469 1374q-93 0 -150 48.5t-57 136.5q0 39 12 92h146q-1 -6 -3.5 -22.5t-2.5 -24.5q0 -74 88 -74q112 0 143 121h154q-33 -134 -120 -205.5t-210 -71.5z" />
    <glyph glyph-name="ibreve" unicode="&#x12d;" horiz-adv-x="452" 
d="M219 903h246l-223 -903h-246zM371 1014q-94 0 -151.5 49t-57.5 137q0 41 14 90h146q-7 -28 -7 -47q0 -74 88 -74q54 0 91.5 31.5t52.5 89.5h153q-33 -132 -120 -204t-209 -72z" />
    <glyph glyph-name="Iogonek" unicode="&#x12e;" horiz-adv-x="483" 
d="M326 1290h256l-322 -1290q-115 -60 -160 -96.5t-45 -81.5q0 -43 56 -43q34 0 104 28l-29 -118q-80 -47 -166 -47q-70 0 -107.5 34t-37.5 91q0 68 51 122t140 111h-62z" />
    <glyph glyph-name="iogonek" unicode="&#x12f;" horiz-adv-x="452" 
d="M219 903h246l-223 -903q-111 -59 -155 -96.5t-44 -81.5q0 -43 55 -43q35 0 105 28l-29 -118q-84 -47 -166 -47q-70 0 -107.5 34t-37.5 91q0 47 29.5 92t66.5 75t94 66h-57zM254 1051l59 239h252l-59 -239h-252z" />
    <glyph glyph-name="Idotaccent" unicode="&#x130;" horiz-adv-x="483" 
d="M326 1290h256l-322 -1290h-256zM352 1382l60 238h252l-60 -238h-252z" />
    <glyph glyph-name="dotlessi" unicode="&#x131;" horiz-adv-x="452" 
d="M219 903h246l-223 -903h-246z" />
    <glyph glyph-name="IJ" unicode="&#x132;" horiz-adv-x="1560" 
d="M326 1290h256l-322 -1290h-256zM1430 1290h256l-213 -850q-118 -465 -553 -465q-235 0 -347.5 143t-68.5 380l248 12q-53 -317 188 -317q118 0 184 71t103 219z" />
    <glyph glyph-name="ij" unicode="&#x133;" horiz-adv-x="905" 
d="M219 903h246l-223 -903h-246zM254 1051l59 239h252l-59 -239h-252zM918 903l-248 -1001q-35 -136 -111 -199t-205 -63q-71 0 -134.5 22.5t-98.5 56.5l80 142q62 -47 121 -47q42 0 66.5 25t39.5 81l244 983h246zM707 1051l59 239h252l-60 -239h-251z" />
    <glyph glyph-name="Jcircumflex" unicode="&#x134;" horiz-adv-x="1091" 
d="M958 1290h256l-213 -850q-118 -465 -552 -465q-235 0 -347.5 143t-68.5 380l248 12q-53 -317 188 -317q118 0 184 71t103 219zM1030 1651h250l102 -275h-153l-99 135l-165 -135h-172z" />
    <glyph glyph-name="jcircumflex" unicode="&#x135;" horiz-adv-x="452" 
d="M465 903l-248 -1001q-35 -137 -110.5 -199.5t-204.5 -62.5q-71 0 -135 22.5t-99 56.5l80 142q62 -47 121 -47q42 0 66.5 25t39.5 81l244 983h246zM297 1290h250l100 -274h-155l-97 135l-166 -135h-172z" />
    <glyph glyph-name="Kcommaaccent" unicode="&#x136;" horiz-adv-x="1251" 
d="M354 -258l43 170h234l-33 -129q-50 -203 -285 -203l23 90q51 0 77 16t38 56h-97zM1153 0h-285l-327 571l-174 -143l-107 -428h-256l322 1290h256l-144 -571l680 571h314l-684 -577z" />
    <glyph glyph-name="kcommaaccent" unicode="&#x137;" horiz-adv-x="1040" 
d="M242 -258l43 170h233l-33 -129q-50 -203 -284 -203l22 90q51 0 77 16t38 56h-96zM317 307l-75 -307h-246l321 1290h246l-186 -739l452 352h312l-494 -373l287 -530h-264l-219 410z" />
    <glyph glyph-name="kgreenlandic" unicode="&#x138;" horiz-adv-x="1040" 
d="M317 307l-75 -307h-246l223 903h246l-88 -352l452 352h312l-494 -373l287 -530h-264l-219 410z" />
    <glyph glyph-name="Lacute" unicode="&#x139;" horiz-adv-x="1101" 
d="M559 1376h-178l176 275h266zM326 1290h256l-269 -1077h682l-53 -213h-938z" />
    <glyph glyph-name="lacute" unicode="&#x13a;" horiz-adv-x="452" 
d="M549 1376h-178l176 275h266zM317 1290h246l-321 -1290h-246z" />
    <glyph glyph-name="Lcommaaccent" unicode="&#x13b;" horiz-adv-x="1101" 
d="M307 -258l43 170h234l-33 -129q-50 -203 -285 -203l23 90q51 0 76.5 16t37.5 56h-96zM326 1290h256l-269 -1077h682l-53 -213h-938z" />
    <glyph glyph-name="lcommaaccent" unicode="&#x13c;" horiz-adv-x="452" 
d="M-63 -258l43 170h233l-33 -129q-50 -203 -284 -203l22 90q51 0 77 16t38 56h-96zM317 1290h246l-321 -1290h-246z" />
    <glyph glyph-name="Lcaron" unicode="&#x13d;" horiz-adv-x="1101" 
d="M840 1004h-150l103 286h249zM326 1290h256l-269 -1077h682l-53 -213h-938z" />
    <glyph glyph-name="lcaron" unicode="&#x13e;" horiz-adv-x="452" 
d="M719 1004h-150l103 286h250zM317 1290h246l-321 -1290h-246z" />
    <glyph glyph-name="Ldot" unicode="&#x13f;" horiz-adv-x="1101" 
d="M326 1290h256l-269 -1077h682l-53 -213h-938zM717 592l59 239h252l-61 -239h-250z" />
    <glyph glyph-name="ldot" unicode="&#x140;" horiz-adv-x="759" 
d="M317 1290h246l-321 -1290h-246zM502 524l59 240h252l-61 -240h-250z" />
    <glyph glyph-name="Lslash" unicode="&#x141;" horiz-adv-x="1146" 
d="M369 1290h256l-133 -534l331 123l-51 -211l-334 -123l-82 -332h682l-53 -213h-938l115 465l-142 -53l52 211l143 55z" />
    <glyph glyph-name="lslash" unicode="&#x142;" horiz-adv-x="561" 
d="M360 1290h246l-117 -467l179 84l-47 -190l-179 -82l-157 -635h-246l133 537l-172 -80l47 188l172 80z" />
    <glyph glyph-name="Nacute" unicode="&#x143;" horiz-adv-x="1327" 
d="M983 1376h-178l176 275h266zM580 1290l389 -887l221 887h237l-321 -1290h-203l-428 940l-233 -940h-238l322 1290h254z" />
    <glyph glyph-name="nacute" unicode="&#x144;" horiz-adv-x="1069" 
d="M768 1016h-178l180 274h266zM358 475l-116 -475h-246l223 903h246l-37 -151q125 176 317 176q164 0 230.5 -107t28.5 -268l-138 -553h-245l127 514q27 106 -4.5 162.5t-122.5 56.5q-94 0 -164 -69t-99 -189z" />
    <glyph glyph-name="Ncommaaccent" unicode="&#x145;" horiz-adv-x="1327" 
d="M381 -258l43 170h233l-32 -129q-50 -203 -285 -203l22 90q51 0 77 16t38 56h-96zM580 1290l389 -887l221 887h237l-321 -1290h-203l-428 940l-233 -940h-238l322 1290h254z" />
    <glyph glyph-name="ncommaaccent" unicode="&#x146;" horiz-adv-x="1069" 
d="M256 -258l43 170h233l-32 -129q-50 -203 -285 -203l23 90q51 0 76.5 16t37.5 56h-96zM358 475l-116 -475h-246l223 903h246l-37 -151q125 176 317 176q164 0 230.5 -107t28.5 -268l-138 -553h-245l127 514q27 106 -4.5 162.5t-122.5 56.5q-94 0 -164 -69t-99 -189z" />
    <glyph glyph-name="Ncaron" unicode="&#x147;" horiz-adv-x="1327" 
d="M1034 1376h-250l-102 275h156l98 -135l164 135h172zM580 1290l389 -887l221 887h237l-321 -1290h-203l-428 940l-233 -940h-238l322 1290h254z" />
    <glyph glyph-name="ncaron" unicode="&#x148;" horiz-adv-x="1069" 
d="M815 1016h-250l-100 274h156l96 -133l166 133h172zM358 475l-116 -475h-246l223 903h246l-37 -151q125 176 317 176q164 0 230.5 -107t28.5 -268l-138 -553h-245l127 514q27 106 -4.5 162.5t-122.5 56.5q-94 0 -164 -69t-99 -189z" />
    <glyph glyph-name="Eng" unicode="&#x14a;" horiz-adv-x="1327" 
d="M883 43l-408 897l-233 -940h-238l322 1290h254l389 -887l221 887h237l-325 -1306q-44 -176 -140 -260t-247 -84q-105 0 -188 43.5t-117 109.5l139 141q57 -88 156 -88q76 0 116 46.5t62 150.5z" />
    <glyph glyph-name="eng" unicode="&#x14b;" horiz-adv-x="1069" 
d="M600 -80l148 594q27 106 -4.5 162.5t-122.5 56.5q-94 0 -164 -69t-99 -189l-116 -475h-246l223 903h246l-37 -151q125 176 317 176q164 0 230.5 -107t28.5 -268l-162 -651q-34 -136 -110.5 -199t-205.5 -63q-71 0 -134.5 22.5t-98.5 56.5l80 142q62 -47 121 -47
q43 0 67.5 25t38.5 81z" />
    <glyph glyph-name="Omacron" unicode="&#x14c;" horiz-adv-x="1415" 
d="M625 1389l45 172h553l-43 -172h-555zM821 1315q270 0 433 -152.5t163 -417.5q0 -209 -94 -385.5t-260 -280.5t-367 -104q-270 0 -433 152.5t-163 417.5q0 209 94 385.5t260 280.5t367 104zM702 201q129 0 233 72t161 196.5t57 275.5q0 158 -89.5 251.5t-248.5 93.5
q-129 0 -232.5 -72.5t-160.5 -197t-57 -275.5q0 -158 89 -251t248 -93z" />
    <glyph glyph-name="omacron" unicode="&#x14d;" horiz-adv-x="1052" 
d="M393 1034l47 172h543l-47 -172h-543zM481 162q66 0 121 32.5t89 85.5t52.5 116.5t18.5 129.5q0 103 -50 159t-141 56q-87 0 -152 -56t-95.5 -137.5t-30.5 -170.5q0 -103 48.5 -159t139.5 -56zM473 -25q-193 0 -310.5 110t-117.5 294q0 152 68 277.5t191.5 198.5t277.5 73
q191 0 308.5 -110t117.5 -294q0 -152 -68 -277.5t-191 -198.5t-276 -73z" />
    <glyph glyph-name="Obreve" unicode="&#x14e;" horiz-adv-x="1415" 
d="M905 1374q-93 0 -150 48.5t-57 136.5q0 35 13 92h145q-1 -6 -3.5 -22.5t-2.5 -24.5q0 -74 88 -74q112 0 143 121h154q-33 -134 -120 -205.5t-210 -71.5zM821 1315q270 0 433 -152.5t163 -417.5q0 -209 -94 -385.5t-260 -280.5t-367 -104q-270 0 -433 152.5t-163 417.5
q0 209 94 385.5t260 280.5t367 104zM702 201q129 0 233 72t161 196.5t57 275.5q0 158 -89.5 251.5t-248.5 93.5q-129 0 -232.5 -72.5t-160.5 -197t-57 -275.5q0 -158 89 -251t248 -93z" />
    <glyph glyph-name="obreve" unicode="&#x14f;" horiz-adv-x="1052" 
d="M481 162q66 0 121 32.5t89 85.5t52.5 116.5t18.5 129.5q0 103 -50 159t-141 56q-87 0 -152 -56t-95.5 -137.5t-30.5 -170.5q0 -103 48.5 -159t139.5 -56zM473 -25q-193 0 -310.5 110t-117.5 294q0 152 68 277.5t191.5 198.5t277.5 73q191 0 308.5 -110t117.5 -294
q0 -152 -68 -277.5t-191 -198.5t-276 -73zM662 1014q-94 0 -151.5 49t-57.5 137q0 41 14 90h145q-6 -24 -6 -47q0 -74 88 -74q54 0 91.5 31.5t52.5 89.5h153q-33 -132 -120 -204t-209 -72z" />
    <glyph glyph-name="Ohungarumlaut" unicode="&#x150;" horiz-adv-x="1415" 
d="M821 1315q270 0 433 -152.5t163 -417.5q0 -209 -94 -385.5t-260 -280.5t-367 -104q-270 0 -433 152.5t-163 417.5q0 209 94 385.5t260 280.5t367 104zM702 201q129 0 233 72t161 196.5t57 275.5q0 158 -89.5 251.5t-248.5 93.5q-129 0 -232.5 -72.5t-160.5 -197
t-57 -275.5q0 -158 89 -251t248 -93zM784 1376h-157l161 275h246zM1092 1376h-156l160 275h245z" />
    <glyph glyph-name="ohungarumlaut" unicode="&#x151;" horiz-adv-x="1052" 
d="M537 1016h-158l164 274h245zM844 1016h-156l162 274h246zM481 162q66 0 121 32.5t89 85.5t52.5 116.5t18.5 129.5q0 103 -50 159t-141 56q-87 0 -152 -56t-95.5 -137.5t-30.5 -170.5q0 -103 48.5 -159t139.5 -56zM473 -25q-193 0 -310.5 110t-117.5 294q0 152 68 277.5
t191.5 198.5t277.5 73q191 0 308.5 -110t117.5 -294q0 -152 -68 -277.5t-191 -198.5t-276 -73z" />
    <glyph glyph-name="OE" unicode="&#x152;" horiz-adv-x="1970" 
d="M1845 213l-51 -213h-1114q-172 0 -302 59.5t-204 179t-74 285.5q0 227 100.5 400.5t286.5 269.5t431 96h1179l-53 -213h-696l-78 -313h545l-52 -211h-544l-86 -340h712zM1096 1085h-191q-252 0 -397.5 -151.5t-145.5 -407.5q0 -155 94 -238t275 -83h146z" />
    <glyph glyph-name="oe" unicode="&#x153;" horiz-adv-x="1705" 
d="M582 928q216 0 329 -150q157 150 363 150q102 0 179 -32.5t121 -89t65.5 -125.5t21.5 -151q0 -81 -16 -141h-682q-3 -106 53.5 -166.5t159.5 -60.5q180 0 249 147l201 -20q-55 -149 -180 -231.5t-295 -82.5q-107 0 -191.5 39t-138.5 107q-143 -146 -348 -146
q-193 0 -310.5 110t-117.5 294q0 152 68 277.5t191.5 198.5t277.5 73zM481 162q66 0 121 32.5t89 85.5t52.5 116.5t18.5 129.5q0 103 -50 159t-141 56q-87 0 -152 -56t-95.5 -137.5t-30.5 -170.5q0 -103 48.5 -159t139.5 -56zM991 543h441q5 85 -42 145t-141 60
t-160.5 -56.5t-97.5 -148.5z" />
    <glyph glyph-name="Racute" unicode="&#x154;" horiz-adv-x="1253" 
d="M1096 0h-262q-13 23 -13 74q0 29 15.5 126.5t15.5 137.5q0 71 -43 105t-133 34h-301l-119 -477h-252l322 1290h548q207 0 319 -83.5t112 -248.5q0 -164 -109.5 -268.5t-267.5 -120.5q182 -38 182 -204q0 -37 -16.5 -142t-16.5 -145q0 -46 19 -78zM424 678h295
q146 0 234.5 60.5t88.5 183.5q0 82 -55.5 121.5t-173.5 39.5h-287zM905 1376h-178l176 275h266z" />
    <glyph glyph-name="racute" unicode="&#x155;" horiz-adv-x="739" 
d="M621 1016h-179l181 274h266zM842 891l-76 -229q-55 38 -139 38q-96 0 -170.5 -66.5t-106.5 -187.5l-108 -446h-246l223 903h246l-45 -176q53 93 130 147t169 54q72 0 123 -37z" />
    <glyph glyph-name="Rcommaaccent" unicode="&#x156;" horiz-adv-x="1253" 
d="M346 -258l43 170h234l-33 -129q-50 -203 -285 -203l23 90q51 0 76.5 16t37.5 56h-96zM1096 0h-262q-13 23 -13 74q0 29 15.5 126.5t15.5 137.5q0 71 -43 105t-133 34h-301l-119 -477h-252l322 1290h548q207 0 319 -83.5t112 -248.5q0 -164 -109.5 -268.5t-267.5 -120.5
q182 -38 182 -204q0 -37 -16.5 -142t-16.5 -145q0 -46 19 -78zM424 678h295q146 0 234.5 60.5t88.5 183.5q0 82 -55.5 121.5t-173.5 39.5h-287z" />
    <glyph glyph-name="rcommaaccent" unicode="&#x157;" horiz-adv-x="739" 
d="M-66 -258l43 170h234l-33 -129q-50 -203 -284 -203l22 90q51 0 77 16t38 56h-97zM842 891l-76 -229q-55 38 -139 38q-96 0 -170.5 -66.5t-106.5 -187.5l-108 -446h-246l223 903h246l-45 -176q53 93 130 147t169 54q72 0 123 -37z" />
    <glyph glyph-name="Rcaron" unicode="&#x158;" horiz-adv-x="1253" 
d="M956 1376h-249l-103 275h156l98 -135l164 135h172zM1096 0h-262q-13 23 -13 74q0 29 15.5 126.5t15.5 137.5q0 71 -43 105t-133 34h-301l-119 -477h-252l322 1290h548q207 0 319 -83.5t112 -248.5q0 -164 -109.5 -268.5t-267.5 -120.5q182 -38 182 -204q0 -37 -16.5 -142
t-16.5 -145q0 -46 19 -78zM424 678h295q146 0 234.5 60.5t88.5 183.5q0 82 -55.5 121.5t-173.5 39.5h-287z" />
    <glyph glyph-name="rcaron" unicode="&#x159;" horiz-adv-x="739" 
d="M672 1016h-250l-100 274h155l96 -133l166 133h172zM842 891l-76 -229q-55 38 -139 38q-96 0 -170.5 -66.5t-106.5 -187.5l-108 -446h-246l223 903h246l-45 -176q53 93 130 147t169 54q72 0 123 -37z" />
    <glyph glyph-name="Sacute" unicode="&#x15a;" horiz-adv-x="1200" 
d="M55 508l238 -6q-24 -156 65 -241t252 -85q117 0 183.5 47t66.5 135q0 61 -41 96.5t-129 59.5l-213 57q-278 74 -278 324q0 188 138 304t368 116q119 0 218 -34t168.5 -97.5t102.5 -160.5t20 -216l-239 8q16 128 -60 213.5t-223 85.5q-107 0 -167 -45.5t-60 -132.5
q0 -61 38 -94.5t118 -57.5l172 -49q164 -47 246.5 -129.5t82.5 -210.5q0 -102 -41.5 -183.5t-114 -132.5t-165.5 -77.5t-199 -26.5q-275 0 -425.5 143.5t-121.5 389.5zM879 1376h-179l177 275h266z" />
    <glyph glyph-name="sacute" unicode="&#x15b;" horiz-adv-x="917" 
d="M664 1016h-179l181 274h266zM-2 322l205 12q1 -63 33.5 -107.5t81 -64t106.5 -19.5q78 0 123 26.5t45 76.5q0 40 -26 62t-83 36l-123 29q-239 57 -239 252q0 140 106.5 221.5t266.5 81.5q189 0 291 -85.5t110 -244.5l-207 -10q-5 82 -56.5 126t-144.5 44
q-63 0 -102 -26.5t-39 -72.5q0 -68 94 -90l154 -39q112 -28 169.5 -92t57.5 -157q0 -99 -56 -169.5t-145.5 -103.5t-201.5 -33q-189 0 -304.5 89.5t-115.5 257.5z" />
    <glyph glyph-name="Scircumflex" unicode="&#x15c;" horiz-adv-x="1200" 
d="M55 508l238 -6q-24 -156 65 -241t252 -85q117 0 183.5 47t66.5 135q0 61 -41 96.5t-129 59.5l-213 57q-278 74 -278 324q0 188 138 304t368 116q119 0 218 -34t168.5 -97.5t102.5 -160.5t20 -216l-239 8q16 128 -60 213.5t-223 85.5q-107 0 -167 -45.5t-60 -132.5
q0 -61 38 -94.5t118 -57.5l172 -49q164 -47 246.5 -129.5t82.5 -210.5q0 -102 -41.5 -183.5t-114 -132.5t-165.5 -77.5t-199 -26.5q-275 0 -425.5 143.5t-121.5 389.5zM735 1651h250l102 -275h-153l-98 135l-166 -135h-172z" />
    <glyph glyph-name="scircumflex" unicode="&#x15d;" horiz-adv-x="917" 
d="M524 1290h250l100 -274h-155l-96 135l-166 -135h-172zM-2 322l205 12q1 -63 33.5 -107.5t81 -64t106.5 -19.5q78 0 123 26.5t45 76.5q0 40 -26 62t-83 36l-123 29q-239 57 -239 252q0 140 106.5 221.5t266.5 81.5q189 0 291 -85.5t110 -244.5l-207 -10q-5 82 -56.5 126
t-144.5 44q-63 0 -102 -26.5t-39 -72.5q0 -68 94 -90l154 -39q112 -28 169.5 -92t57.5 -157q0 -99 -56 -169.5t-145.5 -103.5t-201.5 -33q-189 0 -304.5 89.5t-115.5 257.5z" />
    <glyph glyph-name="Scedilla" unicode="&#x15e;" horiz-adv-x="1200" 
d="M686 -190q0 -61 -41.5 -100.5t-96.5 -53.5t-120 -14q-72 0 -130.5 21t-90.5 52l47 72q73 -55 170 -55q102 0 102 55q0 31 -24.5 43.5t-58 8.5t-68.5 -19l-49 22l123 148q-206 37 -312 173t-82 345l238 -6q-24 -156 65 -241t252 -85q117 0 183.5 47t66.5 135
q0 61 -41 96.5t-129 59.5l-213 57q-278 74 -278 324q0 188 138 304t368 116q119 0 218 -34t168.5 -97.5t102.5 -160.5t20 -216l-239 8q16 128 -60 213.5t-223 85.5q-107 0 -167 -45.5t-60 -132.5q0 -61 38 -94.5t118 -57.5l172 -49q164 -47 246.5 -129.5t82.5 -210.5
q0 -102 -41.5 -183.5t-114 -132.5t-165.5 -77.5t-199 -26.5q-49 0 -72 2l-55 -61q92 21 151.5 -7.5t59.5 -98.5z" />
    <glyph glyph-name="scedilla" unicode="&#x15f;" horiz-adv-x="917" 
d="M530 -190q0 -61 -41.5 -100.5t-96.5 -53.5t-120 -14q-72 0 -130.5 21t-90.5 52l47 72q73 -55 170 -55q103 0 103 55q0 31 -25 43.5t-58.5 8t-68.5 -18.5l-49 22l121 146q-135 26 -214 111t-79 223l205 12q1 -63 33.5 -107.5t81 -64t106.5 -19.5q78 0 123 26.5t45 76.5
q0 40 -26 62t-83 36l-123 29q-239 57 -239 252q0 140 106.5 221.5t266.5 81.5q189 0 291 -85.5t110 -244.5l-207 -10q-5 82 -56.5 126t-144.5 44q-63 0 -102 -26.5t-39 -72.5q0 -68 94 -90l154 -39q112 -28 169.5 -92t57.5 -157q0 -99 -56 -169.5t-145.5 -103.5t-201.5 -33
q-29 0 -43 2l-56 -61q92 21 151.5 -7.5t59.5 -98.5z" />
    <glyph glyph-name="Scaron" unicode="&#x160;" horiz-adv-x="1200" 
d="M55 508l238 -6q-24 -156 65 -241t252 -85q117 0 183.5 47t66.5 135q0 61 -41 96.5t-129 59.5l-213 57q-278 74 -278 324q0 188 138 304t368 116q119 0 218 -34t168.5 -97.5t102.5 -160.5t20 -216l-239 8q16 128 -60 213.5t-223 85.5q-107 0 -167 -45.5t-60 -132.5
q0 -61 38 -94.5t118 -57.5l172 -49q164 -47 246.5 -129.5t82.5 -210.5q0 -102 -41.5 -183.5t-114 -132.5t-165.5 -77.5t-199 -26.5q-275 0 -425.5 143.5t-121.5 389.5zM930 1376h-250l-102 275h155l98 -135l164 135h172z" />
    <glyph glyph-name="scaron" unicode="&#x161;" horiz-adv-x="917" 
d="M715 1016h-250l-100 274h155l96 -133l166 133h172zM-2 322l205 12q1 -63 33.5 -107.5t81 -64t106.5 -19.5q78 0 123 26.5t45 76.5q0 40 -26 62t-83 36l-123 29q-239 57 -239 252q0 140 106.5 221.5t266.5 81.5q189 0 291 -85.5t110 -244.5l-207 -10q-5 82 -56.5 126
t-144.5 44q-63 0 -102 -26.5t-39 -72.5q0 -68 94 -90l154 -39q112 -28 169.5 -92t57.5 -157q0 -99 -56 -169.5t-145.5 -103.5t-201.5 -33q-189 0 -304.5 89.5t-115.5 257.5z" />
    <glyph glyph-name="Tcedilla" unicode="&#x162;" horiz-adv-x="1269" 
d="M344 -258l43 170h234l-33 -129q-50 -203 -285 -203l23 90q51 0 76.5 16t37.5 56h-96zM649 0h-256l269 1077h-457l53 213h1176l-56 -213h-463z" />
    <glyph glyph-name="tcedilla" unicode="&#x163;" horiz-adv-x="675" 
d="M104 -258l43 170h234l-33 -129q-50 -203 -285 -203l23 90q51 0 77 16t38 56h-97zM92 264l117 467h-129l37 146l63 10q64 10 98 41.5t70 101.5l60 123h147l-61 -250h245l-43 -172h-245l-111 -442q-15 -63 5 -92t75 -29q75 0 164 41l-41 -158q-118 -76 -248 -76
q-123 0 -180 77t-23 212z" />
    <glyph glyph-name="Tcaron" unicode="&#x164;" horiz-adv-x="1269" 
d="M979 1376h-250l-102 275h155l99 -135l163 135h173zM649 0h-256l269 1077h-457l53 213h1176l-56 -213h-463z" />
    <glyph glyph-name="tcaron" unicode="&#x165;" horiz-adv-x="675" 
d="M752 1004h-150l103 286h249zM92 264l117 467h-129l37 146l63 10q64 10 98 41.5t70 101.5l60 123h147l-61 -250h245l-43 -172h-245l-111 -442q-15 -63 5 -92t75 -29q75 0 164 41l-41 -158q-118 -76 -248 -76q-123 0 -180 77t-23 212z" />
    <glyph glyph-name="Tbar" unicode="&#x166;" horiz-adv-x="1269" 
d="M276 530l50 209h252l84 338h-457l53 213h1176l-56 -213h-463l-84 -338h256l-51 -209h-256l-131 -530h-256l131 530h-248z" />
    <glyph glyph-name="tbar" unicode="&#x167;" horiz-adv-x="704" 
d="M20 408l39 155h117l43 168h-129l37 146l63 10q64 10 98 41.5t70 101.5l60 123h147l-61 -250h246l-43 -172h-246l-43 -168h252l-37 -155h-254l-29 -119q-15 -63 5 -92t75 -29q75 0 164 41l-41 -158q-118 -76 -248 -76q-123 0 -180 77t-23 212l35 144h-117z" />
    <glyph glyph-name="Utilde" unicode="&#x168;" horiz-adv-x="1304" 
d="M725 1376h-141q32 124 95 196.5t148 72.5q34 0 62.5 -15.5t45.5 -34t41 -34t48 -15.5q65 0 94 92h144q-33 -124 -97 -196t-149 -72q-34 0 -62.5 15.5t-45 33.5t-40.5 33.5t-49 15.5q-32 0 -54.5 -22t-39.5 -70zM590 -25q-128 0 -229 39.5t-163.5 114.5t-82.5 183t14 245
l184 733h254l-186 -751q-39 -163 22.5 -256t204.5 -93q153 0 237.5 83t127.5 255l190 762h256l-198 -796q-68 -272 -221 -395.5t-410 -123.5z" />
    <glyph glyph-name="utilde" unicode="&#x169;" horiz-adv-x="1052" 
d="M696 424l119 479h246l-225 -903h-246l39 152q-120 -177 -320 -177q-81 0 -138.5 30t-85.5 81t-35.5 119t13.5 145l138 553h245l-129 -520q-29 -106 -1 -162.5t118 -56.5q93 0 162 69t100 191zM498 1022h-144q32 125 95 197.5t149 72.5q34 0 62.5 -15.5t45.5 -34.5
t41 -34.5t48 -15.5q62 0 96 94h141q-33 -124 -97 -197t-149 -73q-34 0 -62 15.5t-44.5 34.5t-40 34.5t-47.5 15.5q-64 0 -94 -94z" />
    <glyph glyph-name="Umacron" unicode="&#x16a;" horiz-adv-x="1304" 
d="M614 1389l45 172h553l-43 -172h-555zM590 -25q-128 0 -229 39.5t-163.5 114.5t-82.5 183t14 245l184 733h254l-186 -751q-39 -163 22.5 -256t204.5 -93q153 0 237.5 83t127.5 255l190 762h256l-198 -796q-68 -272 -221 -395.5t-410 -123.5z" />
    <glyph glyph-name="umacron" unicode="&#x16b;" horiz-adv-x="1052" 
d="M696 424l119 479h246l-225 -903h-246l39 152q-120 -177 -320 -177q-81 0 -138.5 30t-85.5 81t-35.5 119t13.5 145l138 553h245l-129 -520q-29 -106 -1 -162.5t118 -56.5q93 0 162 69t100 191zM393 1034l47 172h543l-47 -172h-543z" />
    <glyph glyph-name="Ubreve" unicode="&#x16c;" horiz-adv-x="1304" 
d="M879 1374q-93 0 -150 48.5t-57 136.5q0 39 12 92h145q-1 -6 -3.5 -22.5t-2.5 -24.5q0 -74 88 -74q113 0 144 121h153q-33 -134 -119.5 -205.5t-209.5 -71.5zM590 -25q-128 0 -229 39.5t-163.5 114.5t-82.5 183t14 245l184 733h254l-186 -751q-39 -163 22.5 -256
t204.5 -93q153 0 237.5 83t127.5 255l190 762h256l-198 -796q-68 -272 -221 -395.5t-410 -123.5z" />
    <glyph glyph-name="ubreve" unicode="&#x16d;" horiz-adv-x="1052" 
d="M696 424l119 479h246l-225 -903h-246l39 152q-120 -177 -320 -177q-81 0 -138.5 30t-85.5 81t-35.5 119t13.5 145l138 553h245l-129 -520q-29 -106 -1 -162.5t118 -56.5q93 0 162 69t100 191zM657 1014q-93 0 -150.5 49t-57.5 137q0 41 14 90h145q-6 -24 -6 -47
q0 -74 88 -74q54 0 91.5 31.5t52.5 89.5h153q-33 -132 -120 -204t-210 -72z" />
    <glyph glyph-name="Uring" unicode="&#x16e;" horiz-adv-x="1304" 
d="M590 -25q-128 0 -229 39.5t-163.5 114.5t-82.5 183t14 245l184 733h254l-186 -751q-39 -163 22.5 -256t204.5 -93q153 0 237.5 83t127.5 255l190 762h256l-198 -796q-68 -272 -221 -395.5t-410 -123.5zM1104 1552q0 -86 -56.5 -142t-140.5 -56q-78 0 -126 46t-48 120
q0 85 56 141.5t141 56.5q77 0 125.5 -46.5t48.5 -119.5zM995 1546q0 31 -19.5 50.5t-51.5 19.5q-35 0 -59.5 -26t-24.5 -64q0 -31 19.5 -50.5t51.5 -19.5q35 0 59.5 26t24.5 64z" />
    <glyph glyph-name="uring" unicode="&#x16f;" horiz-adv-x="1052" 
d="M881 1192q0 -85 -57 -142t-140 -57q-77 0 -125.5 46.5t-48.5 119.5q0 86 56.5 142.5t140.5 56.5q77 0 125.5 -46.5t48.5 -119.5zM774 1186q0 31 -20 50t-52 19q-35 0 -59.5 -26t-24.5 -64q0 -31 19 -50t51 -19q37 0 61.5 26t24.5 64zM696 424l119 479h246l-225 -903h-246
l39 152q-120 -177 -320 -177q-81 0 -138.5 30t-85.5 81t-35.5 119t13.5 145l138 553h245l-129 -520q-29 -106 -1 -162.5t118 -56.5q93 0 162 69t100 191z" />
    <glyph glyph-name="Uhungarumlaut" unicode="&#x170;" horiz-adv-x="1304" 
d="M590 -25q-128 0 -229 39.5t-163.5 114.5t-82.5 183t14 245l184 733h254l-186 -751q-39 -163 22.5 -256t204.5 -93q153 0 237.5 83t127.5 255l190 762h256l-198 -796q-68 -272 -221 -395.5t-410 -123.5zM737 1376h-157l161 275h246zM1044 1376h-155l160 275h245z" />
    <glyph glyph-name="uhungarumlaut" unicode="&#x171;" horiz-adv-x="1052" 
d="M696 424l119 479h246l-225 -903h-246l39 152q-120 -177 -320 -177q-81 0 -138.5 30t-85.5 81t-35.5 119t13.5 145l138 553h245l-129 -520q-29 -106 -1 -162.5t118 -56.5q93 0 162 69t100 191zM537 1016h-158l164 274h245zM844 1016h-156l162 274h246z" />
    <glyph glyph-name="Uogonek" unicode="&#x172;" horiz-adv-x="1304" 
d="M590 -25q-128 0 -229 39.5t-163.5 114.5t-82.5 183t14 245l184 733h254l-186 -751q-39 -163 22.5 -256t204.5 -93q153 0 237.5 83t127.5 255l190 762h256l-198 -796q-49 -194 -140.5 -311t-230.5 -167q-12 -9 -33 -24.5t-30.5 -22.5t-26 -20t-24.5 -19.5t-20 -17.5
t-17.5 -18t-12.5 -17t-10 -18t-5.5 -17.5t-2.5 -19.5q0 -43 55 -43q34 0 104 28l-28 -118q-80 -47 -166 -47q-70 0 -108 34t-38 91q0 61 41.5 110.5t114.5 99.5q-16 -2 -53 -2z" />
    <glyph glyph-name="uogonek" unicode="&#x173;" horiz-adv-x="1052" 
d="M696 424l119 479h246l-225 -903q-112 -58 -156.5 -96t-44.5 -82q0 -43 53 -43q37 0 107 28l-31 -118q-80 -47 -166 -47q-69 0 -107 34t-38 91q0 68 51.5 122.5t140.5 110.5l-55 2l39 150q-120 -177 -320 -177q-81 0 -138.5 30t-85.5 81t-35.5 119t13.5 145l138 553h245
l-129 -520q-29 -106 -1 -162.5t118 -56.5q93 0 162 69t100 191z" />
    <glyph glyph-name="Wcircumflex" unicode="&#x174;" horiz-adv-x="1755" 
d="M1200 1290l6 -952h8l484 952h252l-664 -1290h-285l-4 930h-8l-483 -930h-283l-2 1290h250l-8 -948h8l496 948h233zM1040 1651h250l103 -275h-154l-98 135l-166 -135h-172z" />
    <glyph glyph-name="wcircumflex" unicode="&#x175;" horiz-adv-x="1398" 
d="M780 1290h250l100 -274h-155l-96 135l-166 -135h-172zM915 903l11 -600h8l340 600h235l-518 -903h-239l-13 598h-8l-315 -598h-240l-53 903h233l27 -600h8l324 600h200z" />
    <glyph glyph-name="Ycircumflex" unicode="&#x176;" horiz-adv-x="1273" 
d="M696 731l486 559h286l-698 -792l-123 -498h-248l123 498l-301 792h262zM797 1651h250l102 -275h-154l-98 135l-166 -135h-172z" />
    <glyph glyph-name="ycircumflex" unicode="&#x177;" horiz-adv-x="1007" 
d="M289 -336h-248l229 346l-149 893h237l97 -627h8l395 627h260zM582 1290h249l101 -274h-156l-96 135l-166 -135h-172z" />
    <glyph glyph-name="Ydieresis" unicode="&#x178;" horiz-adv-x="1273" 
d="M696 731l486 559h286l-698 -792l-123 -498h-248l123 498l-301 792h262zM588 1382l59 238h223l-57 -238h-225zM918 1382l59 238h225l-59 -238h-225z" />
    <glyph glyph-name="Zacute" unicode="&#x179;" horiz-adv-x="1179" 
d="M344 213h717l-51 -213h-1057l47 190l918 887h-689l54 213h1030l-49 -196zM877 1376h-179l176 275h267z" />
    <glyph glyph-name="zacute" unicode="&#x17a;" horiz-adv-x="899" 
d="M670 1016h-178l180 274h266zM590 721h-447l45 182h762l-43 -168l-606 -553h481l-45 -182h-786l41 168z" />
    <glyph glyph-name="Zdotaccent" unicode="&#x17b;" horiz-adv-x="1179" 
d="M674 1382l59 238h252l-59 -238h-252zM344 213h717l-51 -213h-1057l47 190l918 887h-689l54 213h1030l-49 -196z" />
    <glyph glyph-name="zdotaccent" unicode="&#x17c;" horiz-adv-x="899" 
d="M590 721h-447l45 182h762l-43 -168l-606 -553h481l-45 -182h-786l41 168zM475 1051l60 239h251l-61 -239h-250z" />
    <glyph glyph-name="Zcaron" unicode="&#x17d;" horiz-adv-x="1179" 
d="M928 1376h-250l-103 275h156l98 -135l164 135h172zM344 213h717l-51 -213h-1057l47 190l918 887h-689l54 213h1030l-49 -196z" />
    <glyph glyph-name="zcaron" unicode="&#x17e;" horiz-adv-x="899" 
d="M719 1016h-250l-100 274h155l97 -133l165 133h172zM590 721h-447l45 182h762l-43 -168l-606 -553h481l-45 -182h-786l41 168z" />
    <glyph glyph-name="florin" unicode="&#x192;" horiz-adv-x="854" 
d="M692 944l-63 -174h205l-46 -178h-225l-190 -531q-54 -152 -152 -226.5t-248 -74.5q-21 0 -104 9l55 180q28 -4 39 -4q69 0 109.5 44.5t74.5 137.5l168 465h-159l45 178h178l88 240q53 144 155 223.5t240 79.5q44 0 125 -15l-47 -180q-27 6 -55 6q-69 0 -113.5 -43.5
t-79.5 -136.5z" />
    <glyph glyph-name="Aringacute" unicode="&#x1fa;" horiz-adv-x="1357" 
d="M743 1290h285l209 -1290h-262l-49 319h-549l-203 -319h-270zM1114 1518q0 -78 -55.5 -130.5t-138.5 -52.5q-78 0 -126.5 43.5t-48.5 112.5q0 78 56.5 131t138.5 53q78 0 126 -43.5t48 -113.5zM813 1006l-311 -490h393l-74 490h-8zM1065 1716h-178l133 217h264zM1008 1513
q0 29 -20 47.5t-52 18.5q-35 0 -59.5 -24.5t-24.5 -59.5q0 -29 20 -47t52 -18q35 0 59.5 24t24.5 59z" />
    <glyph glyph-name="aringacute" unicode="&#x1fb;" horiz-adv-x="1030" 
d="M877 1153q0 -78 -56 -131t-139 -53q-78 0 -126 43t-48 112q0 78 55.5 131.5t138.5 53.5q78 0 126.5 -43.5t48.5 -112.5zM770 1147q0 29 -20 47t-52 18q-36 0 -60 -24t-24 -60q0 -29 19.5 -46t52.5 -17q35 0 59.5 23.5t24.5 58.5zM819 1356h-178l133 217h264zM635 387
l4 19l-203 -27q-93 -11 -137.5 -39.5t-44.5 -89.5q0 -51 32 -77t83 -26q95 0 168.5 64t97.5 176zM913 549l-82 -322q-10 -38 2.5 -57.5t43.5 -19.5q29 0 79 16l-32 -133q-80 -53 -166 -53q-70 0 -116.5 39t-45.5 114q-46 -76 -126.5 -116t-188.5 -40q-127 0 -198 62.5
t-71 167.5q0 137 101.5 214.5t277.5 98.5l289 35l4 20q18 79 -13 123.5t-112 44.5q-145 0 -205 -137l-225 23q54 140 175 219.5t296 79.5q182 0 269.5 -101.5t43.5 -277.5z" />
    <glyph glyph-name="AEacute" unicode="&#x1fc;" horiz-adv-x="2052" 
d="M1053 1290h1126l-53 -213h-694l-78 -313h544l-53 -211h-545l-86 -340h713l-51 -213h-965l88 354h-487l-317 -354h-291zM1178 1096l-490 -545h361l137 545h-8zM1616 1376h-178l176 275h266z" />
    <glyph glyph-name="aeacute" unicode="&#x1fd;" horiz-adv-x="1605" 
d="M1006 1016h-179l181 274h266zM635 373l4 16h-154q-231 0 -231 -145q0 -47 31 -72t84 -25q96 0 168.5 58t97.5 168zM705 168q-53 -91 -159 -141t-235 -50q-137 0 -218 62.5t-81 173.5q0 143 123 236.5t338 93.5h203l8 32q18 79 -13 123.5t-112 44.5q-148 0 -205 -131
l-225 23q53 137 171 215t278 78q101 0 168 -36t98 -95q141 131 338 131q100 0 175.5 -32.5t120 -89t66 -126t21.5 -150.5q0 -64 -17 -141h-682q-6 -107 53 -167t158 -60q183 0 252 147l201 -20q-57 -151 -181 -232.5t-294 -81.5q-262 0 -350 193zM895 543h440q5 87 -42 146
t-140 59q-96 0 -162.5 -56.5t-95.5 -148.5z" />
    <glyph glyph-name="Oslashacute" unicode="&#x1fe;" horiz-adv-x="1415" 
d="M821 1315q219 0 369 -101l121 136l104 -88l-125 -140q127 -146 127 -377q0 -209 -94 -385.5t-260 -280.5t-367 -104q-206 0 -354 91l-133 -148l-107 88l134 148q-136 152 -136 391q0 209 94 385.5t260 280.5t367 104zM365 545q0 -115 47 -195l612 680q-89 60 -209 60
q-129 0 -232.5 -72.5t-160.5 -197t-57 -275.5zM702 201q129 0 233 72t161 196.5t57 275.5q0 104 -41 181l-604 -676q76 -49 194 -49zM985 1376h-178l176 275h266z" />
    <glyph glyph-name="oslashacute" unicode="&#x1ff;" horiz-adv-x="1052" 
d="M53 -4l94 108q-102 105 -102 275q0 152 68 277.5t191.5 198.5t277.5 73q131 0 233 -60l100 115l91 -76l-97 -112q99 -110 99 -271q0 -152 -68 -277.5t-191 -198.5t-276 -73q-123 0 -229 56l-99 -113zM270 377q0 -59 23 -107l389 445q-51 28 -111 28q-88 0 -158 -53
t-106.5 -136t-36.5 -177zM481 160q89 0 159.5 53.5t107 136.5t36.5 176q0 51 -20 103l-387 -447q49 -22 104 -22zM739 1016h-178l180 274h267z" />
    <glyph glyph-name="Scommaaccent" unicode="&#x218;" horiz-adv-x="1200" 
d="M322 -258l43 170h233l-33 -129q-50 -203 -284 -203l22 90q51 0 77 16t38 56h-96zM55 508l238 -6q-24 -156 65 -241t252 -85q117 0 183.5 47t66.5 135q0 61 -41 96.5t-129 59.5l-213 57q-278 74 -278 324q0 188 138 304t368 116q119 0 218 -34t168.5 -97.5t102.5 -160.5
t20 -216l-239 8q16 128 -60 213.5t-223 85.5q-107 0 -167 -45.5t-60 -132.5q0 -61 38 -94.5t118 -57.5l172 -49q164 -47 246.5 -129.5t82.5 -210.5q0 -102 -41.5 -183.5t-114 -132.5t-165.5 -77.5t-199 -26.5q-275 0 -425.5 143.5t-121.5 389.5z" />
    <glyph glyph-name="scommaaccent" unicode="&#x219;" horiz-adv-x="917" 
d="M174 -258l43 170h234l-33 -129q-50 -203 -285 -203l23 90q51 0 76.5 16t37.5 56h-96zM-2 322l205 12q1 -63 33.5 -107.5t81 -64t106.5 -19.5q78 0 123 26.5t45 76.5q0 40 -26 62t-83 36l-123 29q-239 57 -239 252q0 140 106.5 221.5t266.5 81.5q189 0 291 -85.5
t110 -244.5l-207 -10q-5 82 -56.5 126t-144.5 44q-63 0 -102 -26.5t-39 -72.5q0 -68 94 -90l154 -39q112 -28 169.5 -92t57.5 -157q0 -99 -56 -169.5t-145.5 -103.5t-201.5 -33q-189 0 -304.5 89.5t-115.5 257.5z" />
    <glyph glyph-name="uni0237" unicode="&#x237;" horiz-adv-x="452" 
d="M465 903l-248 -1001q-35 -137 -110.5 -199.5t-204.5 -62.5q-71 0 -135 22.5t-99 56.5l80 142q62 -47 121 -47q42 0 66.5 25t39.5 81l244 983h246z" />
    <glyph glyph-name="circumflex" unicode="&#x2c6;" 
d="M606 1290h250l100 -274h-155l-96 135l-166 -135h-172z" />
    <glyph glyph-name="caron" unicode="&#x2c7;" 
d="M786 1016h-249l-101 274h156l96 -133l166 133h172z" />
    <glyph glyph-name="breve" unicode="&#x2d8;" 
d="M664 1014q-94 0 -151.5 49t-57.5 137q0 41 14 90h145q-6 -24 -6 -47q0 -74 88 -74q54 0 91.5 31.5t52.5 89.5h153q-33 -132 -120 -204t-209 -72z" />
    <glyph glyph-name="dotaccent" unicode="&#x2d9;" 
d="M545 1051l59 239h252l-61 -239h-250z" />
    <glyph glyph-name="ring" unicode="&#x2da;" 
d="M885 1192q0 -85 -57 -142t-140 -57q-77 0 -125.5 46.5t-48.5 119.5q0 86 56.5 142.5t140.5 56.5q77 0 125.5 -46.5t48.5 -119.5zM778 1186q0 31 -19.5 50t-51.5 19q-35 0 -59.5 -26t-24.5 -64q0 -31 18.5 -50t50.5 -19q37 0 61.5 26t24.5 64z" />
    <glyph glyph-name="ogonek" unicode="&#x2db;" 
d="M412 25h143q-16 -12 -43.5 -32t-39.5 -29.5t-32 -25t-29 -24.5t-21 -22t-17 -23t-9 -22t-4 -25q0 -43 56 -43q34 0 104 28l-28 -118q-80 -47 -166 -47q-70 0 -108 34t-38 91q0 33 14.5 64.5t33.5 54.5t55 51t60.5 44.5t68.5 43.5z" />
    <glyph glyph-name="tilde" unicode="&#x2dc;" 
d="M500 1022h-144q32 125 95 197.5t149 72.5q34 0 62.5 -15.5t45.5 -34.5t41 -34.5t48 -15.5q62 0 96 94h141q-33 -124 -97 -197t-149 -73q-34 0 -62 15.5t-44.5 34.5t-40 34.5t-47.5 15.5q-64 0 -94 -94z" />
    <glyph glyph-name="hungarumlaut" unicode="&#x2dd;" 
d="M496 1016h-158l164 274h246zM803 1016h-156l162 274h246z" />
    <glyph glyph-name="Wgrave" unicode="&#x1e80;" horiz-adv-x="1755" 
d="M1202 1376h-166l-127 275h250zM1200 1290l6 -952h8l484 952h252l-664 -1290h-285l-4 930h-8l-483 -930h-283l-2 1290h250l-8 -948h8l496 948h233z" />
    <glyph glyph-name="wgrave" unicode="&#x1e81;" horiz-adv-x="1398" 
d="M915 903l11 -600h8l340 600h235l-518 -903h-239l-13 598h-8l-315 -598h-240l-53 903h233l27 -600h8l324 600h200zM938 1016h-166l-127 274h252z" />
    <glyph glyph-name="Wacute" unicode="&#x1e82;" horiz-adv-x="1755" 
d="M1186 1376h-178l176 275h266zM1200 1290l6 -952h8l484 952h252l-664 -1290h-285l-4 930h-8l-483 -930h-283l-2 1290h250l-8 -948h8l496 948h233z" />
    <glyph glyph-name="wacute" unicode="&#x1e83;" horiz-adv-x="1398" 
d="M922 1016h-179l181 274h266zM915 903l11 -600h8l340 600h235l-518 -903h-239l-13 598h-8l-315 -598h-240l-53 903h233l27 -600h8l324 600h200z" />
    <glyph glyph-name="Wdieresis" unicode="&#x1e84;" horiz-adv-x="1755" 
d="M831 1382l60 238h223l-57 -238h-226zM1161 1382l60 238h225l-60 -238h-225zM1200 1290l6 -952h8l484 952h252l-664 -1290h-285l-4 930h-8l-483 -930h-283l-2 1290h250l-8 -948h8l496 948h233z" />
    <glyph glyph-name="wdieresis" unicode="&#x1e85;" horiz-adv-x="1398" 
d="M573 1042l60 240h225l-59 -240h-226zM903 1042l60 240h225l-60 -240h-225zM915 903l11 -600h8l340 600h235l-518 -903h-239l-13 598h-8l-315 -598h-240l-53 903h233l27 -600h8l324 600h200z" />
    <glyph glyph-name="Ygrave" unicode="&#x1ef2;" horiz-adv-x="1273" 
d="M696 731l486 559h286l-698 -792l-123 -498h-248l123 498l-301 792h262zM936 1376h-166l-127 275h250z" />
    <glyph glyph-name="ygrave" unicode="&#x1ef3;" horiz-adv-x="1007" 
d="M289 -336h-248l229 346l-149 893h237l97 -627h8l395 627h260zM737 1016h-166l-127 274h252z" />
    <glyph glyph-name="endash" unicode="&#x2013;" 
d="M98 438l43 168h809l-43 -168h-809z" />
    <glyph glyph-name="emdash" unicode="&#x2014;" horiz-adv-x="2048" 
d="M98 438l43 168h1835l-41 -168h-1837z" />
    <glyph glyph-name="quoteleft" unicode="&#x2018;" horiz-adv-x="409" 
d="M496 1057l-62 -248h-270l59 235q33 130 112 191.5t224 64.5l-35 -126q-66 -3 -100 -28.5t-51 -88.5h123z" />
    <glyph glyph-name="quoteright" unicode="&#x2019;" horiz-adv-x="409" 
d="M219 1042l62 248h270l-59 -235q-31 -130 -110 -192.5t-224 -63.5l32 127q68 3 101.5 28t50.5 88h-123z" />
    <glyph glyph-name="quotesinglbase" unicode="&#x201a;" horiz-adv-x="409" 
d="M-35 0l62 248h270l-59 -238q-33 -130 -111.5 -191.5t-222.5 -62.5l33 125q66 5 100 30.5t51 88.5h-123z" />
    <glyph glyph-name="quotedblleft" unicode="&#x201c;" horiz-adv-x="776" 
d="M496 1057l-62 -248h-270l59 235q33 130 112 191.5t224 64.5l-35 -126q-66 -3 -100 -28.5t-51 -88.5h123zM862 1057l-63 -248h-271l60 235q33 130 112 191.5t224 64.5l-33 -126q-68 -3 -102.5 -28.5t-51.5 -88.5h125z" />
    <glyph glyph-name="quotedblright" unicode="&#x201d;" horiz-adv-x="776" 
d="M584 1042l63 248h271l-60 -235q-33 -130 -112 -192.5t-224 -63.5l33 127q68 3 102.5 28t51.5 88h-125zM219 1042l62 248h270l-59 -235q-31 -130 -110 -192.5t-224 -63.5l32 127q68 3 101.5 28t50.5 88h-123z" />
    <glyph glyph-name="quotedblbase" unicode="&#x201e;" horiz-adv-x="776" 
d="M330 0l61 248h271l-58 -238q-33 -130 -112 -191.5t-224 -62.5l33 125q68 5 102.5 30.5t51.5 88.5h-125zM-35 0l62 248h270l-59 -238q-33 -130 -111.5 -191.5t-222.5 -62.5l33 125q66 5 100 30.5t51 88.5h-123z" />
    <glyph glyph-name="dagger" unicode="&#x2020;" horiz-adv-x="671" 
d="M180 956l39 156h205l47 188h160l-47 -188h200l-39 -156h-200l-107 -421h-159l106 421h-205z" />
    <glyph glyph-name="daggerdbl" unicode="&#x2021;" horiz-adv-x="692" 
d="M131 698l35 144h205l39 149h-205l35 146h206l41 163h154l-41 -163h205l-35 -146h-207l-39 -149h207l-35 -144h-207l-40 -163h-154l41 163h-205z" />
    <glyph glyph-name="bullet" unicode="&#x2022;" horiz-adv-x="747" 
d="M680 526q0 -127 -86 -210t-209 -83q-125 0 -210 83t-85 210q0 129 85 212t210 83q124 0 209.5 -83.5t85.5 -211.5z" />
    <glyph glyph-name="ellipsis" unicode="&#x2026;" horiz-adv-x="1241" 
d="M-37 0l68 274h272l-65 -274h-275zM377 0l67 274h273l-66 -274h-274zM791 0l67 274h272l-65 -274h-274z" />
    <glyph glyph-name="perthousand" unicode="&#x2030;" horiz-adv-x="2322" 
d="M338 889q0 -127 115 -127q75 0 126.5 76.5t51.5 205.5q0 125 -115 125q-76 0 -127 -75.5t-51 -204.5zM158 895q0 93 32 173t84 133.5t118.5 83.5t135.5 30q127 0 205 -76t78 -201q0 -93 -32 -173t-84.5 -133.5t-119 -83.5t-135.5 -30q-127 0 -204.5 76t-77.5 201z
M1462 1300l-1007 -1310h-199l1008 1310h198zM1380 401q0 127 -114 127q-75 0 -127 -76.5t-52 -205.5q0 -125 115 -125q76 0 127 75.5t51 204.5zM1561 395q0 -93 -32 -173t-84.5 -133.5t-119 -83.5t-135.5 -30q-127 0 -205 76t-78 201q0 93 32 173t84.5 133.5t119 83.5
t135.5 30q127 0 205 -76t78 -201zM2101 401q0 127 -114 127q-76 0 -127.5 -76.5t-51.5 -205.5q0 -125 115 -125q75 0 126.5 75.5t51.5 204.5zM2281 395q0 -93 -32 -173t-84 -133.5t-118.5 -83.5t-135.5 -30q-127 0 -205 76t-78 201q0 93 32 173t84.5 133.5t119 83.5
t135.5 30q127 0 204.5 -76t77.5 -201z" />
    <glyph glyph-name="guilsinglleft" unicode="&#x2039;" horiz-adv-x="505" 
d="M47 350l53 209l414 260l-59 -239l-230 -144l158 -145l-51 -201z" />
    <glyph glyph-name="guilsinglright" unicode="&#x203a;" horiz-adv-x="505" 
d="M473 559l-53 -209l-412 -260l60 240l227 143l-158 145l51 201z" />
    <glyph glyph-name="fraction" unicode="&#x2044;" horiz-adv-x="1013" 
d="M1083 1305l-917 -1319h-180l915 1319h182z" />
    <glyph glyph-name="Euro" unicode="&#x20ac;" horiz-adv-x="1300" 
d="M109 709l30 135h119q78 210 233.5 340.5t366.5 130.5q236 0 355.5 -153t95.5 -392l-238 -10q16 145 -43 240.5t-184 95.5q-117 0 -200 -68.5t-132 -183.5h354l-53 -135h-344q-12 -59 -18 -125h315l-55 -135h-262q9 -120 69.5 -187t175.5 -67q136 0 221.5 88.5
t120.5 246.5l234 -10q-47 -242 -207.5 -393.5t-390.5 -151.5q-114 0 -204 36t-147.5 100.5t-89 149.5t-36.5 188h-152l33 135h123q6 66 18 125h-108z" />
    <glyph glyph-name="uni2117" unicode="&#x2117;" horiz-adv-x="1482" 
d="M121 645q0 190 90.5 344.5t243.5 240t336 85.5t336 -85.5t243 -240t90 -344.5t-90 -344.5t-243 -240t-336 -85.5t-336 85.5t-243.5 240t-90.5 344.5zM219 645q0 -122 45.5 -229t122.5 -182t182 -118.5t222 -43.5q116 0 220.5 43.5t181.5 118.5t122 182t45 229
q0 162 -76.5 294.5t-207 206t-285.5 73.5q-156 0 -287 -73.5t-208 -205.5t-77 -295zM694 655h131q158 0 158 115t-158 115h-131v-230zM694 514v-258h-172v772h324q148 0 228.5 -68.5t80.5 -187.5q0 -121 -80 -189.5t-229 -68.5h-152z" />
    <glyph glyph-name="trademark" unicode="&#x2122;" horiz-adv-x="1341" 
d="M442 758h-141l100 409h-180l31 123h508l-33 -123h-182zM1026 758h-104l-11 372h-4l-94 -372h-133l133 532h205l4 -354h4l184 354h199l-133 -532h-141l92 372h-4z" />
    <glyph glyph-name="uni2153" unicode="&#x2153;" horiz-adv-x="1636" 
d="M1384 1290l-1093 -1290h-189l1096 1290h186zM176 1038l33 131q84 0 136 29t91 94h150l-201 -813h-197l140 559h-152zM1325 256q0 78 -98 78q-41 0 -64 -4l35 143q36 -4 64 -4q56 0 94.5 28.5t38.5 84.5q0 37 -25.5 61.5t-71.5 24.5q-114 0 -149 -144l-188 8
q29 134 122 214.5t234 80.5q132 0 201 -61t69 -154q0 -89 -53 -141.5t-133 -67.5q58 -17 90.5 -57t32.5 -96q0 -85 -48 -147t-120.5 -90.5t-157.5 -28.5q-168 0 -246.5 84.5t-54.5 216.5l186 -6q-13 -65 19 -101.5t92 -36.5q59 0 95 29t36 86z" />
    <glyph glyph-name="uni2154" unicode="&#x2154;" horiz-adv-x="1927" 
d="M1675 1290l-1095 -1290h-187l1094 1290h188zM1616 256q0 78 -98 78q-43 0 -66 -4l35 143q36 -4 65 -4q56 0 93.5 28.5t37.5 84.5q0 37 -25.5 61.5t-70.5 24.5q-117 0 -147 -144l-191 8q29 134 122.5 214.5t236.5 80.5q130 0 200 -61t70 -154q0 -89 -53.5 -141.5
t-132.5 -67.5q57 -17 88.5 -57.5t31.5 -95.5q0 -126 -95.5 -196t-229.5 -70q-168 0 -246 84t-55 217l186 -6q-13 -65 19 -101.5t92 -36.5q59 0 96 29t37 86zM440 643h324l-41 -164h-621l33 137l281 191q119 82 170 132.5t51 109.5q0 90 -94 90q-62 0 -94.5 -52t-34.5 -133
l-193 9q3 155 94 248.5t248 93.5q130 0 202.5 -66.5t72.5 -167.5q0 -49 -13.5 -90.5t-32 -70.5t-57 -63t-68.5 -55t-87 -57z" />
    <glyph glyph-name="uni215B" unicode="&#x215b;" horiz-adv-x="1642" 
d="M1384 1290l-1093 -1290h-189l1096 1290h186zM176 1038l33 131q84 0 136 29t91 94h150l-201 -813h-197l140 559h-152zM1204 131q63 0 102.5 32.5t39.5 88.5q0 43 -32.5 69.5t-90.5 26.5q-62 0 -102 -32.5t-40 -88.5q0 -42 33 -69t90 -27zM1204 -16q-153 0 -234 66t-81 163
q0 85 51.5 142.5t140.5 74.5q-96 49 -96 145q0 116 92 184t221 68q139 0 217 -56t78 -155q0 -156 -172 -210q53 -20 86 -63.5t33 -104.5q0 -120 -96.5 -187t-239.5 -67zM1278 483q55 0 91 31t36 82q0 40 -29.5 63t-75.5 23q-54 0 -90 -31t-36 -82q0 -40 30 -63t74 -23z" />
    <glyph glyph-name="uni215C" unicode="&#x215c;" horiz-adv-x="1884" 
d="M561 735q0 76 -98 76q-41 0 -66 -2l37 141q36 -4 64 -4q56 0 94.5 29.5t38.5 85.5q0 37 -25.5 61.5t-70.5 24.5q-115 0 -150 -143l-188 6q27 134 120.5 214.5t235.5 80.5q131 0 200.5 -60t69.5 -153q0 -90 -53 -142t-133 -67q58 -17 90.5 -57.5t32.5 -96.5
q0 -86 -48 -148t-120.5 -90t-157.5 -28q-169 0 -247 83.5t-54 215.5l186 -6q-13 -64 19 -99.5t92 -35.5q58 0 94.5 28t36.5 86zM1626 1290l-1096 -1290h-186l1094 1290h188zM1446 131q63 0 102 32.5t39 88.5q0 44 -33 70t-92 26q-62 0 -101.5 -32.5t-39.5 -88.5
q0 -42 33 -69t92 -27zM1446 -16q-153 0 -235.5 66t-82.5 163q0 85 52 142t141 75q-94 50 -94 145q0 116 92 184t219 68q139 0 218 -56.5t79 -154.5q0 -155 -172 -210q52 -20 84.5 -63.5t32.5 -104.5q0 -120 -96 -187t-238 -67zM1520 483q55 0 90 30.5t35 82.5q0 40 -29.5 63
t-75.5 23q-54 0 -89.5 -31t-35.5 -82q0 -40 30 -63t75 -23z" />
    <glyph glyph-name="uni215D" unicode="&#x215d;" horiz-adv-x="1869" 
d="M1612 1290l-1096 -1290h-186l1093 1290h189zM1432 131q62 0 101.5 32.5t39.5 88.5q0 44 -33 70t-92 26q-62 0 -101.5 -32.5t-39.5 -88.5q0 -42 33 -69t92 -27zM1430 -16q-152 0 -234 66t-82 163q0 85 52 142t141 75q-95 48 -95 145q0 116 92.5 184t219.5 68
q139 0 218 -56.5t79 -154.5q0 -155 -172 -210q52 -20 84 -63.5t32 -104.5q0 -120 -96 -187t-239 -67zM1505 483q55 0 90 30.5t35 82.5q0 40 -29 63t-75 23q-54 0 -89.5 -31t-35.5 -82q0 -40 30 -63t74 -23zM823 1290l-39 -160h-356q-34 -105 -51 -145q58 45 145 45
q111 0 174.5 -68t63.5 -171q0 -143 -94 -234.5t-244 -91.5q-156 0 -235.5 85t-51.5 214l180 -12q-9 -60 24.5 -94.5t92.5 -34.5q61 0 100 40t39 105q0 50 -27 82.5t-79 32.5q-77 0 -121 -64l-184 15q98 233 164 456h499z" />
    <glyph glyph-name="uni215E" unicode="&#x215e;" horiz-adv-x="1675" 
d="M1417 1290l-1095 -1290h-187l1094 1290h188zM1237 131q63 0 102 32.5t39 88.5q0 44 -33 70t-92 26q-62 0 -101.5 -32.5t-39.5 -88.5q0 -42 33 -69t92 -27zM1237 -16q-153 0 -235 66t-82 163q0 85 51.5 142.5t140.5 74.5q-94 50 -94 145q0 116 92 184t219 68
q140 0 218.5 -56t78.5 -155q0 -155 -172 -210q52 -20 84.5 -63.5t32.5 -104.5q0 -120 -96 -187t-238 -67zM1311 483q55 0 90 30.5t35 82.5q0 40 -29.5 63t-75.5 23q-54 0 -89.5 -31t-35.5 -82q0 -40 30 -63t75 -23zM547 1114h-387l45 176h612l-39 -149
q-77 -62 -135.5 -126.5t-97.5 -122.5t-70 -130.5t-50 -133.5t-40 -149h-215q55 209 141 358t236 277z" />
    <glyph glyph-name="minus" unicode="&#x2212;" horiz-adv-x="1259" 
d="M121 535l51 204h1061l-51 -204h-1061z" />
    <glyph glyph-name="approxequal" unicode="&#x2248;" horiz-adv-x="1296" 
d="M176 672l49 194q170 97 307 97q91 0 231.5 -47.5t231.5 -47.5q143 0 316 97l-49 -195q-169 -96 -316 -96q-90 0 -230.5 47t-230.5 47q-138 0 -309 -96zM88 317l47 195q164 94 309 94q91 0 231.5 -46t231.5 -46q148 0 316 94l-49 -194q-175 -95 -316 -95q-91 0 -231 46.5
t-232 46.5q-133 0 -307 -95z" />
    <glyph glyph-name="notequal" unicode="&#x2260;" horiz-adv-x="1296" 
d="M193 735l43 187h626l230 245h196l-229 -245h239l-45 -187h-368l-180 -194h499l-45 -187h-629l-227 -243h-197l228 243h-238l47 187h365l180 194h-495z" />
    <glyph glyph-name="lessequal" unicode="&#x2264;" horiz-adv-x="974" 
d="M-14 59l53 203h809l-51 -203h-811zM137 657l66 261l889 323l-60 -240l-655 -227l545 -227l-54 -211z" />
    <glyph glyph-name="greaterequal" unicode="&#x2265;" horiz-adv-x="974" 
d="M848 262l-51 -203h-811l53 203h809zM1012 918l-66 -261l-891 -321l62 239l655 226l-545 229l56 211z" />
    <glyph glyph-name="i.dot" horiz-adv-x="452" 
d="M219 903h246l-223 -903h-246zM254 1051l59 239h252l-61 -239h-250z" />
    <glyph glyph-name="space_uni0326" 
d="M227 -258l43 170h234l-33 -129q-50 -203 -285 -203l23 90q51 0 77 16t38 56h-97z" />
    <glyph glyph-name="space_uni0326.alt" 
d="M825 1204l-43 -170h-233l33 129q50 203 284 203l-22 -90q-51 0 -77 -16t-36 -56h94z" />
    <glyph glyph-name="space_dotbelowcomb" 
d="M193 -356l61 237h250l-60 -237h-251z" />
    <glyph glyph-name="a.alt" horiz-adv-x="1144" 
d="M745 397l17 62q33 123 -16.5 202.5t-153.5 79.5q-130 0 -211.5 -113.5t-81.5 -267.5q0 -94 47 -144t135 -50q95 0 165.5 62.5t98.5 168.5zM694 156q-52 -86 -134 -132.5t-185 -46.5q-156 0 -243 97.5t-87 257.5q0 113 37.5 220t103 190.5t163.5 134.5t210 51
q106 0 174 -50.5t94 -138.5l43 164h246l-180 -678q-20 -75 45 -75q30 0 80 16l-33 -133q-77 -53 -160 -53t-129.5 48.5t-44.5 127.5z" />
    <glyph glyph-name="aacute.alt" horiz-adv-x="1144" 
d="M786 1016h-178l180 274h267zM745 397l17 62q33 123 -16.5 202.5t-153.5 79.5q-130 0 -211.5 -113.5t-81.5 -267.5q0 -94 47 -144t135 -50q95 0 165.5 62.5t98.5 168.5zM694 156q-52 -86 -134 -132.5t-185 -46.5q-156 0 -243 97.5t-87 257.5q0 113 37.5 220t103 190.5
t163.5 134.5t210 51q106 0 174 -50.5t94 -138.5l43 164h246l-180 -678q-20 -75 45 -75q30 0 80 16l-33 -133q-77 -53 -160 -53t-129.5 48.5t-44.5 127.5z" />
    <glyph glyph-name="abreve.alt" horiz-adv-x="1144" 
d="M745 397l17 62q33 123 -16.5 202.5t-153.5 79.5q-130 0 -211.5 -113.5t-81.5 -267.5q0 -94 47 -144t135 -50q95 0 165.5 62.5t98.5 168.5zM694 156q-52 -86 -134 -132.5t-185 -46.5q-156 0 -243 97.5t-87 257.5q0 113 37.5 220t103 190.5t163.5 134.5t210 51
q106 0 174 -50.5t94 -138.5l43 164h246l-180 -678q-20 -75 45 -75q30 0 80 16l-33 -133q-77 -53 -160 -53t-129.5 48.5t-44.5 127.5zM711 1014q-94 0 -151.5 49t-57.5 137q0 41 14 90h146q-7 -28 -7 -47q0 -74 88 -74q54 0 91.5 31.5t52.5 89.5h153q-33 -132 -120 -204
t-209 -72z" />
    <glyph glyph-name="acircumflex.alt" horiz-adv-x="1144" 
d="M649 1290h250l100 -274h-155l-96 135l-166 -135h-172zM745 397l17 62q33 123 -16.5 202.5t-153.5 79.5q-130 0 -211.5 -113.5t-81.5 -267.5q0 -94 47 -144t135 -50q95 0 165.5 62.5t98.5 168.5zM694 156q-52 -86 -134 -132.5t-185 -46.5q-156 0 -243 97.5t-87 257.5
q0 113 37.5 220t103 190.5t163.5 134.5t210 51q106 0 174 -50.5t94 -138.5l43 164h246l-180 -678q-20 -75 45 -75q30 0 80 16l-33 -133q-77 -53 -160 -53t-129.5 48.5t-44.5 127.5z" />
    <glyph glyph-name="adieresis.alt" horiz-adv-x="1144" 
d="M440 1042l60 240h225l-59 -240h-226zM770 1042l59 240h226l-60 -240h-225zM745 397l17 62q33 123 -16.5 202.5t-153.5 79.5q-130 0 -211.5 -113.5t-81.5 -267.5q0 -94 47 -144t135 -50q95 0 165.5 62.5t98.5 168.5zM694 156q-52 -86 -134 -132.5t-185 -46.5
q-156 0 -243 97.5t-87 257.5q0 113 37.5 220t103 190.5t163.5 134.5t210 51q106 0 174 -50.5t94 -138.5l43 164h246l-180 -678q-20 -75 45 -75q30 0 80 16l-33 -133q-77 -53 -160 -53t-129.5 48.5t-44.5 127.5z" />
    <glyph glyph-name="agrave.alt" horiz-adv-x="1144" 
d="M745 397l17 62q33 123 -16.5 202.5t-153.5 79.5q-130 0 -211.5 -113.5t-81.5 -267.5q0 -94 47 -144t135 -50q95 0 165.5 62.5t98.5 168.5zM694 156q-52 -86 -134 -132.5t-185 -46.5q-156 0 -243 97.5t-87 257.5q0 113 37.5 220t103 190.5t163.5 134.5t210 51
q106 0 174 -50.5t94 -138.5l43 164h246l-180 -678q-20 -75 45 -75q30 0 80 16l-33 -133q-77 -53 -160 -53t-129.5 48.5t-44.5 127.5zM805 1016h-166l-127 274h252z" />
    <glyph glyph-name="amacron.alt" horiz-adv-x="1144" 
d="M745 397l17 62q33 123 -16.5 202.5t-153.5 79.5q-130 0 -211.5 -113.5t-81.5 -267.5q0 -94 47 -144t135 -50q95 0 165.5 62.5t98.5 168.5zM694 156q-52 -86 -134 -132.5t-185 -46.5q-156 0 -243 97.5t-87 257.5q0 113 37.5 220t103 190.5t163.5 134.5t210 51
q106 0 174 -50.5t94 -138.5l43 164h246l-180 -678q-20 -75 45 -75q30 0 80 16l-33 -133q-77 -53 -160 -53t-129.5 48.5t-44.5 127.5zM440 1034l47 172h543l-47 -172h-543z" />
    <glyph glyph-name="aogonek.alt" horiz-adv-x="1144" 
d="M694 156q-52 -86 -134 -132.5t-185 -46.5q-156 0 -243 97.5t-87 257.5q0 113 37.5 220t103 190.5t163.5 134.5t210 51q106 0 174 -50.5t94 -138.5l43 164h246l-180 -678q-20 -75 45 -75q30 0 80 16l-33 -133q-10 -7 -46 -29.5t-59.5 -39t-52 -40.5t-43 -50t-14.5 -52
q0 -43 55 -43q35 0 105 28l-29 -118q-80 -47 -166 -47q-70 0 -107.5 34t-37.5 91q0 63 46.5 116t127.5 105q-56 15 -85.5 59t-27.5 109zM745 397l17 62q33 123 -16.5 202.5t-153.5 79.5q-130 0 -211.5 -113.5t-81.5 -267.5q0 -94 47 -144t135 -50q95 0 165.5 62.5
t98.5 168.5z" />
    <glyph glyph-name="aring.alt" horiz-adv-x="1144" 
d="M936 1192q0 -85 -57 -142t-140 -57q-77 0 -125.5 46.5t-48.5 119.5q0 86 56.5 142.5t140.5 56.5q77 0 125.5 -46.5t48.5 -119.5zM829 1186q0 31 -19.5 50t-51.5 19q-35 0 -59.5 -26t-24.5 -64q0 -31 18.5 -50t50.5 -19q37 0 61.5 26t24.5 64zM745 397l17 62
q33 123 -16.5 202.5t-153.5 79.5q-130 0 -211.5 -113.5t-81.5 -267.5q0 -94 47 -144t135 -50q95 0 165.5 62.5t98.5 168.5zM694 156q-52 -86 -134 -132.5t-185 -46.5q-156 0 -243 97.5t-87 257.5q0 113 37.5 220t103 190.5t163.5 134.5t210 51q106 0 174 -50.5t94 -138.5
l43 164h246l-180 -678q-20 -75 45 -75q30 0 80 16l-33 -133q-77 -53 -160 -53t-129.5 48.5t-44.5 127.5z" />
    <glyph glyph-name="aringacute.alt" horiz-adv-x="1144" 
d="M928 1153q0 -78 -56.5 -131t-138.5 -53q-79 0 -126.5 43t-47.5 112q0 78 56 131.5t139 53.5q78 0 126 -43.5t48 -112.5zM821 1147q0 29 -19.5 47t-51.5 18q-36 0 -60 -24t-24 -60q0 -29 19.5 -46t51.5 -17q34 0 59 23.5t25 58.5zM870 1356h-178l133 217h265zM745 397
l17 62q33 123 -16.5 202.5t-153.5 79.5q-130 0 -211.5 -113.5t-81.5 -267.5q0 -94 47 -144t135 -50q95 0 165.5 62.5t98.5 168.5zM694 156q-52 -86 -134 -132.5t-185 -46.5q-156 0 -243 97.5t-87 257.5q0 113 37.5 220t103 190.5t163.5 134.5t210 51q106 0 174 -50.5
t94 -138.5l43 164h246l-180 -678q-20 -75 45 -75q30 0 80 16l-33 -133q-77 -53 -160 -53t-129.5 48.5t-44.5 127.5z" />
    <glyph glyph-name="atilde.alt" horiz-adv-x="1144" 
d="M745 397l17 62q33 123 -16.5 202.5t-153.5 79.5q-130 0 -211.5 -113.5t-81.5 -267.5q0 -94 47 -144t135 -50q95 0 165.5 62.5t98.5 168.5zM694 156q-52 -86 -134 -132.5t-185 -46.5q-156 0 -243 97.5t-87 257.5q0 113 37.5 220t103 190.5t163.5 134.5t210 51
q106 0 174 -50.5t94 -138.5l43 164h246l-180 -678q-20 -75 45 -75q30 0 80 16l-33 -133q-77 -53 -160 -53t-129.5 48.5t-44.5 127.5zM549 1022h-143q32 125 94.5 197.5t148.5 72.5q34 0 62.5 -15.5t45.5 -34.5t41 -34.5t48 -15.5q62 0 96 94h141q-33 -124 -96.5 -197
t-148.5 -73q-34 0 -62.5 15.5t-45 34.5t-40 34.5t-47.5 15.5q-64 0 -94 -94z" />
    <glyph glyph-name="caron.Slovak" 
d="M668 1004h-150l103 286h249z" />
    <glyph glyph-name="cedilla.alt" horiz-adv-x="1421" 
d="M803 -190q0 -61 -41.5 -100.5t-96.5 -53.5t-120 -14q-72 0 -130.5 21t-90.5 52l47 72q73 -55 170 -55q102 0 102 55q0 46 -50.5 51.5t-100.5 -18.5l-50 22l152 181h94l-96 -107q92 21 151.5 -7.5t59.5 -98.5z" />
    <glyph glyph-name="grave.cap" 
d="M938 1376h-166l-127 275h250z" />
    <glyph glyph-name="acute.cap" 
d="M741 1376h-178l176 275h267z" />
    <glyph glyph-name="circumflex.cap" 
d="M694 1651h250l103 -275h-154l-98 135l-166 -135h-172z" />
    <glyph glyph-name="caron.cap" 
d="M877 1376h-250l-103 275h156l98 -135l164 135h172z" />
    <glyph glyph-name="tilde.cap" 
d="M586 1376h-142q32 124 95.5 196.5t148.5 72.5q34 0 62.5 -15.5t45.5 -34t41 -34t48 -15.5q65 0 94 92h143q-33 -124 -96.5 -196t-148.5 -72q-34 0 -62.5 15.5t-45 33.5t-40.5 33.5t-49 15.5q-32 0 -54.5 -22t-39.5 -70z" />
    <glyph glyph-name="macron.cap" 
d="M475 1389l45 172h553l-43 -172h-555z" />
    <glyph glyph-name="breve.cap" 
d="M752 1374q-93 0 -150 48.5t-57 136.5q0 39 12 92h145q-1 -6 -3.5 -22.5t-2.5 -24.5q0 -74 88 -74q113 0 144 121h153q-33 -134 -119.5 -205.5t-209.5 -71.5z" />
    <glyph glyph-name="dotaccent.cap" 
d="M627 1382l59 238h252l-59 -238h-252z" />
    <glyph glyph-name="dieresis.cap" 
d="M475 1382l60 238h223l-58 -238h-225zM805 1382l59 238h226l-60 -238h-225z" />
    <glyph glyph-name="ring.cap" 
d="M983 1552q0 -86 -56.5 -142t-140.5 -56q-78 0 -126 46t-48 120q0 85 56 141.5t141 56.5q77 0 125.5 -46.5t48.5 -119.5zM874 1546q0 31 -19.5 50.5t-51.5 19.5q-35 0 -59.5 -26t-24.5 -64q0 -31 20 -50.5t52 -19.5q35 0 59 26t24 64z" />
    <glyph glyph-name="hungarumlaut.cap" 
d="M586 1376h-158l162 275h246zM893 1376h-156l160 275h246z" />
    <glyph glyph-name="exclamdown.cap" horiz-adv-x="430" 
d="M567 1290l-65 -274h-275l66 274h274zM240 0h-263l89 348l200 561h142l-80 -561z" />
    <glyph glyph-name="questiondown.cap" horiz-adv-x="1026" 
d="M514 907h236q-22 -90 -77.5 -160t-154.5 -133q-6 -4 -41.5 -25.5t-43.5 -27t-36 -25.5t-36 -30t-26 -30.5t-24 -38t-12 -41.5t-6 -50q0 -69 45.5 -112.5t130.5 -43.5q122 0 192 95t72 235l252 -8q-12 -253 -162 -395t-387 -142q-104 0 -184 28t-127 76.5t-71 108.5
t-25 129q0 61 19 116t47 94.5t73.5 79t83 64t92.5 56.5q76 44 115.5 86t54.5 94zM860 1290l-67 -274h-273l66 274h274z" />
    <glyph glyph-name="guilsinglleft.cap" horiz-adv-x="505" 
d="M84 522l51 209l414 260l-60 -239l-227 -144l158 -145l-51 -201z" />
    <glyph glyph-name="guilsinglright.cap" horiz-adv-x="505" 
d="M504 731l-53 -209l-414 -260l59 240l230 143l-158 146l51 200z" />
    <glyph glyph-name="guillemotleft.cap" horiz-adv-x="905" 
d="M84 522l51 209l414 260l-60 -239l-227 -144l158 -145l-51 -201zM483 522l54 209l411 260l-59 -239l-227 -144l157 -145l-51 -201z" />
    <glyph glyph-name="guillemotright.cap" horiz-adv-x="905" 
d="M504 731l-53 -209l-414 -260l59 240l230 143l-158 146l51 200zM903 731l-53 -209l-414 -260l60 240l229 143l-158 146l51 200z" />
    <glyph glyph-name="slash.cap" horiz-adv-x="780" 
d="M-106 0l876 1290h248l-879 -1290h-245z" />
    <glyph glyph-name="backslash.cap" horiz-adv-x="737" 
d="M401 1290l248 -1290h-215l-248 1290h215z" />
    <glyph glyph-name="bar.cap" horiz-adv-x="446" 
d="M4 0l322 1290h221l-322 -1290h-221z" />
    <glyph glyph-name="periodcentered.cap" horiz-adv-x="497" 
d="M127 510l68 274h272l-66 -274h-274z" />
    <glyph glyph-name="bullet.cap" horiz-adv-x="747" 
d="M715 649q0 -127 -85 -210t-210 -83t-210 83t-85 210q0 129 85 212t210 83t210 -83t85 -212z" />
    <glyph glyph-name="hyphen.cap" horiz-adv-x="720" 
d="M129 539l53 215h508l-53 -215h-508z" />
    <glyph glyph-name="endash.cap" 
d="M133 561l43 168h809l-41 -168h-811z" />
    <glyph glyph-name="emdash.cap" horiz-adv-x="2048" 
d="M133 561l43 168h1835l-41 -168h-1837z" />
    <glyph glyph-name="parenleft.cap" horiz-adv-x="645" 
d="M106 369q0 573 504 1020h242q-175 -157 -292.5 -343t-166.5 -352.5t-49 -324.5q0 -155 30.5 -275t98.5 -229h-215q-152 221 -152 504z" />
    <glyph glyph-name="parenright.cap" horiz-adv-x="645" 
d="M629 883q0 -571 -504 -1018h-242q175 157 292.5 343t166.5 352.5t49 324.5q0 155 -30.5 275t-98.5 229h215q152 -221 152 -506z" />
    <glyph glyph-name="bracketleft.cap" horiz-adv-x="612" 
d="M555 1212l-293 -1173h184l-43 -174h-405l377 1524h407l-43 -177h-184z" />
    <glyph glyph-name="bracketright.cap" horiz-adv-x="612" 
d="M156 39l293 1173h-185l43 177h406l-377 -1524h-408l43 174h185z" />
    <glyph glyph-name="braceleft.cap" horiz-adv-x="647" 
d="M94 539l43 174h51q61 0 86 30t48 119l69 285q62 242 287 242h145l-45 -177h-82q-37 0 -55.5 -19t-26.5 -56l-69 -285q-26 -102 -76 -156t-141 -69q116 -19 116 -131q0 -43 -45 -219t-45 -197q0 -41 49 -41h82l-41 -174h-145q-178 0 -178 153q0 48 49 238t49 227
q0 29 -17.5 42.5t-56.5 13.5h-51z" />
    <glyph glyph-name="braceright.cap" horiz-adv-x="647" 
d="M657 713l-45 -174h-51q-60 0 -85 -30.5t-48 -119.5l-70 -283q-62 -241 -286 -241h-144l43 174h82q38 0 55.5 19.5t26.5 56.5l72 286q26 102 75 157t140 69q-62 10 -89.5 42t-27.5 89q0 43 45 219t45 197q0 20 -10.5 29t-38.5 9h-82l43 177h144q87 0 133.5 -39t46.5 -115
q0 -48 -50.5 -238t-50.5 -227q0 -31 17.5 -44t58.5 -13h51z" />
    <glyph glyph-name="at.cap" horiz-adv-x="1572" 
d="M1194 410q104 0 171 108.5t67 292.5q0 190 -123.5 302t-343.5 112q-194 0 -350 -83t-248.5 -243t-92.5 -371q0 -216 144.5 -344.5t384.5 -128.5q228 0 428 95l39 -117q-207 -117 -475 -117q-201 0 -355 73.5t-240.5 212.5t-86.5 324q0 183 65.5 340.5t179 267t271 172
t336.5 62.5q146 0 264.5 -42.5t197 -117.5t120.5 -177t42 -220q0 -127 -37 -230.5t-98.5 -169t-138 -100.5t-158.5 -35q-165 0 -209 142q-40 -67 -106.5 -104.5t-149.5 -37.5q-107 0 -174.5 78t-66.5 203q1 119 51 222.5t140 167t198 63.5q76 0 130.5 -35.5t73.5 -91.5
l37 110h199l-139 -473q-15 -55 0 -82.5t53 -27.5zM963 623l14 45q25 82 -1.5 139t-98.5 57q-88 0 -149.5 -91.5t-61.5 -207.5q0 -135 106 -135q65 0 116 48.5t75 144.5z" />
    <glyph glyph-name="Euro.lt" horiz-adv-x="1228" 
d="M121 709l31 135h100q75 210 224.5 340.5t352.5 130.5q151 0 255 -72t148 -194.5t28 -278.5l-230 -10q9 95 -9.5 169t-71 120.5t-134.5 46.5q-109 0 -187 -68t-126 -184h352l-51 -135h-344q-14 -70 -19 -125h314l-56 -135h-262q9 -120 66.5 -187t163.5 -67q254 0 325 333
l230 -10q-45 -242 -199 -392.5t-375 -150.5q-110 0 -196 36t-140 101t-83.5 149.5t-34.5 187.5h-138l33 135h109q6 66 18 125h-94z" />
    <glyph glyph-name="dollar.lt" horiz-adv-x="1228" 
d="M86 508l229 -6q-20 -120 33.5 -202t159.5 -114l90 365l-90 27q-279 74 -279 321q0 187 138 301.5t368 114.5q9 0 26.5 -1t26.5 -1l41 168h138l-47 -191q165 -47 253.5 -173t71.5 -310l-225 8q9 91 -30.5 166t-119.5 113l-88 -357l41 -10q164 -46 247 -126.5t83 -207.5
q0 -102 -41.5 -183t-114 -131.5t-165.5 -77t-199 -26.5q-29 0 -41 2l-45 -184h-137l49 201q-196 40 -296.5 175t-76.5 339zM899 356q0 59 -43.5 97.5t-128.5 62.5l-88 -348h2q123 0 190.5 49.5t67.5 138.5zM485 940q0 -63 42 -101t124 -63l2 -2l88 350h-18
q-113 0 -175.5 -47.5t-62.5 -136.5z" />
    <glyph glyph-name="cent.lt" horiz-adv-x="1228" 
d="M127 367q0 151 67.5 277t194 203t287.5 81l45 178h141l-49 -193q140 -32 208 -135.5t62 -242.5l-200 -15q3 76 -26.5 132.5t-88.5 80.5l-143 -573q87 13 148.5 73.5t88.5 153.5l199 -18q-40 -166 -166.5 -275.5t-314.5 -118.5l-43 -172h-142l45 183q-147 29 -230 130
t-83 251zM375 367q0 -151 112 -195l144 571q-117 -20 -186.5 -122.5t-69.5 -253.5z" />
    <glyph glyph-name="sterling.lt" horiz-adv-x="1228" 
d="M868 1112q-61 0 -108.5 -23.5t-75.5 -64t-42.5 -90t-14.5 -105.5q0 -63 6 -112h287l-35 -150h-236v-32q0 -132 -55 -261q103 -75 201 -75q92 0 138 47t71 157l182 -10q-25 -216 -128.5 -317t-264.5 -101q-164 0 -308 129q-122 -129 -268 -129q-94 0 -148.5 53.5
t-54.5 143.5q0 112 76 179t182 67q86 0 158 -37q10 52 10 94q0 44 -10 92h-215l35 150h141q-10 55 -10 110q0 134 62 245t177 177t261 66q220 0 315 -121t47 -332l-215 -10q26 124 -14.5 192t-145.5 68zM238 129q74 0 129 88q-59 53 -109 53q-39 0 -64.5 -21.5t-25.5 -60.5
q0 -28 19 -43.5t51 -15.5z" />
    <glyph glyph-name="yen.lt" horiz-adv-x="1228" 
d="M174 530l39 158h223l-205 602h263l172 -536l421 536h291l-506 -602h224l-39 -158h-318l-30 -124h315l-39 -160h-317l-60 -246h-248l60 246h-316l39 160h318l31 124h-318z" />
    <glyph glyph-name="florin.lt" horiz-adv-x="1228" 
d="M895 944l-64 -174h203l-45 -178h-223l-191 -531q-56 -152 -154 -226.5t-247 -74.5q-23 0 -102 9l53 180q28 -4 39 -4q69 0 110.5 45t73.5 137l168 465h-158l43 178h179l88 240q53 144 156 223.5t241 79.5q42 0 123 -15l-45 -180q-30 6 -56 6q-70 0 -114.5 -43t-77.5 -137
z" />
    <glyph glyph-name="zero.lt" horiz-adv-x="1228" 
d="M590 182q135 0 216.5 103.5t133.5 324.5q29 116 29 213q0 139 -57.5 212t-170.5 73q-136 0 -217 -103t-135 -325q-27 -108 -27 -213q0 -285 228 -285zM584 -25q-236 0 -361 136t-125 370q0 98 25 217q64 297 227.5 457t394.5 160q237 0 362.5 -136t125.5 -370
q0 -98 -25 -217q-64 -297 -228 -457t-396 -160z" />
    <glyph glyph-name="one.lt" horiz-adv-x="1228" 
d="M123 0l51 213h315l179 715h-293l45 172h55q103 0 166.5 20t102 59t81.5 115h191l-268 -1081h292l-53 -213h-864z" />
    <glyph glyph-name="two.lt" horiz-adv-x="1228" 
d="M492 217h575l-53 -217h-973l43 172l471 328q169 119 214 156q136 112 159 218q6 25 6 52q0 80 -46.5 127t-137.5 47q-121 0 -186.5 -93t-67.5 -247l-252 14q5 242 145.5 391.5t382.5 149.5q203 0 313.5 -103.5t110.5 -261.5q0 -55 -12 -105.5t-29.5 -90.5t-52 -82
t-63.5 -71.5t-81 -68.5t-89 -64t-101 -67z" />
    <glyph glyph-name="three.lt" horiz-adv-x="1228" 
d="M844 403q0 70 -45 110t-140 40q-60 0 -112 -6l49 192q44 -6 111 -6q65 0 119.5 20t93 70t38.5 123q0 71 -48 116.5t-138 45.5q-109 0 -181.5 -67t-103.5 -197l-247 10q45 211 191 336t362 125q204 0 310.5 -93t106.5 -241q0 -74 -26 -134.5t-70.5 -101t-97.5 -66
t-113 -36.5q95 -26 147 -91.5t52 -156.5q0 -100 -41.5 -181.5t-112.5 -132.5t-161.5 -78.5t-190.5 -27.5q-173 0 -289 64t-159.5 172t-16.5 244l242 -11q-25 -122 38 -192t181 -70q114 0 183 55t69 166z" />
    <glyph glyph-name="four.lt" horiz-adv-x="1228" 
d="M1200 1290l-190 -766h194l-53 -213h-195l-77 -311h-252l78 311h-656l60 250l768 729h323zM891 1059l-565 -535h430z" />
    <glyph glyph-name="five.lt" horiz-adv-x="1228" 
d="M1237 1290l-57 -227h-584q-15 -51 -50 -150t-54 -139q108 94 258 94q177 0 277.5 -106t100.5 -275q0 -226 -145.5 -369t-378.5 -143q-238 0 -363.5 136.5t-78.5 343.5l235 -19q-20 -113 43 -183.5t176 -70.5q121 0 195 77.5t74 203.5q0 93 -53 150t-150 57
q-156 0 -236 -123l-243 18q63 148 141 362t119 363h774z" />
    <glyph glyph-name="six.lt" horiz-adv-x="1228" 
d="M791 1110q-155 0 -258.5 -119t-145.5 -334q54 90 152.5 141.5t214.5 51.5q191 0 293 -105.5t102 -267.5q0 -112 -44 -207.5t-118 -159t-169.5 -99.5t-199.5 -36q-223 0 -351 131.5t-128 356.5q0 132 27.5 256.5t83 232.5t134 189t187 127.5t234.5 46.5q217 0 325 -108.5
t103 -288.5l-234 -11q2 96 -52.5 149.5t-155.5 53.5zM907 453q0 93 -60.5 147.5t-164.5 54.5q-119 0 -200 -73.5t-81 -198.5q0 -93 60 -148t164 -55q119 0 200.5 74t81.5 199z" />
    <glyph glyph-name="seven.lt" horiz-adv-x="1228" 
d="M922 1059h-701l60 231h999l-47 -186q-151 -123 -265.5 -252.5t-194.5 -269t-133.5 -278t-94.5 -304.5h-279q86 331 247.5 591.5t408.5 467.5z" />
    <glyph glyph-name="eight.lt" horiz-adv-x="1228" 
d="M610 168q120 0 192 60.5t72 160.5q0 84 -65 132t-176 48q-117 0 -188.5 -60t-71.5 -159q0 -83 64.5 -132.5t172.5 -49.5zM606 -25q-225 0 -357 101t-132 258q0 139 88.5 230.5t236.5 115.5q-163 80 -163 242q0 120 69 211.5t177.5 136.5t236.5 45q208 0 329 -88t121 -244
q0 -131 -73.5 -215.5t-210.5 -122.5q90 -31 146 -101.5t56 -170.5q0 -123 -71.5 -215t-189.5 -137.5t-263 -45.5zM729 750q103 0 169.5 59t66.5 152q0 79 -56.5 122t-144.5 43q-103 0 -169.5 -58t-66.5 -150q0 -80 56.5 -124t144.5 -44z" />
    <glyph glyph-name="nine.lt" horiz-adv-x="1228" 
d="M541 180q155 0 258 118.5t145 334.5q-54 -90 -152 -141.5t-214 -51.5q-191 0 -293.5 105.5t-102.5 267.5q0 112 44 207.5t118 159t169.5 99.5t199.5 36q223 0 351 -131.5t128 -356.5q0 -132 -27.5 -256.5t-83 -232.5t-134 -189t-187 -127.5t-234.5 -46.5q-217 0 -325 109
t-103 289l234 10q-2 -96 53 -149.5t156 -53.5zM424 838q0 -93 60.5 -148t164.5 -55q119 0 200 73.5t81 198.5q0 93 -59.5 148t-163.5 55q-119 0 -201 -73.5t-82 -198.5z" />
    <glyph glyph-name="period.tab" horiz-adv-x="614" 
d="M68 0l65 274h275l-68 -274h-272z" />
    <glyph glyph-name="comma.tab" horiz-adv-x="614" 
d="M68 0l65 274h275l-66 -262q-31 -131 -112.5 -197t-225.5 -69l31 129q66 3 102 32t53 93h-122z" />
    <glyph glyph-name="colon.tab" horiz-adv-x="614" 
d="M68 0l65 274h275l-68 -274h-272zM217 600l66 274h274l-68 -274h-272z" />
    <glyph glyph-name="semicolon.tab" horiz-adv-x="614" 
d="M68 0l65 274h275l-66 -262q-31 -131 -112.5 -197t-225.5 -69l31 129q66 3 102 32t53 93h-122zM217 600l66 274h274l-68 -274h-272z" />
    <glyph glyph-name="space.tab" horiz-adv-x="614" 
 />
    <glyph glyph-name="percent.lt" horiz-adv-x="1638" 
d="M334 889q0 -127 115 -127q76 0 127 76t51 206q0 125 -115 125q-75 0 -126.5 -75.5t-51.5 -204.5zM154 895q0 93 32 173t84 133.5t118.5 83.5t135.5 30q127 0 205 -76t78 -201q0 -93 -32 -173t-84.5 -133.5t-119 -83.5t-135.5 -30q-127 0 -204.5 76t-77.5 201zM1460 1300
l-1007 -1310h-201l1008 1310h200zM1376 401q0 127 -114 127q-75 0 -126 -76.5t-51 -205.5q0 -125 115 -125q75 0 125.5 75.5t50.5 204.5zM1559 395q0 -93 -32 -173t-84.5 -133.5t-119 -83.5t-135.5 -30q-127 0 -206 76t-79 201q0 93 32 173t84.5 133.5t119 83.5t135.5 30
q128 0 206.5 -75.5t78.5 -201.5z" />
    <glyph glyph-name="perthousand.lt" horiz-adv-x="2457" 
d="M375 889q0 -127 114 -127q75 0 126 76.5t51 205.5q0 125 -115 125q-75 0 -125.5 -75.5t-50.5 -204.5zM193 895q0 93 32 173t84 133.5t118.5 83.5t135.5 30q127 0 206 -76t79 -201q0 -93 -32 -173t-84.5 -133.5t-119 -83.5t-135.5 -30q-128 0 -206 75.5t-78 201.5z
M1499 1300l-1007 -1310h-201l1007 1310h201zM1417 401q0 127 -114 127q-76 0 -127.5 -76.5t-51.5 -205.5q0 -125 115 -125q75 0 126.5 75.5t51.5 204.5zM1597 395q0 -93 -32 -173t-84 -133.5t-118.5 -83.5t-135.5 -30q-127 0 -205 76t-78 201q0 93 32 173t84.5 133.5
t119 83.5t135.5 30q127 0 204.5 -76t77.5 -201zM2136 401q0 127 -115 127q-75 0 -125.5 -76.5t-50.5 -205.5q0 -125 115 -125q75 0 125.5 75.5t50.5 204.5zM2318 395q0 -93 -32 -173t-84 -133.5t-118.5 -83.5t-135.5 -30q-128 0 -206.5 75.5t-78.5 201.5q0 93 32 173
t84.5 133.5t119 83.5t135.5 30q127 0 205.5 -76t78.5 -201z" />
    <glyph glyph-name="plus.lt" horiz-adv-x="1228" 
d="M684 1169h203l-107 -430h430l-51 -204h-430l-106 -429h-205l106 429h-428l51 204h428z" />
    <glyph glyph-name="minus.lt" horiz-adv-x="1228" 
d="M98 535l54 204h1060l-51 -204h-1063z" />
    <glyph glyph-name="multiply.lt" horiz-adv-x="1228" 
d="M240 182l-109 146l389 309l-233 311l162 129l231 -311l389 313l111 -145l-394 -313l234 -310l-164 -131l-227 312z" />
    <glyph glyph-name="divide.lt" horiz-adv-x="1228" 
d="M102 535l54 204h1061l-52 -204h-1063zM596 936l68 266h278l-68 -266h-278zM379 74l67 264h279l-68 -264h-278z" />
    <glyph glyph-name="equal.lt" horiz-adv-x="1228" 
d="M59 352l47 191h1063l-47 -191h-1063zM156 733l45 193h1063l-47 -193h-1061z" />
    <glyph glyph-name="less.lt" horiz-adv-x="1228" 
d="M170 496l66 274l909 389l-64 -252l-696 -286l553 -295l-57 -222z" />
    <glyph glyph-name="greater.lt" horiz-adv-x="1228" 
d="M1149 770l-70 -274l-905 -392l62 252l696 291l-551 291l55 221z" />
    <glyph glyph-name="plusminus.lt" horiz-adv-x="1228" 
d="M717 1251h203l-84 -338h419l-51 -202h-418l-84 -338h-204l84 338h-418l51 202h416zM0 59l53 203h1039l-52 -203h-1040z" />
    <glyph glyph-name="lessequal.lt" horiz-adv-x="1228" 
d="M113 59l51 203h811l-53 -203h-809zM262 657l66 261l891 323l-60 -240l-657 -227l547 -227l-56 -211z" />
    <glyph glyph-name="greaterequal.lt" horiz-adv-x="1228" 
d="M1014 262l-51 -203h-811l53 203h809zM1178 918l-66 -261l-891 -321l62 239l655 226l-545 229l53 211z" />
    <glyph glyph-name="notequal.lt" horiz-adv-x="1228" 
d="M160 735l43 187h626l230 245h196l-229 -245h240l-45 -187h-369l-180 -194h499l-45 -187h-628l-228 -243h-196l227 243h-238l48 187h364l180 194h-495z" />
    <glyph glyph-name="approxequal.lt" horiz-adv-x="1228" 
d="M143 672l47 194q173 97 310 97q91 0 231.5 -47.5t231.5 -47.5q142 0 315 97l-49 -195q-169 -96 -316 -96q-90 0 -230 47t-230 47q-139 0 -310 -96zM55 317l47 195q164 94 310 94q91 0 230.5 -46t229.5 -46q150 0 318 94l-49 -194q-175 -95 -316 -95q-91 0 -231 46.5
t-232 46.5q-136 0 -307 -95z" />
    </font>
</defs>
</svg>
