<svg width="174" height="167" viewBox="0 0 174 167" fill="none" xmlns="http://www.w3.org/2000/svg">
<path d="M75.1832 7.24664C79.9518 -2.41555 93.7298 -2.41555 98.4983 7.24665L115.263 41.2147C117.156 45.0515 120.817 47.7109 125.051 48.3262L162.537 53.7732C173.2 55.3226 177.457 68.4263 169.741 75.9472L142.616 102.388C139.552 105.374 138.154 109.677 138.878 113.894L145.281 151.229C147.102 161.849 135.956 169.947 126.419 164.933L92.8902 147.306C89.103 145.315 84.5785 145.315 80.7913 147.306L47.2629 164.933C37.7257 169.947 26.5791 161.849 28.4005 151.229L34.8039 113.894C35.5272 109.677 34.1291 105.374 31.0651 102.388L3.94005 75.9472C-3.77567 68.4263 0.481966 55.3226 11.1448 53.7732L48.6308 48.3262C52.865 47.7109 56.5254 45.0515 58.419 41.2147L75.1832 7.24664Z" fill="#D1FF66"/>
</svg>
